SplineFontDB: 3.0
FontName: DejaVuSerifCondensed-Bold
FullName: DejaVu Serif Condensed Bold
FamilyName: DejaVu Serif Condensed
Weight: Bold
Copyright: Copyright (c) 2003 by Bitstream, Inc. All Rights Reserved.\nDejaVu changes are in public domain\n
Version: 2.36
ItalicAngle: 0
UnderlinePosition: -85
UnderlineWidth: 90
Ascent: 1556
Descent: 492
InvalidEm: 0
LayerCount: 2
Layer: 0 1 "Back" 1
Layer: 1 1 "Fore" 0
FSType: 0
OS2Version: 0
OS2_WeightWidthSlopeOnly: 0
OS2_UseTypoMetrics: 0
PfmFamily: 17
TTFWeight: 700
TTFWidth: 4
LineGap: 0
VLineGap: 0
Panose: 2 6 8 6 5 6 5 2 2 4
OS2TypoAscent: 1556
OS2TypoAOffset: 0
OS2TypoDescent: -492
OS2TypoDOffset: 0
OS2TypoLinegap: 410
OS2WinAscent: 1923
OS2WinAOffset: 0
OS2WinDescent: 483
OS2WinDOffset: 0
HheadAscent: 1923
HheadAOffset: 0
HheadDescent: -483
HheadDOffset: 0
OS2CapHeight: 0
OS2XHeight: 0
OS2Vendor: 'PfEd'
Lookup: 6 0 0 "'ccmp' Contextual Chaining Substitution" { "'ccmp' Contextual Chaining Substitution"  } ['ccmp' ('DFLT' <'dflt' > 'cyrl' <'MKD ' 'SRB ' 'dflt' > 'grek' <'dflt' > 'latn' <'AZE ' 'CRT ' 'GAG ' 'ISM ' 'KAZ ' 'KRK ' 'KSM ' 'LSM ' 'MOL ' 'NSM ' 'ROM ' 'SKS ' 'SSM ' 'TAT ' 'TRK ' 'dflt' > ) ]
Lookup: 1 0 0 "'locl' Localized Forms in Cyrillic - Serbian" { "'locl' Localized Forms in Cyrillic - Serbian"  } ['locl' ('cyrl' <'MKD ' 'SRB ' > ) ]
Lookup: 1 0 0 "'locl' Localized Forms in Latin - Sami" { "'locl' Localized Forms in Latin - Sami"  } ['locl' ('latn' <'ISM ' 'KSM ' 'LSM ' 'NSM ' 'SKS ' 'SSM ' > ) ]
Lookup: 4 0 1 "'liga' Standard Ligatures" { "'liga' Standard Ligatures"  } ['liga' ('DFLT' <'dflt' > 'cyrl' <'MKD ' 'SRB ' 'dflt' > 'grek' <'dflt' > 'latn' <'AZE ' 'CRT ' 'GAG ' 'ISM ' 'KAZ ' 'KRK ' 'KSM ' 'LSM ' 'MOL ' 'NSM ' 'ROM ' 'SKS ' 'SSM ' 'TAT ' 'TRK ' 'dflt' > ) ]

StartChar: .notdef
Encoding: 0 -1 0
Width: 1106
Flags: W
LayerCount: 2
Back
Fore
SplineSet
91.7998046875 -362 m 1,0,-1
 91.7998046875 1444 l 1,1,-1
 1013.40039062 1444 l 1,2,-1
 1013.40039062 -362 l 1,3,-1
 91.7998046875 -362 l 1,0,-1
195.299804688 -248 m 1,4,-1
 910.799804688 -248 l 1,5,-1
 910.799804688 1329 l 1,6,-1
 195.299804688 1329 l 1,7,-1
 195.299804688 -248 l 1,4,-1
EndSplineSet
EndChar
StartChar: exclam
Encoding: 33 33 33
Width: 809
Flags: W
LayerCount: 2
Back
Fore
SplineSet
234 162 m 0,0,1
 234 240 234 240 283.950195312 296 c 128,-1,2
 333.900390625 352 333.900390625 352 404.099609375 352 c 0,3,4
 474.299804688 352 474.299804688 352 524.700195312 296 c 128,-1,5
 575.099609375 240 575.099609375 240 575.099609375 162 c 0,6,7
 575.099609375 83 575.099609375 83 524.700195312 27 c 128,-1,8
 474.299804688 -29 474.299804688 -29 404.099609375 -29 c 0,9,10
 333.900390625 -29 333.900390625 -29 283.950195312 27 c 128,-1,11
 234 83 234 83 234 162 c 0,0,1
235.799804688 1493 m 1,12,-1
 573.299804688 1493 l 1,13,-1
 466.200195312 651 l 1,14,-1
 466.200195312 461 l 1,15,-1
 341.099609375 461 l 1,16,-1
 341.099609375 651 l 1,17,-1
 235.799804688 1493 l 1,12,-1
EndSplineSet
EndChar
StartChar: quotedbl
Encoding: 34 34 34
Width: 960
Flags: W
LayerCount: 2
Back
Fore
SplineSet
388.799804688 1493 m 1,0,-1
 388.799804688 938 l 1,1,-1
 175.5 938 l 1,2,-1
 175.5 1493 l 1,3,-1
 388.799804688 1493 l 1,0,-1
784.799804688 1493 m 1,4,-1
 784.799804688 938 l 1,5,-1
 571.5 938 l 1,6,-1
 571.5 1493 l 1,7,-1
 784.799804688 1493 l 1,4,-1
EndSplineSet
EndChar
StartChar: numbersign
Encoding: 35 35 35
Width: 1544
Flags: W
LayerCount: 2
Back
Fore
SplineSet
921.599609375 872 m 1,0,-1
 684 872 l 1,1,-1
 621 598 l 1,2,-1
 858.599609375 598 l 1,3,-1
 921.599609375 872 l 1,0,-1
819.900390625 1470 m 1,4,-1
 733.5 1085 l 1,5,-1
 971.099609375 1085 l 1,6,-1
 1058.40039062 1470 l 1,7,-1
 1257.29980469 1470 l 1,8,-1
 1170 1085 l 1,9,-1
 1419.29980469 1085 l 1,10,-1
 1419.29980469 872 l 1,11,-1
 1122.29980469 872 l 1,12,-1
 1060.20019531 598 l 1,13,-1
 1315.79980469 598 l 1,14,-1
 1315.79980469 383 l 1,15,-1
 1013.40039062 383 l 1,16,-1
 927 0 l 1,17,-1
 728.099609375 0 l 1,18,-1
 814.5 383 l 1,19,-1
 576.900390625 383 l 1,20,-1
 490.5 0 l 1,21,-1
 289.799804688 0 l 1,22,-1
 376.200195312 383 l 1,23,-1
 125.099609375 383 l 1,24,-1
 125.099609375 598 l 1,25,-1
 420.299804688 598 l 1,26,-1
 483.299804688 872 l 1,27,-1
 228.599609375 872 l 1,28,-1
 228.599609375 1085 l 1,29,-1
 532.799804688 1085 l 1,30,-1
 619.200195312 1470 l 1,31,-1
 819.900390625 1470 l 1,4,-1
EndSplineSet
EndChar
StartChar: dollar
Encoding: 36 36 36
Width: 1282
Flags: W
LayerCount: 2
Back
Fore
SplineSet
175.5 59 m 1,0,-1
 175.5 350 l 1,1,-1
 283.5 350 l 1,2,3
 298.799804688 216 298.799804688 216 369.450195312 150 c 128,-1,4
 440.099609375 84 440.099609375 84 569.700195312 84 c 2,5,-1
 582.299804688 84 l 1,6,-1
 582.299804688 489 l 1,7,8
 358.200195312 544 358.200195312 544 261 639 c 128,-1,9
 163.799804688 734 163.799804688 734 163.799804688 897 c 0,10,11
 163.799804688 1077 163.799804688 1077 274.049804688 1180.5 c 128,-1,12
 384.299804688 1284 384.299804688 1284 582.299804688 1290 c 1,13,-1
 582.299804688 1559 l 1,14,-1
 691.200195312 1559 l 1,15,-1
 691.200195312 1290 l 1,16,17
 792 1284 792 1284 884.25 1262.5 c 128,-1,18
 976.5 1241 976.5 1241 1063.79980469 1202 c 1,19,-1
 1063.79980469 930 l 1,20,-1
 954.900390625 930 l 1,21,22
 940.5 1046 940.5 1046 871.650390625 1110.5 c 128,-1,23
 802.799804688 1175 802.799804688 1175 691.200195312 1177 c 1,24,-1
 691.200195312 805 l 1,25,26
 933.299804688 746 933.299804688 746 1031.40039062 646.5 c 128,-1,27
 1129.5 547 1129.5 547 1129.5 367 c 0,28,29
 1129.5 182 1129.5 182 1015.65039062 79.5 c 128,-1,30
 901.799804688 -23 901.799804688 -23 691.200195312 -29 c 1,31,-1
 691.200195312 -299 l 1,32,-1
 582.299804688 -299 l 1,33,-1
 582.299804688 -29 l 1,34,35
 483.299804688 -27 483.299804688 -27 381.599609375 -5 c 128,-1,36
 279.900390625 17 279.900390625 17 175.5 59 c 1,0,-1
582.299804688 1178 m 1,37,38
 505.799804688 1167 505.799804688 1167 461.25 1125 c 128,-1,39
 416.700195312 1083 416.700195312 1083 416.700195312 1022 c 0,40,41
 416.700195312 952 416.700195312 952 454.950195312 909 c 128,-1,42
 493.200195312 866 493.200195312 866 582.299804688 838 c 1,43,-1
 582.299804688 1178 l 1,37,38
691.200195312 84 m 1,44,45
 782.099609375 95 782.099609375 95 828.900390625 138.5 c 128,-1,46
 875.700195312 182 875.700195312 182 875.700195312 256 c 0,47,48
 875.700195312 330 875.700195312 330 832.049804688 378 c 128,-1,49
 788.400390625 426 788.400390625 426 691.200195312 457 c 1,50,-1
 691.200195312 84 l 1,44,45
EndSplineSet
EndChar
StartChar: percent
Encoding: 37 37 37
Width: 1751
Flags: W
LayerCount: 2
Back
Fore
SplineSet
397.799804688 1419 m 0,0,1
 340.200195312 1419 340.200195312 1419 315 1349.5 c 128,-1,2
 289.799804688 1280 289.799804688 1280 289.799804688 1114 c 0,3,4
 289.799804688 947 289.799804688 947 315 877 c 128,-1,5
 340.200195312 807 340.200195312 807 397.799804688 807 c 0,6,7
 456.299804688 807 456.299804688 807 481.5 877 c 128,-1,8
 506.700195312 947 506.700195312 947 506.700195312 1114 c 0,9,10
 506.700195312 1280 506.700195312 1280 481.5 1349.5 c 128,-1,11
 456.299804688 1419 456.299804688 1419 397.799804688 1419 c 0,0,1
397.799804688 1520 m 0,12,13
 569.700195312 1520 569.700195312 1520 661.049804688 1415.5 c 128,-1,14
 752.400390625 1311 752.400390625 1311 752.400390625 1114 c 0,15,16
 752.400390625 917 752.400390625 917 661.049804688 812 c 128,-1,17
 569.700195312 707 569.700195312 707 397.799804688 707 c 0,18,19
 226.799804688 707 226.799804688 707 135.450195312 812 c 128,-1,20
 44.099609375 917 44.099609375 917 44.099609375 1114 c 0,21,22
 44.099609375 1311 44.099609375 1311 135.450195312 1415.5 c 128,-1,23
 226.799804688 1520 226.799804688 1520 397.799804688 1520 c 0,12,13
1218.59960938 1520 m 1,24,-1
 1373.40039062 1520 l 1,25,-1
 532.799804688 -29 l 1,26,-1
 378 -29 l 1,27,-1
 1218.59960938 1520 l 1,24,-1
1352.70019531 784 m 0,28,29
 1524.59960938 784 1524.59960938 784 1615.5 679.5 c 128,-1,30
 1706.40039062 575 1706.40039062 575 1706.40039062 379 c 0,31,32
 1706.40039062 182 1706.40039062 182 1615.5 76.5 c 128,-1,33
 1524.59960938 -29 1524.59960938 -29 1352.70019531 -29 c 0,34,35
 1181.70019531 -29 1181.70019531 -29 1090.34960938 76.5 c 128,-1,36
 999 182 999 182 999 379 c 0,37,38
 999 575 999 575 1090.34960938 679.5 c 128,-1,39
 1181.70019531 784 1181.70019531 784 1352.70019531 784 c 0,28,29
1352.70019531 684 m 0,40,41
 1294.20019531 684 1294.20019531 684 1269 614.5 c 128,-1,42
 1243.79980469 545 1243.79980469 545 1243.79980469 379 c 0,43,44
 1243.79980469 212 1243.79980469 212 1269.45019531 142 c 128,-1,45
 1295.09960938 72 1295.09960938 72 1352.70019531 72 c 0,46,47
 1411.20019531 72 1411.20019531 72 1436.40039062 142 c 128,-1,48
 1461.59960938 212 1461.59960938 212 1461.59960938 379 c 0,49,50
 1461.59960938 545 1461.59960938 545 1436.40039062 614.5 c 128,-1,51
 1411.20019531 684 1411.20019531 684 1352.70019531 684 c 0,40,41
EndSplineSet
EndChar
StartChar: ampersand
Encoding: 38 38 38
Width: 1664
Flags: W
LayerCount: 2
Back
Fore
SplineSet
1630.79980469 0 m 1,0,-1
 1199.70019531 0 l 1,1,-1
 1085.40039062 131 l 1,2,3
 995.400390625 51 995.400390625 51 886.5 11 c 128,-1,4
 777.599609375 -29 777.599609375 -29 648.900390625 -29 c 0,5,6
 378.900390625 -29 378.900390625 -29 226.349609375 99 c 128,-1,7
 73.7998046875 227 73.7998046875 227 73.7998046875 451 c 0,8,9
 73.7998046875 614 73.7998046875 614 151.650390625 729.5 c 128,-1,10
 229.5 845 229.5 845 396 928 c 1,11,12
 350.099609375 995 350.099609375 995 327.150390625 1056 c 128,-1,13
 304.200195312 1117 304.200195312 1117 304.200195312 1174 c 0,14,15
 304.200195312 1338 304.200195312 1338 427.950195312 1429 c 128,-1,16
 551.700195312 1520 551.700195312 1520 775.799804688 1520 c 0,17,18
 842.400390625 1520 842.400390625 1520 931.049804688 1508 c 128,-1,19
 1019.70019531 1496 1019.70019531 1496 1131.29980469 1473 c 1,20,-1
 1131.29980469 1161 l 1,21,-1
 1015.20019531 1161 l 1,22,23
 999 1285 999 1285 946.799804688 1342 c 128,-1,24
 894.599609375 1399 894.599609375 1399 798.299804688 1399 c 0,25,26
 707.400390625 1399 707.400390625 1399 655.200195312 1351 c 128,-1,27
 603 1303 603 1303 603 1221 c 0,28,29
 603 1129 603 1129 764.099609375 947 c 0,30,31
 782.099609375 927 782.099609375 927 791.099609375 918 c 1,32,-1
 1205.09960938 436 l 1,33,34
 1259.09960938 504 1259.09960938 504 1289.70019531 593 c 128,-1,35
 1320.29980469 682 1320.29980469 682 1328.40039062 795 c 1,36,-1
 1164.59960938 795 l 1,37,-1
 1164.59960938 915 l 1,38,-1
 1614.59960938 915 l 1,39,-1
 1614.59960938 795 l 1,40,-1
 1456.20019531 795 l 1,41,42
 1440.90039062 649 1440.90039062 649 1399.95019531 536 c 128,-1,43
 1359 423 1359 423 1292.40039062 336 c 1,44,-1
 1477.79980469 121 l 1,45,-1
 1630.79980469 121 l 1,46,-1
 1630.79980469 0 l 1,0,-1
1000.79980469 229 m 1,47,-1
 492.299804688 817 l 1,48,49
 442.799804688 750 442.799804688 750 417.599609375 674.5 c 128,-1,50
 392.400390625 599 392.400390625 599 392.400390625 516 c 0,51,52
 392.400390625 347 392.400390625 347 488.25 238 c 128,-1,53
 584.099609375 129 584.099609375 129 731.700195312 129 c 0,54,55
 801.900390625 129 801.900390625 129 868.049804688 153.5 c 128,-1,56
 934.200195312 178 934.200195312 178 1000.79980469 229 c 1,47,-1
EndSplineSet
EndChar
StartChar: quotesingle
Encoding: 39 39 39
Width: 564
Flags: W
LayerCount: 2
Back
Fore
SplineSet
388.799804688 1493 m 1,0,-1
 388.799804688 938 l 1,1,-1
 175.5 938 l 1,2,-1
 175.5 1493 l 1,3,-1
 388.799804688 1493 l 1,0,-1
EndSplineSet
EndChar
StartChar: parenleft
Encoding: 40 40 40
Width: 872
Flags: W
LayerCount: 2
Back
Fore
SplineSet
775.799804688 -319 m 1,0,1
 472.5 -194 472.5 -194 323.099609375 39 c 128,-1,2
 173.700195312 272 173.700195312 272 173.700195312 618 c 0,3,4
 173.700195312 964 173.700195312 964 321.299804688 1194 c 128,-1,5
 468.900390625 1424 468.900390625 1424 775.799804688 1556 c 1,6,-1
 775.799804688 1436 l 1,7,8
 633.599609375 1340 633.599609375 1340 571.049804688 1151.5 c 128,-1,9
 508.5 963 508.5 963 508.5 618 c 0,10,11
 508.5 274 508.5 274 571.049804688 85.5 c 128,-1,12
 633.599609375 -103 633.599609375 -103 775.799804688 -199 c 1,13,-1
 775.799804688 -319 l 1,0,1
EndSplineSet
EndChar
StartChar: parenright
Encoding: 41 41 41
Width: 872
Flags: W
LayerCount: 2
Back
Fore
SplineSet
93.599609375 -319 m 1,0,-1
 93.599609375 -199 l 1,1,2
 235.799804688 -103 235.799804688 -103 298.349609375 85.5 c 128,-1,3
 360.900390625 274 360.900390625 274 360.900390625 618 c 0,4,5
 360.900390625 963 360.900390625 963 298.349609375 1151.5 c 128,-1,6
 235.799804688 1340 235.799804688 1340 93.599609375 1436 c 1,7,-1
 93.599609375 1556 l 1,8,9
 400.5 1424 400.5 1424 548.549804688 1194 c 128,-1,10
 696.599609375 964 696.599609375 964 696.599609375 618 c 0,11,12
 696.599609375 272 696.599609375 272 546.75 39 c 128,-1,13
 396.900390625 -194 396.900390625 -194 93.599609375 -319 c 1,0,-1
EndSplineSet
EndChar
StartChar: asterisk
Encoding: 42 42 42
Width: 963
Flags: W
LayerCount: 2
Back
Fore
SplineSet
923.400390625 1212 m 1,0,-1
 599.400390625 1044 l 1,1,-1
 923.400390625 874 l 1,2,-1
 835.200195312 719 l 1,3,-1
 540 958 l 1,4,-1
 564.299804688 569 l 1,5,-1
 399.599609375 569 l 1,6,-1
 423.900390625 958 l 1,7,-1
 128.700195312 719 l 1,8,-1
 40.5 874 l 1,9,-1
 365.400390625 1044 l 1,10,-1
 40.5 1212 l 1,11,-1
 128.700195312 1370 l 1,12,-1
 423.900390625 1128 l 1,13,-1
 399.599609375 1520 l 1,14,-1
 564.299804688 1520 l 1,15,-1
 540 1128 l 1,16,-1
 835.200195312 1370 l 1,17,-1
 923.400390625 1212 l 1,0,-1
EndSplineSet
EndChar
StartChar: plus
Encoding: 43 43 43
Width: 1544
Flags: W
LayerCount: 2
Back
Fore
SplineSet
875.700195312 1284 m 1,0,-1
 875.700195312 758 l 1,1,-1
 1349.09960938 758 l 1,2,-1
 1349.09960938 528 l 1,3,-1
 875.700195312 528 l 1,4,-1
 875.700195312 2 l 1,5,-1
 668.700195312 2 l 1,6,-1
 668.700195312 528 l 1,7,-1
 195.299804688 528 l 1,8,-1
 195.299804688 758 l 1,9,-1
 668.700195312 758 l 1,10,-1
 668.700195312 1284 l 1,11,-1
 875.700195312 1284 l 1,0,-1
EndSplineSet
EndChar
StartChar: comma
Encoding: 44 44 44
Width: 641
Flags: W
LayerCount: 2
Back
Fore
SplineSet
24.2998046875 -197 m 1,0,1
 117.900390625 -113 117.900390625 -113 162 -9 c 128,-1,2
 206.099609375 95 206.099609375 95 206.099609375 233 c 2,3,-1
 206.099609375 319 l 1,4,-1
 462.599609375 319 l 1,5,-1
 462.599609375 311 l 2,6,7
 462.599609375 90 462.599609375 90 379.349609375 -69.5 c 128,-1,8
 296.099609375 -229 296.099609375 -229 123.299804688 -338 c 1,9,-1
 24.2998046875 -197 l 1,0,1
EndSplineSet
EndChar
StartChar: hyphen
Encoding: 45 45 45
Width: 765
Flags: W
LayerCount: 2
Back
Fore
SplineSet
99.900390625 684 m 1,0,-1
 665.099609375 684 l 1,1,-1
 665.099609375 414 l 1,2,-1
 99.900390625 414 l 1,3,-1
 99.900390625 684 l 1,0,-1
EndSplineSet
EndChar
StartChar: period
Encoding: 46 46 46
Width: 641
Flags: W
LayerCount: 2
Back
Fore
SplineSet
149.400390625 162 m 0,0,1
 149.400390625 240 149.400390625 240 199.799804688 296 c 128,-1,2
 250.200195312 352 250.200195312 352 320.400390625 352 c 0,3,4
 391.5 352 391.5 352 441.900390625 296 c 128,-1,5
 492.299804688 240 492.299804688 240 492.299804688 162 c 0,6,7
 492.299804688 83 492.299804688 83 441.900390625 27 c 128,-1,8
 391.5 -29 391.5 -29 320.400390625 -29 c 0,9,10
 250.200195312 -29 250.200195312 -29 199.799804688 27 c 128,-1,11
 149.400390625 83 149.400390625 83 149.400390625 162 c 0,0,1
EndSplineSet
EndChar
StartChar: slash
Encoding: 47 47 47
Width: 673
Flags: W
LayerCount: 2
Back
Fore
SplineSet
473.400390625 1493 m 1,0,-1
 673.200195312 1493 l 1,1,-1
 198.900390625 -190 l 1,2,-1
 0 -190 l 1,3,-1
 473.400390625 1493 l 1,0,-1
EndSplineSet
EndChar
StartChar: zero
Encoding: 48 48 48
Width: 1282
Flags: W
LayerCount: 2
Back
Fore
SplineSet
641.700195312 88 m 0,0,1
 749.700195312 88 749.700195312 88 789.75 197 c 128,-1,2
 829.799804688 306 829.799804688 306 829.799804688 745 c 0,3,4
 829.799804688 1181 829.799804688 1181 789.75 1292 c 128,-1,5
 749.700195312 1403 749.700195312 1403 641.700195312 1403 c 0,6,7
 533.700195312 1403 533.700195312 1403 493.650390625 1294 c 128,-1,8
 453.599609375 1185 453.599609375 1185 453.599609375 745 c 0,9,10
 453.599609375 306 453.599609375 306 493.650390625 197 c 128,-1,11
 533.700195312 88 533.700195312 88 641.700195312 88 c 0,0,1
641.700195312 -29 m 0,12,13
 372.599609375 -29 372.599609375 -29 229.5 170.5 c 128,-1,14
 86.400390625 370 86.400390625 370 86.400390625 745 c 0,15,16
 86.400390625 1120 86.400390625 1120 229.5 1320 c 128,-1,17
 372.599609375 1520 372.599609375 1520 641.700195312 1520 c 0,18,19
 909.900390625 1520 909.900390625 1520 1053 1320 c 128,-1,20
 1196.09960938 1120 1196.09960938 1120 1196.09960938 745 c 0,21,22
 1196.09960938 370 1196.09960938 370 1053 170.5 c 128,-1,23
 909.900390625 -29 909.900390625 -29 641.700195312 -29 c 0,12,13
EndSplineSet
EndChar
StartChar: one
Encoding: 49 49 49
Width: 1282
Flags: W
LayerCount: 2
Back
Fore
SplineSet
252.900390625 0 m 1,0,-1
 252.900390625 121 l 1,1,-1
 504.900390625 121 l 1,2,-1
 504.900390625 1329 l 1,3,-1
 225 1145 l 1,4,-1
 225 1294 l 1,5,-1
 562.5 1520 l 1,6,-1
 846 1520 l 1,7,-1
 846 121 l 1,8,-1
 1098.90039062 121 l 1,9,-1
 1098.90039062 0 l 1,10,-1
 252.900390625 0 l 1,0,-1
EndSplineSet
EndChar
StartChar: two
Encoding: 50 50 50
Width: 1282
Flags: W
LayerCount: 2
Back
Fore
SplineSet
243 1124 m 1,0,-1
 135 1124 l 1,1,-1
 135 1446 l 1,2,3
 244.799804688 1483 244.799804688 1483 352.349609375 1501.5 c 128,-1,4
 459.900390625 1520 459.900390625 1520 569.700195312 1520 c 0,5,6
 826.200195312 1520 826.200195312 1520 969.75 1403.5 c 128,-1,7
 1113.29980469 1287 1113.29980469 1287 1113.29980469 1079 c 0,8,9
 1113.29980469 931 1113.29980469 931 1034.09960938 813.5 c 128,-1,10
 954.900390625 696 954.900390625 696 731.700195312 535 c 1,11,-1
 357.299804688 262 l 1,12,-1
 993.599609375 262 l 1,13,-1
 993.599609375 438 l 1,14,-1
 1116.90039062 438 l 1,15,-1
 1116.90039062 0 l 1,16,-1
 123.299804688 0 l 1,17,-1
 123.299804688 244 l 1,18,-1
 322.200195312 397 l 2,19,20
 576.900390625 592 576.900390625 592 661.5 729 c 128,-1,21
 746.099609375 866 746.099609375 866 746.099609375 1049 c 0,22,23
 746.099609375 1222 746.099609375 1222 681.75 1312.5 c 128,-1,24
 617.400390625 1403 617.400390625 1403 494.099609375 1403 c 0,25,26
 387.900390625 1403 387.900390625 1403 324 1331.5 c 128,-1,27
 260.099609375 1260 260.099609375 1260 243 1124 c 1,0,-1
EndSplineSet
EndChar
StartChar: three
Encoding: 51 51 51
Width: 1282
Flags: W
LayerCount: 2
Back
Fore
SplineSet
158.400390625 1450 m 1,0,1
 277.200195312 1485 277.200195312 1485 388.799804688 1502.5 c 128,-1,2
 500.400390625 1520 500.400390625 1520 606.599609375 1520 c 0,3,4
 849.599609375 1520 849.599609375 1520 979.650390625 1423.5 c 128,-1,5
 1109.70019531 1327 1109.70019531 1327 1109.70019531 1147 c 0,6,7
 1109.70019531 1012 1109.70019531 1012 1035 928 c 128,-1,8
 960.299804688 844 960.299804688 844 816.299804688 815 c 1,9,10
 991.799804688 784 991.799804688 784 1078.20019531 682 c 128,-1,11
 1164.59960938 580 1164.59960938 580 1164.59960938 403 c 0,12,13
 1164.59960938 194 1164.59960938 194 1015.65039062 82.5 c 128,-1,14
 866.700195312 -29 866.700195312 -29 584.099609375 -29 c 0,15,16
 477.900390625 -29 477.900390625 -29 364.950195312 -9 c 128,-1,17
 252 11 252 11 128.700195312 51 c 1,18,-1
 128.700195312 379 l 1,19,-1
 237.599609375 379 l 1,20,21
 247.5 237 247.5 237 317.700195312 162.5 c 128,-1,22
 387.900390625 88 387.900390625 88 512.099609375 88 c 0,23,24
 648.900390625 88 648.900390625 88 723.599609375 172.5 c 128,-1,25
 798.299804688 257 798.299804688 257 798.299804688 412 c 0,26,27
 798.299804688 574 798.299804688 574 720.450195312 662 c 128,-1,28
 642.599609375 750 642.599609375 750 499.5 750 c 2,29,-1
 440.099609375 750 l 1,30,-1
 440.099609375 870 l 1,31,-1
 486.900390625 870 l 2,32,33
 619.200195312 870 619.200195312 870 685.799804688 938 c 128,-1,34
 752.400390625 1006 752.400390625 1006 752.400390625 1141 c 0,35,36
 752.400390625 1268 752.400390625 1268 689.849609375 1335.5 c 128,-1,37
 627.299804688 1403 627.299804688 1403 510.299804688 1403 c 0,38,39
 404.099609375 1403 404.099609375 1403 342 1338.5 c 128,-1,40
 279.900390625 1274 279.900390625 1274 267.299804688 1151 c 1,41,-1
 158.400390625 1151 l 1,42,-1
 158.400390625 1450 l 1,0,1
EndSplineSet
EndChar
StartChar: four
Encoding: 52 52 52
Width: 1282
Flags: W
LayerCount: 2
Back
Fore
SplineSet
1176.29980469 0 m 1,0,-1
 436.5 0 l 1,1,-1
 436.5 121 l 1,2,-1
 636.299804688 121 l 1,3,-1
 636.299804688 393 l 1,4,-1
 75.599609375 393 l 1,5,-1
 75.599609375 508 l 1,6,-1
 638.099609375 1520 l 1,7,-1
 976.5 1520 l 1,8,-1
 976.5 522 l 1,9,-1
 1206.90039062 522 l 1,10,-1
 1206.90039062 393 l 1,11,-1
 976.5 393 l 1,12,-1
 976.5 121 l 1,13,-1
 1176.29980469 121 l 1,14,-1
 1176.29980469 0 l 1,0,-1
636.299804688 522 m 1,15,-1
 636.299804688 1247 l 1,16,-1
 235.799804688 522 l 1,17,-1
 636.299804688 522 l 1,15,-1
EndSplineSet
EndChar
StartChar: five
Encoding: 53 53 53
Width: 1282
Flags: W
LayerCount: 2
Back
Fore
SplineSet
1039.5 1493 m 1,0,-1
 1039.5 1231 l 1,1,-1
 320.400390625 1231 l 1,2,-1
 320.400390625 903 l 1,3,4
 379.799804688 954 379.799804688 954 452.700195312 980 c 128,-1,5
 525.599609375 1006 525.599609375 1006 606.599609375 1006 c 0,6,7
 855 1006 855 1006 999 866.5 c 128,-1,8
 1143 727 1143 727 1143 487 c 0,9,10
 1143 243 1143 243 999 107 c 128,-1,11
 855 -29 855 -29 595.799804688 -29 c 0,12,13
 486 -29 486 -29 377.549804688 -9 c 128,-1,14
 269.099609375 11 269.099609375 11 151.200195312 53 c 1,15,-1
 151.200195312 379 l 1,16,-1
 259.200195312 379 l 1,17,18
 264.599609375 232 264.599609375 232 328.049804688 160 c 128,-1,19
 391.5 88 391.5 88 515.700195312 88 c 0,20,21
 648 88 648 88 711.900390625 186.5 c 128,-1,22
 775.799804688 285 775.799804688 285 775.799804688 487 c 0,23,24
 775.799804688 686 775.799804688 686 713.25 784.5 c 128,-1,25
 650.700195312 883 650.700195312 883 523.799804688 883 c 0,26,27
 455.400390625 883 455.400390625 883 401.849609375 851.5 c 128,-1,28
 348.299804688 820 348.299804688 820 302.400390625 754 c 1,29,-1
 212.400390625 754 l 1,30,-1
 212.400390625 1493 l 1,31,-1
 1039.5 1493 l 1,0,-1
EndSplineSet
EndChar
StartChar: six
Encoding: 54 54 54
Width: 1282
Flags: W
LayerCount: 2
Back
Fore
SplineSet
453.599609375 885 m 1,0,1
 512.099609375 937 512.099609375 937 584.549804688 963 c 128,-1,2
 657 989 657 989 742.5 989 c 0,3,4
 948.599609375 989 948.599609375 989 1066.04980469 855 c 128,-1,5
 1183.5 721 1183.5 721 1183.5 487 c 0,6,7
 1183.5 240 1183.5 240 1051.20019531 105.5 c 128,-1,8
 918.900390625 -29 918.900390625 -29 675 -29 c 0,9,10
 399.599609375 -29 399.599609375 -29 257.849609375 155.5 c 128,-1,11
 116.099609375 340 116.099609375 340 116.099609375 698 c 0,12,13
 116.099609375 1105 116.099609375 1105 273.599609375 1312.5 c 128,-1,14
 431.099609375 1520 431.099609375 1520 740.700195312 1520 c 0,15,16
 821.700195312 1520 821.700195312 1520 914.400390625 1505 c 128,-1,17
 1007.09960938 1490 1007.09960938 1490 1113.29980469 1460 c 1,18,-1
 1113.29980469 1196 l 1,19,-1
 1004.40039062 1196 l 1,20,21
 981.900390625 1298 981.900390625 1298 919.349609375 1350.5 c 128,-1,22
 856.799804688 1403 856.799804688 1403 757.799804688 1403 c 0,23,24
 597.599609375 1403 597.599609375 1403 526.049804688 1281 c 128,-1,25
 454.5 1159 454.5 1159 453.599609375 885 c 1,0,1
654.299804688 88 m 0,26,27
 747 88 747 88 786.599609375 175.5 c 128,-1,28
 826.200195312 263 826.200195312 263 826.200195312 479 c 0,29,30
 826.200195312 695 826.200195312 695 786.599609375 782.5 c 128,-1,31
 747 870 747 870 654.299804688 870 c 0,32,33
 561.599609375 870 561.599609375 870 522.450195312 782.5 c 128,-1,34
 483.299804688 695 483.299804688 695 483.299804688 479 c 0,35,36
 483.299804688 263 483.299804688 263 522.450195312 175.5 c 128,-1,37
 561.599609375 88 561.599609375 88 654.299804688 88 c 0,26,27
EndSplineSet
EndChar
StartChar: seven
Encoding: 55 55 55
Width: 1282
Flags: W
LayerCount: 2
Back
Fore
SplineSet
1129.5 1239 m 1,0,-1
 575.099609375 0 l 1,1,-1
 392.400390625 0 l 1,2,-1
 932.400390625 1210 l 1,3,-1
 269.099609375 1210 l 1,4,-1
 269.099609375 1008 l 1,5,-1
 145.799804688 1008 l 1,6,-1
 145.799804688 1493 l 1,7,-1
 1129.5 1493 l 1,8,-1
 1129.5 1239 l 1,0,-1
EndSplineSet
EndChar
StartChar: eight
Encoding: 56 56 56
Width: 1282
Flags: W
LayerCount: 2
Back
Fore
SplineSet
856.799804688 795 m 1,0,1
 1017 766 1017 766 1100.25 664 c 128,-1,2
 1183.5 562 1183.5 562 1183.5 397 c 0,3,4
 1183.5 191 1183.5 191 1043.54980469 81 c 128,-1,5
 903.599609375 -29 903.599609375 -29 639.900390625 -29 c 0,6,7
 376.200195312 -29 376.200195312 -29 235.799804688 81 c 128,-1,8
 95.400390625 191 95.400390625 191 95.400390625 397 c 0,9,10
 95.400390625 562 95.400390625 562 179.099609375 664 c 128,-1,11
 262.799804688 766 262.799804688 766 422.099609375 795 c 1,12,13
 280.799804688 831 280.799804688 831 210.599609375 915.5 c 128,-1,14
 140.400390625 1000 140.400390625 1000 140.400390625 1130 c 0,15,16
 140.400390625 1320 140.400390625 1320 268.200195312 1420 c 128,-1,17
 396 1520 396 1520 639.900390625 1520 c 0,18,19
 882.900390625 1520 882.900390625 1520 1011.15039062 1420 c 128,-1,20
 1139.40039062 1320 1139.40039062 1320 1139.40039062 1130 c 0,21,22
 1139.40039062 1000 1139.40039062 1000 1068.75 915.5 c 128,-1,23
 998.099609375 831 998.099609375 831 856.799804688 795 c 1,0,1
791.099609375 1126 m 0,24,25
 791.099609375 1284 791.099609375 1284 756.900390625 1343.5 c 128,-1,26
 722.700195312 1403 722.700195312 1403 639.900390625 1403 c 0,27,28
 556.200195312 1403 556.200195312 1403 522.450195312 1343.5 c 128,-1,29
 488.700195312 1284 488.700195312 1284 488.700195312 1126 c 0,30,31
 488.700195312 969 488.700195312 969 522.450195312 910.5 c 128,-1,32
 556.200195312 852 556.200195312 852 639.900390625 852 c 0,33,34
 723.599609375 852 723.599609375 852 757.349609375 910.5 c 128,-1,35
 791.099609375 969 791.099609375 969 791.099609375 1126 c 0,24,25
826.200195312 414 m 0,36,37
 826.200195312 597 826.200195312 597 784.349609375 666 c 128,-1,38
 742.5 735 742.5 735 639.900390625 735 c 0,39,40
 536.400390625 735 536.400390625 735 495 666 c 128,-1,41
 453.599609375 597 453.599609375 597 453.599609375 414 c 0,42,43
 453.599609375 229 453.599609375 229 495.450195312 158.5 c 128,-1,44
 537.299804688 88 537.299804688 88 639.900390625 88 c 0,45,46
 741.599609375 88 741.599609375 88 783.900390625 158.5 c 128,-1,47
 826.200195312 229 826.200195312 229 826.200195312 414 c 0,36,37
EndSplineSet
EndChar
StartChar: nine
Encoding: 57 57 57
Width: 1282
Flags: W
LayerCount: 2
Back
Fore
SplineSet
628.200195312 1403 m 0,0,1
 535.5 1403 535.5 1403 496.349609375 1315.5 c 128,-1,2
 457.200195312 1228 457.200195312 1228 457.200195312 1012 c 0,3,4
 457.200195312 796 457.200195312 796 496.349609375 708.5 c 128,-1,5
 535.5 621 535.5 621 628.200195312 621 c 0,6,7
 720.900390625 621 720.900390625 621 760.5 708.5 c 128,-1,8
 800.099609375 796 800.099609375 796 800.099609375 1012 c 0,9,10
 800.099609375 1228 800.099609375 1228 760.5 1315.5 c 128,-1,11
 720.900390625 1403 720.900390625 1403 628.200195312 1403 c 0,0,1
828.900390625 608 m 1,12,13
 769.5 555 769.5 555 697.049804688 528.5 c 128,-1,14
 624.599609375 502 624.599609375 502 540 502 c 0,15,16
 334.799804688 502 334.799804688 502 217.349609375 635.5 c 128,-1,17
 99.900390625 769 99.900390625 769 99.900390625 1004 c 0,18,19
 99.900390625 1252 99.900390625 1252 231.299804688 1386 c 128,-1,20
 362.700195312 1520 362.700195312 1520 606.599609375 1520 c 0,21,22
 882 1520 882 1520 1024.20019531 1335 c 128,-1,23
 1166.40039062 1150 1166.40039062 1150 1166.40039062 793 c 0,24,25
 1166.40039062 386 1166.40039062 386 1008.90039062 178.5 c 128,-1,26
 851.400390625 -29 851.400390625 -29 541.799804688 -29 c 0,27,28
 460.799804688 -29 460.799804688 -29 368.099609375 -14 c 128,-1,29
 275.400390625 1 275.400390625 1 169.200195312 31 c 1,30,-1
 169.200195312 295 l 1,31,-1
 278.099609375 295 l 1,32,33
 300.599609375 193 300.599609375 193 363.150390625 140.5 c 128,-1,34
 425.700195312 88 425.700195312 88 525.599609375 88 c 0,35,36
 684 88 684 88 756 210.5 c 128,-1,37
 828 333 828 333 828.900390625 608 c 1,12,13
EndSplineSet
EndChar
StartChar: colon
Encoding: 58 58 58
Width: 680
Flags: W
LayerCount: 2
Back
Fore
SplineSet
169.200195312 813 m 0,0,1
 169.200195312 892 169.200195312 892 219.150390625 948 c 128,-1,2
 269.099609375 1004 269.099609375 1004 339.299804688 1004 c 0,3,4
 409.5 1004 409.5 1004 459.900390625 947.5 c 128,-1,5
 510.299804688 891 510.299804688 891 510.299804688 813 c 0,6,7
 510.299804688 735 510.299804688 735 460.349609375 680 c 128,-1,8
 410.400390625 625 410.400390625 625 339.299804688 625 c 0,9,10
 268.200195312 625 268.200195312 625 218.700195312 680 c 128,-1,11
 169.200195312 735 169.200195312 735 169.200195312 813 c 0,0,1
169.200195312 162 m 0,12,13
 169.200195312 240 169.200195312 240 219.150390625 296 c 128,-1,14
 269.099609375 352 269.099609375 352 339.299804688 352 c 0,15,16
 409.5 352 409.5 352 459.900390625 296 c 128,-1,17
 510.299804688 240 510.299804688 240 510.299804688 162 c 0,18,19
 510.299804688 83 510.299804688 83 459.900390625 27 c 128,-1,20
 409.5 -29 409.5 -29 339.299804688 -29 c 0,21,22
 269.099609375 -29 269.099609375 -29 219.150390625 27 c 128,-1,23
 169.200195312 83 169.200195312 83 169.200195312 162 c 0,12,13
EndSplineSet
EndChar
StartChar: semicolon
Encoding: 59 59 59
Width: 680
Flags: W
LayerCount: 2
Back
Fore
SplineSet
169.200195312 813 m 0,0,1
 169.200195312 892 169.200195312 892 219.150390625 948 c 128,-1,2
 269.099609375 1004 269.099609375 1004 339.299804688 1004 c 0,3,4
 409.5 1004 409.5 1004 459.900390625 947.5 c 128,-1,5
 510.299804688 891 510.299804688 891 510.299804688 813 c 0,6,7
 510.299804688 735 510.299804688 735 460.349609375 680 c 128,-1,8
 410.400390625 625 410.400390625 625 339.299804688 625 c 0,9,10
 268.200195312 625 268.200195312 625 218.700195312 680 c 128,-1,11
 169.200195312 735 169.200195312 735 169.200195312 813 c 0,0,1
47.7001953125 -188 m 1,12,13
 142.200195312 -105 142.200195312 -105 186.299804688 -1.5 c 128,-1,14
 230.400390625 102 230.400390625 102 230.400390625 240 c 2,15,-1
 230.400390625 328 l 1,16,-1
 486.900390625 328 l 1,17,18
 486.900390625 103 486.900390625 103 403.200195312 -59 c 128,-1,19
 319.5 -221 319.5 -221 147.599609375 -330 c 1,20,-1
 47.7001953125 -188 l 1,12,13
EndSplineSet
EndChar
StartChar: less
Encoding: 60 60 60
Width: 1544
Flags: W
LayerCount: 2
Back
Fore
SplineSet
1349.09960938 979 m 1,0,-1
 468 641 l 1,1,-1
 1349.09960938 305 l 1,2,-1
 1349.09960938 66 l 1,3,-1
 195.299804688 530 l 1,4,-1
 195.299804688 756 l 1,5,-1
 1349.09960938 1219 l 1,6,-1
 1349.09960938 979 l 1,0,-1
EndSplineSet
EndChar
StartChar: equal
Encoding: 61 61 61
Width: 1544
Flags: W
LayerCount: 2
Back
Fore
SplineSet
195.299804688 528 m 1,0,-1
 1349.09960938 528 l 1,1,-1
 1349.09960938 301 l 1,2,-1
 195.299804688 301 l 1,3,-1
 195.299804688 528 l 1,0,-1
195.299804688 983 m 1,4,-1
 1349.09960938 983 l 1,5,-1
 1349.09960938 756 l 1,6,-1
 195.299804688 756 l 1,7,-1
 195.299804688 983 l 1,4,-1
EndSplineSet
EndChar
StartChar: greater
Encoding: 62 62 62
Width: 1544
Flags: W
LayerCount: 2
Back
Fore
SplineSet
195.299804688 979 m 1,0,-1
 195.299804688 1219 l 1,1,-1
 1349.09960938 756 l 1,2,-1
 1349.09960938 530 l 1,3,-1
 195.299804688 66 l 1,4,-1
 195.299804688 305 l 1,5,-1
 1076.40039062 641 l 1,6,-1
 195.299804688 979 l 1,0,-1
EndSplineSet
EndChar
StartChar: question
Encoding: 63 63 63
Width: 1080
Flags: W
LayerCount: 2
Back
Fore
SplineSet
307.799804688 162 m 0,0,1
 307.799804688 240 307.799804688 240 358.200195312 296 c 128,-1,2
 408.599609375 352 408.599609375 352 478.799804688 352 c 0,3,4
 549.900390625 352 549.900390625 352 600.299804688 296 c 128,-1,5
 650.700195312 240 650.700195312 240 650.700195312 162 c 0,6,7
 650.700195312 83 650.700195312 83 600.299804688 27 c 128,-1,8
 549.900390625 -29 549.900390625 -29 478.799804688 -29 c 0,9,10
 408.599609375 -29 408.599609375 -29 358.200195312 27 c 128,-1,11
 307.799804688 83 307.799804688 83 307.799804688 162 c 0,0,1
119.700195312 1452 m 1,12,13
 231.299804688 1486 231.299804688 1486 332.099609375 1503 c 128,-1,14
 432.900390625 1520 432.900390625 1520 527.400390625 1520 c 0,15,16
 754.200195312 1520 754.200195312 1520 875.700195312 1409.5 c 128,-1,17
 997.200195312 1299 997.200195312 1299 997.200195312 1094 c 0,18,19
 997.200195312 892 997.200195312 892 879.75 775.5 c 128,-1,20
 762.299804688 659 762.299804688 659 541.799804688 641 c 1,21,-1
 541.799804688 436 l 1,22,-1
 416.700195312 436 l 1,23,-1
 416.700195312 735 l 1,24,25
 542.700195312 778 542.700195312 778 601.200195312 870 c 128,-1,26
 659.700195312 962 659.700195312 962 659.700195312 1116 c 0,27,28
 659.700195312 1260 659.700195312 1260 604.799804688 1333.5 c 128,-1,29
 549.900390625 1407 549.900390625 1407 442.799804688 1407 c 0,30,31
 343.799804688 1407 343.799804688 1407 290.25 1341 c 128,-1,32
 236.700195312 1275 236.700195312 1275 228.599609375 1145 c 1,33,-1
 119.700195312 1145 l 1,34,-1
 119.700195312 1452 l 1,12,13
EndSplineSet
EndChar
StartChar: at
Encoding: 64 64 64
Width: 1843
Flags: W
LayerCount: 2
Back
Fore
SplineSet
1144.79980469 504 m 2,0,-1
 1144.79980469 580 l 2,1,2
 1144.79980469 709 1144.79980469 709 1089 787.5 c 128,-1,3
 1033.20019531 866 1033.20019531 866 942.299804688 866 c 0,4,5
 853.200195312 866 853.200195312 866 798.75 778.5 c 128,-1,6
 744.299804688 691 744.299804688 691 744.299804688 543 c 0,7,8
 744.299804688 395 744.299804688 395 798.75 307 c 128,-1,9
 853.200195312 219 853.200195312 219 942.299804688 219 c 0,10,11
 1033.20019531 219 1033.20019531 219 1089 296.5 c 128,-1,12
 1144.79980469 374 1144.79980469 374 1144.79980469 504 c 2,0,-1
1144.79980469 240 m 1,13,14
 1105.20019531 168 1105.20019531 168 1040.84960938 130 c 128,-1,15
 976.5 92 976.5 92 895.5 92 c 0,16,17
 723.599609375 92 723.599609375 92 625.5 212 c 128,-1,18
 527.400390625 332 527.400390625 332 527.400390625 543 c 0,19,20
 527.400390625 754 527.400390625 754 625.5 873.5 c 128,-1,21
 723.599609375 993 723.599609375 993 895.5 993 c 0,22,23
 976.5 993 976.5 993 1040.84960938 955 c 128,-1,24
 1105.20019531 917 1105.20019531 917 1144.79980469 846 c 1,25,-1
 1144.79980469 971 l 1,26,-1
 1341.90039062 971 l 1,27,-1
 1341.90039062 229 l 1,28,29
 1470.59960938 268 1470.59960938 268 1540.79980469 385 c 128,-1,30
 1611 502 1611 502 1611 678 c 0,31,32
 1611 821 1611 821 1561.5 938 c 128,-1,33
 1512 1055 1512 1055 1410.29980469 1151 c 0,34,35
 1327.5 1229 1327.5 1229 1215.90039062 1271 c 128,-1,36
 1104.29980469 1313 1104.29980469 1313 978.299804688 1313 c 0,37,38
 861.299804688 1313 861.299804688 1313 759.599609375 1278 c 128,-1,39
 657.900390625 1243 657.900390625 1243 573.299804688 1174 c 0,40,41
 445.5 1068 445.5 1068 376.650390625 904 c 128,-1,42
 307.799804688 740 307.799804688 740 307.799804688 543 c 0,43,44
 307.799804688 388 307.799804688 388 351.450195312 250.5 c 128,-1,45
 395.099609375 113 395.099609375 113 475.200195312 12 c 0,46,47
 571.5 -107 571.5 -107 697.049804688 -168 c 128,-1,48
 822.599609375 -229 822.599609375 -229 969.299804688 -229 c 0,49,50
 1079.09960938 -229 1079.09960938 -229 1181.70019531 -195 c 128,-1,51
 1284.29980469 -161 1284.29980469 -161 1377 -94 c 1,52,-1
 1428.29980469 -188 l 1,53,54
 1313.09960938 -272 1313.09960938 -272 1188.45019531 -314 c 128,-1,55
 1063.79980469 -356 1063.79980469 -356 934.200195312 -356 c 0,56,57
 759.599609375 -356 759.599609375 -356 613.799804688 -293 c 128,-1,58
 468 -230 468 -230 353.700195312 -104 c 0,59,60
 240.299804688 20 240.299804688 20 180.900390625 185.5 c 128,-1,61
 121.5 351 121.5 351 121.5 543 c 0,62,63
 121.5 735 121.5 735 180.900390625 900 c 128,-1,64
 240.299804688 1065 240.299804688 1065 353.700195312 1190 c 0,65,66
 468.900390625 1316 468.900390625 1316 616.049804688 1378 c 128,-1,67
 763.200195312 1440 763.200195312 1440 947.700195312 1440 c 0,68,69
 1107.90039062 1440 1107.90039062 1440 1239.29980469 1391.5 c 128,-1,70
 1370.70019531 1343 1370.70019531 1343 1474.20019531 1245 c 1,71,72
 1593.90039062 1134 1593.90039062 1134 1653.29980469 992 c 128,-1,73
 1712.70019531 850 1712.70019531 850 1712.70019531 676 c 0,74,75
 1712.70019531 400 1712.70019531 400 1570.5 246 c 128,-1,76
 1428.29980469 92 1428.29980469 92 1172.70019531 92 c 2,77,-1
 1144.79980469 92 l 1,78,-1
 1144.79980469 240 l 1,13,14
EndSplineSet
EndChar
StartChar: A
Encoding: 65 65 65
Width: 1430
Flags: W
AnchorPoint: "below" 694.8 0 basechar 0
AnchorPoint: "above" 694.8 1465 basechar 0
LayerCount: 2
Back
Fore
SplineSet
-14.400390625 0 m 1,0,-1
 -14.400390625 121 l 1,1,-1
 95.400390625 121 l 1,2,-1
 601.200195312 1493 l 1,3,-1
 816.299804688 1493 l 1,4,-1
 1323 121 l 1,5,-1
 1450.79980469 121 l 1,6,-1
 1450.79980469 0 l 1,7,-1
 821.700195312 0 l 1,8,-1
 821.700195312 121 l 1,9,-1
 953.099609375 121 l 1,10,-1
 842.400390625 426 l 1,11,-1
 337.5 426 l 1,12,-1
 225 121 l 1,13,-1
 385.200195312 121 l 1,14,-1
 385.200195312 0 l 1,15,-1
 -14.400390625 0 l 1,0,-1
381.599609375 547 m 1,16,-1
 798.299804688 547 l 1,17,-1
 591.299804688 1118 l 1,18,-1
 381.599609375 547 l 1,16,-1
EndSplineSet
EndChar
StartChar: B
Encoding: 66 66 66
Width: 1557
Flags: W
AnchorPoint: "below" 778.5 0 basechar 0
AnchorPoint: "above" 778.5 1465 basechar 0
LayerCount: 2
Back
Fore
SplineSet
86.400390625 0 m 1,0,-1
 86.400390625 121 l 1,1,-1
 258.299804688 121 l 1,2,-1
 258.299804688 1372 l 1,3,-1
 86.400390625 1372 l 1,4,-1
 86.400390625 1493 l 1,5,-1
 882.900390625 1493 l 2,6,7
 1128.59960938 1493 1128.59960938 1493 1251.90039062 1401 c 128,-1,8
 1375.20019531 1309 1375.20019531 1309 1375.20019531 1124 c 0,9,10
 1375.20019531 991 1375.20019531 991 1290.15039062 913 c 128,-1,11
 1205.09960938 835 1205.09960938 835 1037.70019531 815 c 1,12,13
 1240.20019531 794 1240.20019531 794 1348.20019531 695 c 128,-1,14
 1456.20019531 596 1456.20019531 596 1456.20019531 432 c 0,15,16
 1456.20019531 210 1456.20019531 210 1305.45019531 105 c 128,-1,17
 1154.70019531 0 1154.70019531 0 833.400390625 0 c 2,18,-1
 86.400390625 0 l 1,0,-1
604.799804688 870 m 1,19,-1
 722.700195312 870 l 2,20,21
 877.5 870 877.5 870 952.200195312 932.5 c 128,-1,22
 1026.90039062 995 1026.90039062 995 1026.90039062 1124 c 0,23,24
 1026.90039062 1254 1026.90039062 1254 954.450195312 1313 c 128,-1,25
 882 1372 882 1372 722.700195312 1372 c 2,26,-1
 604.799804688 1372 l 1,27,-1
 604.799804688 870 l 1,19,-1
604.799804688 121 m 1,28,-1
 733.5 121 l 2,29,30
 905.400390625 121 905.400390625 121 988.200195312 197 c 128,-1,31
 1071 273 1071 273 1071 432 c 0,32,33
 1071 592 1071 592 987.299804688 671 c 128,-1,34
 903.599609375 750 903.599609375 750 733.5 750 c 2,35,-1
 604.799804688 750 l 1,36,-1
 604.799804688 121 l 1,28,-1
EndSplineSet
EndChar
StartChar: C
Encoding: 67 67 67
Width: 1467
Flags: W
AnchorPoint: "below" 800.1 0 basechar 0
AnchorPoint: "above" 800.1 1465 basechar 0
LayerCount: 2
Back
Fore
SplineSet
1373.40039062 426 m 1,0,1
 1320.29980469 195 1320.29980469 195 1182.59960938 83 c 128,-1,2
 1044.90039062 -29 1044.90039062 -29 812.700195312 -29 c 0,3,4
 472.5 -29 472.5 -29 274.950195312 179.5 c 128,-1,5
 77.400390625 388 77.400390625 388 77.400390625 745 c 0,6,7
 77.400390625 1103 77.400390625 1103 274.950195312 1311.5 c 128,-1,8
 472.5 1520 472.5 1520 812.700195312 1520 c 0,9,10
 932.400390625 1520 932.400390625 1520 1062 1488 c 128,-1,11
 1191.59960938 1456 1191.59960938 1456 1336.5 1391 c 1,12,-1
 1336.5 1024 l 1,13,-1
 1222.20019531 1024 l 1,14,15
 1187.09960938 1212 1187.09960938 1212 1094.40039062 1305.5 c 128,-1,16
 1001.70019531 1399 1001.70019531 1399 849.599609375 1399 c 0,17,18
 653.400390625 1399 653.400390625 1399 558 1238.5 c 128,-1,19
 462.599609375 1078 462.599609375 1078 462.599609375 745 c 0,20,21
 462.599609375 412 462.599609375 412 558 252 c 128,-1,22
 653.400390625 92 653.400390625 92 851.400390625 92 c 0,23,24
 985.5 92 985.5 92 1070.54980469 175 c 128,-1,25
 1155.59960938 258 1155.59960938 258 1194.29980469 426 c 1,26,-1
 1373.40039062 426 l 1,0,1
EndSplineSet
EndChar
StartChar: D
Encoding: 68 68 68
Width: 1598
Flags: W
AnchorPoint: "below" 778.5 0 basechar 0
AnchorPoint: "above" 778.5 1465 basechar 0
LayerCount: 2
Back
Fore
SplineSet
604.799804688 121 m 1,0,-1
 729.900390625 121 l 2,1,2
 940.5 121 940.5 121 1038.15039062 271 c 128,-1,3
 1135.79980469 421 1135.79980469 421 1135.79980469 748 c 0,4,5
 1135.79980469 1073 1135.79980469 1073 1038.59960938 1222.5 c 128,-1,6
 941.400390625 1372 941.400390625 1372 729.900390625 1372 c 2,7,-1
 604.799804688 1372 l 1,8,-1
 604.799804688 121 l 1,0,-1
86.400390625 0 m 1,9,-1
 86.400390625 121 l 1,10,-1
 258.299804688 121 l 1,11,-1
 258.299804688 1372 l 1,12,-1
 86.400390625 1372 l 1,13,-1
 86.400390625 1493 l 1,14,-1
 775.799804688 1493 l 2,15,16
 1137.59960938 1493 1137.59960938 1493 1329.29980469 1301 c 128,-1,17
 1521 1109 1521 1109 1521 748 c 0,18,19
 1521 385 1521 385 1328.84960938 192.5 c 128,-1,20
 1136.70019531 0 1136.70019531 0 775.799804688 0 c 2,21,-1
 86.400390625 0 l 1,9,-1
EndSplineSet
EndChar
StartChar: E
Encoding: 69 69 69
Width: 1404
Flags: W
AnchorPoint: "below" 733.5 0 basechar 0
AnchorPoint: "above" 733.5 1465 basechar 0
LayerCount: 2
Back
Fore
SplineSet
86.400390625 0 m 1,0,-1
 86.400390625 121 l 1,1,-1
 258.299804688 121 l 1,2,-1
 258.299804688 1372 l 1,3,-1
 86.400390625 1372 l 1,4,-1
 86.400390625 1493 l 1,5,-1
 1294.20019531 1493 l 1,6,-1
 1294.20019531 1141 l 1,7,-1
 1170 1141 l 1,8,-1
 1170 1356 l 1,9,-1
 604.799804688 1356 l 1,10,-1
 604.799804688 877 l 1,11,-1
 956.700195312 877 l 1,12,-1
 956.700195312 1067 l 1,13,-1
 1080 1067 l 1,14,-1
 1080 551 l 1,15,-1
 956.700195312 551 l 1,16,-1
 956.700195312 741 l 1,17,-1
 604.799804688 741 l 1,18,-1
 604.799804688 137 l 1,19,-1
 1187.09960938 137 l 1,20,-1
 1187.09960938 352 l 1,21,-1
 1310.40039062 352 l 1,22,-1
 1310.40039062 0 l 1,23,-1
 86.400390625 0 l 1,0,-1
EndSplineSet
EndChar
StartChar: F
Encoding: 70 70 70
Width: 1308
Flags: W
AnchorPoint: "below" 431.1 0 basechar 0
AnchorPoint: "above" 724.5 1465 basechar 0
LayerCount: 2
Back
Fore
SplineSet
86.400390625 0 m 1,0,-1
 86.400390625 121 l 1,1,-1
 258.299804688 121 l 1,2,-1
 258.299804688 1372 l 1,3,-1
 86.400390625 1372 l 1,4,-1
 86.400390625 1493 l 1,5,-1
 1284.29980469 1493 l 1,6,-1
 1284.29980469 1141 l 1,7,-1
 1161 1141 l 1,8,-1
 1161 1356 l 1,9,-1
 606.599609375 1356 l 1,10,-1
 606.599609375 877 l 1,11,-1
 947.700195312 877 l 1,12,-1
 947.700195312 1067 l 1,13,-1
 1071 1067 l 1,14,-1
 1071 551 l 1,15,-1
 947.700195312 551 l 1,16,-1
 947.700195312 741 l 1,17,-1
 606.599609375 741 l 1,18,-1
 606.599609375 121 l 1,19,-1
 818.099609375 121 l 1,20,-1
 818.099609375 0 l 1,21,-1
 86.400390625 0 l 1,0,-1
EndSplineSet
EndChar
StartChar: G
Encoding: 71 71 71
Width: 1574
Flags: W
AnchorPoint: "below" 818.1 0 basechar 0
AnchorPoint: "above" 818.1 1465 basechar 0
LayerCount: 2
Back
Fore
SplineSet
1268.09960938 1024 m 1,0,1
 1227.59960938 1222 1227.59960938 1222 1133.09960938 1310.5 c 128,-1,2
 1038.59960938 1399 1038.59960938 1399 866.700195312 1399 c 0,3,4
 657.900390625 1399 657.900390625 1399 560.25 1241.5 c 128,-1,5
 462.599609375 1084 462.599609375 1084 462.599609375 745 c 0,6,7
 462.599609375 409 462.599609375 409 556.200195312 250.5 c 128,-1,8
 649.799804688 92 649.799804688 92 847.799804688 92 c 0,9,10
 923.400390625 92 923.400390625 92 988.200195312 111 c 128,-1,11
 1053 130 1053 130 1106.09960938 168 c 1,12,-1
 1106.09960938 578 l 1,13,-1
 944.099609375 578 l 1,14,-1
 944.099609375 698 l 1,15,-1
 1428.29980469 698 l 1,16,-1
 1428.29980469 125 l 1,17,18
 1277.09960938 47 1277.09960938 47 1126.34960938 9 c 128,-1,19
 975.599609375 -29 975.599609375 -29 818.099609375 -29 c 0,20,21
 472.5 -29 472.5 -29 274.950195312 178 c 128,-1,22
 77.400390625 385 77.400390625 385 77.400390625 745 c 0,23,24
 77.400390625 1106 77.400390625 1106 274.950195312 1313 c 128,-1,25
 472.5 1520 472.5 1520 818.099609375 1520 c 0,26,27
 962.099609375 1520 962.099609375 1520 1101.59960938 1488 c 128,-1,28
 1241.09960938 1456 1241.09960938 1456 1382.40039062 1391 c 1,29,-1
 1382.40039062 1024 l 1,30,-1
 1268.09960938 1024 l 1,0,1
EndSplineSet
EndChar
StartChar: H
Encoding: 72 72 72
Width: 1741
Flags: W
AnchorPoint: "below" 873 0 basechar 0
AnchorPoint: "above" 873 1465 basechar 0
LayerCount: 2
Back
Fore
SplineSet
86.400390625 0 m 1,0,-1
 86.400390625 121 l 1,1,-1
 258.299804688 121 l 1,2,-1
 258.299804688 1372 l 1,3,-1
 86.400390625 1372 l 1,4,-1
 86.400390625 1493 l 1,5,-1
 777.599609375 1493 l 1,6,-1
 777.599609375 1372 l 1,7,-1
 604.799804688 1372 l 1,8,-1
 604.799804688 870 l 1,9,-1
 1139.40039062 870 l 1,10,-1
 1139.40039062 1372 l 1,11,-1
 967.5 1372 l 1,12,-1
 967.5 1493 l 1,13,-1
 1658.70019531 1493 l 1,14,-1
 1658.70019531 1372 l 1,15,-1
 1485.90039062 1372 l 1,16,-1
 1485.90039062 121 l 1,17,-1
 1658.70019531 121 l 1,18,-1
 1658.70019531 0 l 1,19,-1
 967.5 0 l 1,20,-1
 967.5 121 l 1,21,-1
 1139.40039062 121 l 1,22,-1
 1139.40039062 733 l 1,23,-1
 604.799804688 733 l 1,24,-1
 604.799804688 121 l 1,25,-1
 777.599609375 121 l 1,26,-1
 777.599609375 0 l 1,27,-1
 86.400390625 0 l 1,0,-1
EndSplineSet
EndChar
StartChar: I
Encoding: 73 73 73
Width: 862
Flags: W
AnchorPoint: "below" 431.1 0 basechar 0
AnchorPoint: "above" 431.1 1465 basechar 0
LayerCount: 2
Back
Fore
SplineSet
86.400390625 0 m 1,0,-1
 86.400390625 121 l 1,1,-1
 258.299804688 121 l 1,2,-1
 258.299804688 1372 l 1,3,-1
 86.400390625 1372 l 1,4,-1
 86.400390625 1493 l 1,5,-1
 777.599609375 1493 l 1,6,-1
 777.599609375 1372 l 1,7,-1
 604.799804688 1372 l 1,8,-1
 604.799804688 121 l 1,9,-1
 777.599609375 121 l 1,10,-1
 777.599609375 0 l 1,11,-1
 86.400390625 0 l 1,0,-1
EndSplineSet
EndChar
StartChar: J
Encoding: 74 74 74
Width: 872
Flags: W
AnchorPoint: "below" 281.7 -430 basechar 0
AnchorPoint: "above" 443.7 1465 basechar 0
LayerCount: 2
Back
Fore
SplineSet
-135 -358 m 1,0,-1
 -135 -123 l 1,1,-1
 -18 -123 l 1,2,3
 -12.599609375 -217 -12.599609375 -217 22.0498046875 -261 c 128,-1,4
 56.7001953125 -305 56.7001953125 -305 125.099609375 -305 c 0,5,6
 212.400390625 -305 212.400390625 -305 247.049804688 -230.5 c 128,-1,7
 281.700195312 -156 281.700195312 -156 281.700195312 49 c 2,8,-1
 281.700195312 1372 l 1,9,-1
 86.400390625 1372 l 1,10,-1
 86.400390625 1493 l 1,11,-1
 801.900390625 1493 l 1,12,-1
 801.900390625 1372 l 1,13,-1
 630 1372 l 1,14,-1
 630 41 l 2,15,16
 630 -202 630 -202 519.75 -314 c 128,-1,17
 409.5 -426 409.5 -426 169.200195312 -426 c 0,18,19
 94.5 -426 94.5 -426 18.900390625 -409 c 128,-1,20
 -56.7001953125 -392 -56.7001953125 -392 -135 -358 c 1,0,-1
EndSplineSet
EndChar
StartChar: K
Encoding: 75 75 75
Width: 1602
Flags: W
AnchorPoint: "below" 921.6 0 basechar 0
AnchorPoint: "above" 921.6 1460 basechar 0
LayerCount: 2
Back
Fore
SplineSet
86.400390625 0 m 1,0,-1
 86.400390625 121 l 1,1,-1
 258.299804688 121 l 1,2,-1
 258.299804688 1372 l 1,3,-1
 86.400390625 1372 l 1,4,-1
 86.400390625 1493 l 1,5,-1
 777.599609375 1493 l 1,6,-1
 777.599609375 1372 l 1,7,-1
 604.799804688 1372 l 1,8,-1
 604.799804688 827 l 1,9,-1
 1174.5 1372 l 1,10,-1
 1030.5 1372 l 1,11,-1
 1030.5 1493 l 1,12,-1
 1531.79980469 1493 l 1,13,-1
 1531.79980469 1372 l 1,14,-1
 1352.70019531 1372 l 1,15,-1
 870.299804688 911 l 1,16,-1
 1526.40039062 121 l 1,17,-1
 1658.70019531 121 l 1,18,-1
 1658.70019531 0 l 1,19,-1
 1203.29980469 0 l 1,20,-1
 604.799804688 725 l 1,21,-1
 604.799804688 121 l 1,22,-1
 777.599609375 121 l 1,23,-1
 777.599609375 0 l 1,24,-1
 86.400390625 0 l 1,0,-1
EndSplineSet
EndChar
StartChar: L
Encoding: 76 76 76
Width: 1296
Flags: W
AnchorPoint: "above" 431.1 1465 basechar 0
AnchorPoint: "below" 724.5 0 basechar 0
LayerCount: 2
Back
Fore
SplineSet
86.400390625 0 m 1,0,-1
 86.400390625 121 l 1,1,-1
 258.299804688 121 l 1,2,-1
 258.299804688 1372 l 1,3,-1
 86.400390625 1372 l 1,4,-1
 86.400390625 1493 l 1,5,-1
 777.599609375 1493 l 1,6,-1
 777.599609375 1372 l 1,7,-1
 604.799804688 1372 l 1,8,-1
 604.799804688 137 l 1,9,-1
 1134 137 l 1,10,-1
 1134 373 l 1,11,-1
 1255.5 373 l 1,12,-1
 1255.5 0 l 1,13,-1
 86.400390625 0 l 1,0,-1
EndSplineSet
EndChar
StartChar: M
Encoding: 77 77 77
Width: 2040
Flags: W
AnchorPoint: "above" 975.6 1460 basechar 0
AnchorPoint: "below" 975.6 0 basechar 0
LayerCount: 2
Back
Fore
SplineSet
77.400390625 0 m 1,0,-1
 77.400390625 121 l 1,1,-1
 248.400390625 121 l 1,2,-1
 248.400390625 1372 l 1,3,-1
 77.400390625 1372 l 1,4,-1
 77.400390625 1493 l 1,5,-1
 631.799804688 1493 l 1,6,-1
 1015.20019531 535 l 1,7,-1
 1400.40039062 1493 l 1,8,-1
 1953.90039062 1493 l 1,9,-1
 1953.90039062 1372 l 1,10,-1
 1782 1372 l 1,11,-1
 1782 121 l 1,12,-1
 1953.90039062 121 l 1,13,-1
 1953.90039062 0 l 1,14,-1
 1262.70019531 0 l 1,15,-1
 1262.70019531 121 l 1,16,-1
 1433.70019531 121 l 1,17,-1
 1433.70019531 1260 l 1,18,-1
 1017 219 l 1,19,-1
 789.299804688 219 l 1,20,-1
 374.400390625 1260 l 1,21,-1
 374.400390625 121 l 1,22,-1
 545.400390625 121 l 1,23,-1
 545.400390625 0 l 1,24,-1
 77.400390625 0 l 1,0,-1
EndSplineSet
EndChar
StartChar: N
Encoding: 78 78 78
Width: 1684
Flags: W
AnchorPoint: "below" 827.1 0 basechar 0
AnchorPoint: "above" 827.1 1465 basechar 0
LayerCount: 2
Back
Fore
SplineSet
81 0 m 1,0,-1
 81 121 l 1,1,-1
 252.900390625 121 l 1,2,-1
 252.900390625 1372 l 1,3,-1
 81 1372 l 1,4,-1
 81 1493 l 1,5,-1
 501.299804688 1493 l 1,6,-1
 1312.20019531 436 l 1,7,-1
 1312.20019531 1372 l 1,8,-1
 1141.20019531 1372 l 1,9,-1
 1141.20019531 1493 l 1,10,-1
 1611 1493 l 1,11,-1
 1611 1372 l 1,12,-1
 1439.09960938 1372 l 1,13,-1
 1439.09960938 0 l 1,14,-1
 1203.29980469 0 l 1,15,-1
 379.799804688 1079 l 1,16,-1
 379.799804688 121 l 1,17,-1
 550.799804688 121 l 1,18,-1
 550.799804688 0 l 1,19,-1
 81 0 l 1,0,-1
EndSplineSet
EndChar
StartChar: O
Encoding: 79 79 79
Width: 1605
Flags: W
AnchorPoint: "below" 803.7 0 basechar 0
AnchorPoint: "above" 803.7 1465 basechar 0
LayerCount: 2
Back
Fore
SplineSet
801.900390625 92 m 0,0,1
 973.799804688 92 973.799804688 92 1057.5 253 c 128,-1,2
 1141.20019531 414 1141.20019531 414 1141.20019531 745 c 0,3,4
 1141.20019531 1077 1141.20019531 1077 1057.5 1238 c 128,-1,5
 973.799804688 1399 973.799804688 1399 801.900390625 1399 c 0,6,7
 630.900390625 1399 630.900390625 1399 546.75 1236.5 c 128,-1,8
 462.599609375 1074 462.599609375 1074 462.599609375 745 c 0,9,10
 462.599609375 417 462.599609375 417 546.75 254.5 c 128,-1,11
 630.900390625 92 630.900390625 92 801.900390625 92 c 0,0,1
801.900390625 -29 m 0,12,13
 462.599609375 -29 462.599609375 -29 270 177 c 128,-1,14
 77.400390625 383 77.400390625 383 77.400390625 745 c 0,15,16
 77.400390625 1107 77.400390625 1107 270.450195312 1313.5 c 128,-1,17
 463.5 1520 463.5 1520 801.900390625 1520 c 0,18,19
 1141.20019531 1520 1141.20019531 1520 1333.79980469 1314 c 128,-1,20
 1526.40039062 1108 1526.40039062 1108 1526.40039062 745 c 0,21,22
 1526.40039062 383 1526.40039062 383 1333.34960938 177 c 128,-1,23
 1140.29980469 -29 1140.29980469 -29 801.900390625 -29 c 0,12,13
EndSplineSet
EndChar
StartChar: P
Encoding: 80 80 80
Width: 1386
Flags: W
AnchorPoint: "below" 431.1 0 basechar 0
AnchorPoint: "above" 778.5 1465 basechar 0
LayerCount: 2
Back
Fore
SplineSet
86.400390625 0 m 1,0,-1
 86.400390625 121 l 1,1,-1
 258.299804688 121 l 1,2,-1
 258.299804688 1372 l 1,3,-1
 86.400390625 1372 l 1,4,-1
 86.400390625 1493 l 1,5,-1
 851.400390625 1493 l 2,6,7
 1075.5 1493 1075.5 1493 1207.79980469 1374.5 c 128,-1,8
 1340.09960938 1256 1340.09960938 1256 1340.09960938 1057 c 0,9,10
 1340.09960938 857 1340.09960938 857 1207.34960938 737.5 c 128,-1,11
 1074.59960938 618 1074.59960938 618 851.400390625 618 c 2,12,-1
 604.799804688 618 l 1,13,-1
 604.799804688 121 l 1,14,-1
 821.700195312 121 l 1,15,-1
 821.700195312 0 l 1,16,-1
 86.400390625 0 l 1,0,-1
604.799804688 739 m 1,17,-1
 705.599609375 739 l 2,18,19
 822.599609375 739 822.599609375 739 892.349609375 825.5 c 128,-1,20
 962.099609375 912 962.099609375 912 962.099609375 1057 c 0,21,22
 962.099609375 1201 962.099609375 1201 892.799804688 1286.5 c 128,-1,23
 823.5 1372 823.5 1372 705.599609375 1372 c 2,24,-1
 604.799804688 1372 l 1,25,-1
 604.799804688 739 l 1,17,-1
EndSplineSet
EndChar
StartChar: Q
Encoding: 81 81 81
Width: 1605
Flags: W
AnchorPoint: "above" 803.7 1465 basechar 0
AnchorPoint: "below" 803.7 -369 basechar 0
LayerCount: 2
Back
Fore
SplineSet
796.5 -29 m 1,0,1
 456.299804688 -23 456.299804688 -23 266.849609375 181 c 128,-1,2
 77.400390625 385 77.400390625 385 77.400390625 745 c 0,3,4
 77.400390625 1107 77.400390625 1107 270.450195312 1313.5 c 128,-1,5
 463.5 1520 463.5 1520 801.900390625 1520 c 0,6,7
 1141.20019531 1520 1141.20019531 1520 1333.79980469 1314 c 128,-1,8
 1526.40039062 1108 1526.40039062 1108 1526.40039062 745 c 0,9,10
 1526.40039062 427 1526.40039062 427 1378.34960938 229 c 128,-1,11
 1230.29980469 31 1230.29980469 31 956.700195312 -16 c 1,12,13
 1004.40039062 -73 1004.40039062 -73 1072.79980469 -98 c 128,-1,14
 1141.20019531 -123 1141.20019531 -123 1250.09960938 -123 c 2,15,-1
 1296 -123 l 1,16,-1
 1296 -369 l 1,17,-1
 1269.90039062 -369 l 2,18,19
 1098.90039062 -369 1098.90039062 -369 984.599609375 -287 c 128,-1,20
 870.299804688 -205 870.299804688 -205 796.5 -29 c 1,0,1
801.900390625 92 m 0,21,22
 973.799804688 92 973.799804688 92 1057.5 253 c 128,-1,23
 1141.20019531 414 1141.20019531 414 1141.20019531 745 c 0,24,25
 1141.20019531 1077 1141.20019531 1077 1057.5 1238 c 128,-1,26
 973.799804688 1399 973.799804688 1399 801.900390625 1399 c 0,27,28
 630.900390625 1399 630.900390625 1399 546.75 1236.5 c 128,-1,29
 462.599609375 1074 462.599609375 1074 462.599609375 745 c 0,30,31
 462.599609375 417 462.599609375 417 546.75 254.5 c 128,-1,32
 630.900390625 92 630.900390625 92 801.900390625 92 c 0,21,22
EndSplineSet
EndChar
StartChar: R
Encoding: 82 82 82
Width: 1531
Flags: W
AnchorPoint: "below" 778.5 0 basechar 0
AnchorPoint: "above" 778.5 1465 basechar 0
LayerCount: 2
Back
Fore
SplineSet
978.299804688 729 m 1,0,1
 1058.40039062 716 1058.40039062 716 1113.29980469 670 c 128,-1,2
 1168.20019531 624 1168.20019531 624 1208.70019531 537 c 2,3,-1
 1404.90039062 121 l 1,4,-1
 1542.59960938 121 l 1,5,-1
 1542.59960938 0 l 1,6,-1
 1100.70019531 0 l 1,7,-1
 886.5 451 l 1,8,9
 824.400390625 591 824.400390625 591 780.75 629.5 c 128,-1,10
 737.099609375 668 737.099609375 668 659.700195312 668 c 2,11,-1
 604.799804688 668 l 1,12,-1
 604.799804688 121 l 1,13,-1
 777.599609375 121 l 1,14,-1
 777.599609375 0 l 1,15,-1
 86.400390625 0 l 1,16,-1
 86.400390625 121 l 1,17,-1
 258.299804688 121 l 1,18,-1
 258.299804688 1372 l 1,19,-1
 86.400390625 1372 l 1,20,-1
 86.400390625 1493 l 1,21,-1
 853.200195312 1493 l 2,22,23
 1087.20019531 1493 1087.20019531 1493 1214.54980469 1388.5 c 128,-1,24
 1341.90039062 1284 1341.90039062 1284 1341.90039062 1092 c 0,25,26
 1341.90039062 936 1341.90039062 936 1251.45019531 845.5 c 128,-1,27
 1161 755 1161 755 978.299804688 729 c 1,0,1
604.799804688 788 m 1,28,-1
 722.700195312 788 l 2,29,30
 848.700195312 788 848.700195312 788 916.650390625 864 c 128,-1,31
 984.599609375 940 984.599609375 940 984.599609375 1081 c 0,32,33
 984.599609375 1222 984.599609375 1222 916.650390625 1297 c 128,-1,34
 848.700195312 1372 848.700195312 1372 722.700195312 1372 c 2,35,-1
 604.799804688 1372 l 1,36,-1
 604.799804688 788 l 1,28,-1
EndSplineSet
EndChar
StartChar: S
Encoding: 83 83 83
Width: 1331
Flags: W
AnchorPoint: "below" 656.1 0 basechar 0
AnchorPoint: "above" 656.1 1465 basechar 0
LayerCount: 2
Back
Fore
SplineSet
142.200195312 72 m 1,0,-1
 142.200195312 426 l 1,1,-1
 256.5 426 l 1,2,3
 282.599609375 258 282.599609375 258 379.799804688 175 c 128,-1,4
 477 92 477 92 648.900390625 92 c 0,5,6
 788.400390625 92 788.400390625 92 861.299804688 151 c 128,-1,7
 934.200195312 210 934.200195312 210 934.200195312 324 c 0,8,9
 934.200195312 414 934.200195312 414 884.700195312 464 c 128,-1,10
 835.200195312 514 835.200195312 514 680.400390625 557 c 2,11,-1
 478.799804688 612 l 1,12,13
 281.700195312 668 281.700195312 668 201.599609375 767.5 c 128,-1,14
 121.5 867 121.5 867 121.5 1051 c 0,15,16
 121.5 1273 121.5 1273 254.25 1396.5 c 128,-1,17
 387 1520 387 1520 626.400390625 1520 c 0,18,19
 744.299804688 1520 744.299804688 1520 871.650390625 1498 c 128,-1,20
 999 1476 999 1476 1135.79980469 1432 c 1,21,-1
 1135.79980469 1102 l 1,22,-1
 1021.5 1102 l 1,23,24
 995.400390625 1256 995.400390625 1256 907.200195312 1327.5 c 128,-1,25
 819 1399 819 1399 656.099609375 1399 c 0,26,27
 522.900390625 1399 522.900390625 1399 454.950195312 1347.5 c 128,-1,28
 387 1296 387 1296 387 1194 c 0,29,30
 387 1101 387 1101 433.799804688 1052.5 c 128,-1,31
 480.599609375 1004 480.599609375 1004 663.299804688 952 c 1,32,-1
 864.900390625 897 l 2,33,34
 1052.09960938 845 1052.09960938 845 1136.25 735 c 128,-1,35
 1220.40039062 625 1220.40039062 625 1220.40039062 432 c 0,36,37
 1220.40039062 206 1220.40039062 206 1080 88.5 c 128,-1,38
 939.599609375 -29 939.599609375 -29 666.900390625 -29 c 0,39,40
 535.5 -29 535.5 -29 405.900390625 -4 c 128,-1,41
 276.299804688 21 276.299804688 21 142.200195312 72 c 1,0,-1
EndSplineSet
EndChar
StartChar: T
Encoding: 84 84 84
Width: 1371
Flags: W
AnchorPoint: "below" 692.1 0 basechar 0
AnchorPoint: "above" 692.1 1465 basechar 0
LayerCount: 2
Back
Fore
SplineSet
333.900390625 0 m 1,0,-1
 333.900390625 121 l 1,1,-1
 512.099609375 121 l 1,2,-1
 512.099609375 1356 l 1,3,-1
 144 1356 l 1,4,-1
 144 1120 l 1,5,-1
 20.7001953125 1120 l 1,6,-1
 20.7001953125 1493 l 1,7,-1
 1352.70019531 1493 l 1,8,-1
 1352.70019531 1120 l 1,9,-1
 1231.20019531 1120 l 1,10,-1
 1231.20019531 1356 l 1,11,-1
 860.400390625 1356 l 1,12,-1
 860.400390625 121 l 1,13,-1
 1039.5 121 l 1,14,-1
 1039.5 0 l 1,15,-1
 333.900390625 0 l 1,0,-1
EndSplineSet
EndChar
StartChar: U
Encoding: 85 85 85
Width: 1607
Flags: W
AnchorPoint: "below" 849.6 0 basechar 0
AnchorPoint: "above" 849.6 1465 basechar 0
LayerCount: 2
Back
Fore
SplineSet
234 1372 m 1,0,-1
 63 1372 l 1,1,-1
 63 1493 l 1,2,-1
 754.200195312 1493 l 1,3,-1
 754.200195312 1372 l 1,4,-1
 582.299804688 1372 l 1,5,-1
 582.299804688 625 l 2,6,7
 582.299804688 346 582.299804688 346 660.599609375 234.5 c 128,-1,8
 738.900390625 123 738.900390625 123 928.799804688 123 c 0,9,10
 1114.20019531 123 1114.20019531 123 1192.04980469 235.5 c 128,-1,11
 1269.90039062 348 1269.90039062 348 1269.90039062 625 c 2,12,-1
 1269.90039062 1372 l 1,13,-1
 1098.90039062 1372 l 1,14,-1
 1098.90039062 1493 l 1,15,-1
 1566.90039062 1493 l 1,16,-1
 1566.90039062 1372 l 1,17,-1
 1395 1372 l 1,18,-1
 1395 604 l 2,19,20
 1395 262 1395 262 1261.79980469 116.5 c 128,-1,21
 1128.59960938 -29 1128.59960938 -29 814.5 -29 c 0,22,23
 502.200195312 -29 502.200195312 -29 368.099609375 118 c 128,-1,24
 234 265 234 265 234 606 c 2,25,-1
 234 1372 l 1,0,-1
EndSplineSet
EndChar
StartChar: V
Encoding: 86 86 86
Width: 1430
Flags: W
AnchorPoint: "above" 714.6 1465 basechar 0
AnchorPoint: "below" 714.6 0 basechar 0
LayerCount: 2
Back
Fore
SplineSet
1456.20019531 1493 m 1,0,-1
 1456.20019531 1372 l 1,1,-1
 1343.70019531 1372 l 1,2,-1
 837 0 l 1,3,-1
 622.799804688 0 l 1,4,-1
 116.099609375 1372 l 1,5,-1
 -10.7998046875 1372 l 1,6,-1
 -10.7998046875 1493 l 1,7,-1
 619.200195312 1493 l 1,8,-1
 619.200195312 1372 l 1,9,-1
 488.700195312 1372 l 1,10,-1
 851.400390625 383 l 1,11,-1
 1216.79980469 1372 l 1,12,-1
 1056.59960938 1372 l 1,13,-1
 1056.59960938 1493 l 1,14,-1
 1456.20019531 1493 l 1,0,-1
EndSplineSet
EndChar
StartChar: W
Encoding: 87 87 87
Width: 2070
Flags: W
AnchorPoint: "below" 1037.7 5 basechar 0
AnchorPoint: "above" 1037.7 1465 basechar 0
LayerCount: 2
Back
Fore
SplineSet
1570.5 0 m 1,0,-1
 1338.29980469 0 l 1,1,-1
 1034.09960938 1087 l 1,2,-1
 729.900390625 0 l 1,3,-1
 497.700195312 0 l 1,4,-1
 114.299804688 1372 l 1,5,-1
 -16.2001953125 1372 l 1,6,-1
 -16.2001953125 1493 l 1,7,-1
 621 1493 l 1,8,-1
 621 1372 l 1,9,-1
 477 1372 l 1,10,-1
 733.5 455 l 1,11,-1
 1023.29980469 1493 l 1,12,-1
 1278.90039062 1493 l 1,13,-1
 1574.09960938 438 l 1,14,-1
 1836 1372 l 1,15,-1
 1675.79980469 1372 l 1,16,-1
 1675.79980469 1493 l 1,17,-1
 2091.59960938 1493 l 1,18,-1
 2091.59960938 1372 l 1,19,-1
 1953.90039062 1372 l 1,20,-1
 1570.5 0 l 1,0,-1
EndSplineSet
EndChar
StartChar: X
Encoding: 88 88 88
Width: 1430
Flags: W
AnchorPoint: "below" 714.6 0 basechar 0
AnchorPoint: "above" 714.6 1465 basechar 0
LayerCount: 2
Back
Fore
SplineSet
624.599609375 575 m 1,0,-1
 344.700195312 121 l 1,1,-1
 510.299804688 121 l 1,2,-1
 510.299804688 0 l 1,3,-1
 33.2998046875 0 l 1,4,-1
 33.2998046875 121 l 1,5,-1
 198.900390625 121 l 1,6,-1
 552.599609375 692 l 1,7,-1
 132.299804688 1372 l 1,8,-1
 9 1372 l 1,9,-1
 9 1493 l 1,10,-1
 676.799804688 1493 l 1,11,-1
 676.799804688 1372 l 1,12,-1
 529.200195312 1372 l 1,13,-1
 789.299804688 952 l 1,14,-1
 1046.70019531 1372 l 1,15,-1
 890.099609375 1372 l 1,16,-1
 890.099609375 1493 l 1,17,-1
 1358.09960938 1493 l 1,18,-1
 1358.09960938 1372 l 1,19,-1
 1192.5 1372 l 1,20,-1
 860.400390625 836 l 1,21,-1
 1301.40039062 121 l 1,22,-1
 1428.29980469 121 l 1,23,-1
 1428.29980469 0 l 1,24,-1
 757.799804688 0 l 1,25,-1
 757.799804688 121 l 1,26,-1
 907.200195312 121 l 1,27,-1
 624.599609375 575 l 1,0,-1
EndSplineSet
EndChar
StartChar: Y
Encoding: 89 89 89
Width: 1315
Flags: W
AnchorPoint: "below" 657.9 0 basechar 0
AnchorPoint: "above" 657.9 1465 basechar 0
LayerCount: 2
Back
Fore
SplineSet
316.799804688 0 m 1,0,-1
 316.799804688 121 l 1,1,-1
 497.700195312 121 l 1,2,-1
 497.700195312 618 l 1,3,-1
 98.099609375 1372 l 1,4,-1
 -16.2001953125 1372 l 1,5,-1
 -16.2001953125 1493 l 1,6,-1
 628.200195312 1493 l 1,7,-1
 628.200195312 1372 l 1,8,-1
 478.799804688 1372 l 1,9,-1
 781.200195312 803 l 1,10,-1
 1081.79980469 1372 l 1,11,-1
 947.700195312 1372 l 1,12,-1
 947.700195312 1493 l 1,13,-1
 1332.90039062 1493 l 1,14,-1
 1332.90039062 1372 l 1,15,-1
 1218.59960938 1372 l 1,16,-1
 846 670 l 1,17,-1
 846 121 l 1,18,-1
 1026.90039062 121 l 1,19,-1
 1026.90039062 0 l 1,20,-1
 316.799804688 0 l 1,0,-1
EndSplineSet
EndChar
StartChar: Z
Encoding: 90 90 90
Width: 1345
Flags: W
AnchorPoint: "below" 673.2 0 basechar 0
AnchorPoint: "above" 673.2 1465 basechar 0
LayerCount: 2
Back
Fore
SplineSet
68.400390625 0 m 1,0,-1
 68.400390625 141 l 1,1,-1
 870.299804688 1356 l 1,2,-1
 226.799804688 1356 l 1,3,-1
 226.799804688 1133 l 1,4,-1
 103.5 1133 l 1,5,-1
 103.5 1493 l 1,6,-1
 1269.90039062 1493 l 1,7,-1
 1269.90039062 1352 l 1,8,-1
 477 137 l 1,9,-1
 1155.59960938 137 l 1,10,-1
 1155.59960938 346 l 1,11,-1
 1278.90039062 346 l 1,12,-1
 1278.90039062 0 l 1,13,-1
 68.400390625 0 l 1,0,-1
EndSplineSet
EndChar
StartChar: bracketleft
Encoding: 91 91 91
Width: 872
Flags: W
LayerCount: 2
Back
Fore
SplineSet
230.400390625 1556 m 1,0,-1
 740.700195312 1556 l 1,1,-1
 740.700195312 1436 l 1,2,-1
 549 1436 l 1,3,-1
 549 -150 l 1,4,-1
 740.700195312 -150 l 1,5,-1
 740.700195312 -270 l 1,6,-1
 230.400390625 -270 l 1,7,-1
 230.400390625 1556 l 1,0,-1
EndSplineSet
EndChar
StartChar: backslash
Encoding: 92 92 92
Width: 673
Flags: W
LayerCount: 2
Back
Fore
SplineSet
198.900390625 1493 m 1,0,-1
 673.200195312 -190 l 1,1,-1
 473.400390625 -190 l 1,2,-1
 0 1493 l 1,3,-1
 198.900390625 1493 l 1,0,-1
EndSplineSet
EndChar
StartChar: bracketright
Encoding: 93 93 93
Width: 872
Flags: W
LayerCount: 2
Back
Fore
SplineSet
641.700195312 1556 m 1,0,-1
 641.700195312 -270 l 1,1,-1
 130.5 -270 l 1,2,-1
 130.5 -150 l 1,3,-1
 322.200195312 -150 l 1,4,-1
 322.200195312 1436 l 1,5,-1
 130.5 1436 l 1,6,-1
 130.5 1556 l 1,7,-1
 641.700195312 1556 l 1,0,-1
EndSplineSet
EndChar
StartChar: asciicircum
Encoding: 94 94 94
Width: 1544
Flags: W
LayerCount: 2
Back
Fore
SplineSet
875.700195312 1493 m 1,0,-1
 1358.09960938 936 l 1,1,-1
 1166.40039062 936 l 1,2,-1
 772.200195312 1251 l 1,3,-1
 378 936 l 1,4,-1
 186.299804688 936 l 1,5,-1
 675 1493 l 1,6,-1
 875.700195312 1493 l 1,0,-1
EndSplineSet
EndChar
StartChar: underscore
Encoding: 95 95 95
Width: 921
Flags: W
LayerCount: 2
Back
Fore
SplineSet
921.599609375 -293 m 1,0,-1
 921.599609375 -483 l 1,1,-1
 0 -483 l 1,2,-1
 0 -293 l 1,3,-1
 921.599609375 -293 l 1,0,-1
EndSplineSet
EndChar
StartChar: grave
Encoding: 96 96 96
Width: 921
Flags: W
LayerCount: 2
Back
Fore
SplineSet
378 1638 m 1,0,-1
 610.200195312 1262 l 1,1,-1
 462.599609375 1262 l 1,2,-1
 126.900390625 1638 l 1,3,-1
 378 1638 l 1,0,-1
EndSplineSet
EndChar
StartChar: a
Encoding: 97 97 97
Width: 1194
Flags: W
AnchorPoint: "below" 540 0 basechar 0
AnchorPoint: "above" 540 1092 basechar 0
LayerCount: 2
Back
Fore
SplineSet
1015.20019531 653 m 2,0,-1
 1015.20019531 121 l 1,1,-1
 1152 121 l 1,2,-1
 1152 0 l 1,3,-1
 696.599609375 0 l 1,4,-1
 696.599609375 135 l 1,5,6
 633.599609375 51 633.599609375 51 556.200195312 11 c 128,-1,7
 478.799804688 -29 478.799804688 -29 379.799804688 -29 c 0,8,9
 233.099609375 -29 233.099609375 -29 154.349609375 58.5 c 128,-1,10
 75.599609375 146 75.599609375 146 75.599609375 309 c 0,11,12
 75.599609375 488 75.599609375 488 188.549804688 577 c 128,-1,13
 301.5 666 301.5 666 529.200195312 666 c 2,14,-1
 696.599609375 666 l 1,15,-1
 696.599609375 729 l 2,16,17
 696.599609375 858 696.599609375 858 641.700195312 919.5 c 128,-1,18
 586.799804688 981 586.799804688 981 471.599609375 981 c 0,19,20
 376.200195312 981 376.200195312 981 324.450195312 937.5 c 128,-1,21
 272.700195312 894 272.700195312 894 251.099609375 795 c 1,22,-1
 149.400390625 795 l 1,23,-1
 149.400390625 1024 l 1,24,25
 234.900390625 1058 234.900390625 1058 326.700195312 1075 c 128,-1,26
 418.5 1092 418.5 1092 520.200195312 1092 c 0,27,28
 776.700195312 1092 776.700195312 1092 895.950195312 986 c 128,-1,29
 1015.20019531 880 1015.20019531 880 1015.20019531 653 c 2,0,-1
696.599609375 334 m 2,30,-1
 696.599609375 547 l 1,31,-1
 576.900390625 547 l 2,32,33
 487.799804688 547 487.799804688 547 440.099609375 493 c 128,-1,34
 392.400390625 439 392.400390625 439 392.400390625 338 c 0,35,36
 392.400390625 237 392.400390625 237 427.049804688 187 c 128,-1,37
 461.700195312 137 461.700195312 137 532.799804688 137 c 0,38,39
 606.599609375 137 606.599609375 137 651.599609375 191 c 128,-1,40
 696.599609375 245 696.599609375 245 696.599609375 334 c 2,30,-1
EndSplineSet
EndChar
StartChar: b
Encoding: 98 98 98
Width: 1288
Flags: W
AnchorPoint: "below" 605.7 0 basechar 0
AnchorPoint: "above" 291.6 1465 basechar 0
LayerCount: 2
Back
Fore
SplineSet
179.099609375 121 m 1,0,-1
 179.099609375 1436 l 1,1,-1
 42.2998046875 1436 l 1,2,-1
 42.2998046875 1556 l 1,3,-1
 497.700195312 1556 l 1,4,-1
 497.700195312 928 l 1,5,6
 538.200195312 1011 538.200195312 1011 606.599609375 1051.5 c 128,-1,7
 675 1092 675 1092 775.799804688 1092 c 0,8,9
 980.099609375 1092 980.099609375 1092 1097.54980469 942.5 c 128,-1,10
 1215 793 1215 793 1215 532 c 0,11,12
 1215 271 1215 271 1097.54980469 121 c 128,-1,13
 980.099609375 -29 980.099609375 -29 775.799804688 -29 c 0,14,15
 675 -29 675 -29 606.599609375 11.5 c 128,-1,16
 538.200195312 52 538.200195312 52 497.700195312 135 c 1,17,-1
 497.700195312 0 l 1,18,-1
 42.2998046875 0 l 1,19,-1
 42.2998046875 121 l 1,20,-1
 179.099609375 121 l 1,0,-1
497.700195312 479 m 2,21,22
 497.700195312 293 497.700195312 293 540.450195312 210 c 128,-1,23
 583.200195312 127 583.200195312 127 678.599609375 127 c 0,24,25
 776.700195312 127 776.700195312 127 816.75 215 c 128,-1,26
 856.799804688 303 856.799804688 303 856.799804688 532 c 0,27,28
 856.799804688 761 856.799804688 761 816.75 848.5 c 128,-1,29
 776.700195312 936 776.700195312 936 678.599609375 936 c 0,30,31
 583.200195312 936 583.200195312 936 540.450195312 853 c 128,-1,32
 497.700195312 770 497.700195312 770 497.700195312 584 c 2,33,-1
 497.700195312 479 l 2,21,22
EndSplineSet
EndChar
StartChar: c
Encoding: 99 99 99
Width: 1122
Flags: W
AnchorPoint: "below" 597.6 0 basechar 0
AnchorPoint: "above" 597.6 1092 basechar 0
LayerCount: 2
Back
Fore
SplineSet
1039.5 332 m 1,0,1
 1005.29980469 150 1005.29980469 150 899.549804688 60.5 c 128,-1,2
 793.799804688 -29 793.799804688 -29 612 -29 c 0,3,4
 356.400390625 -29 356.400390625 -29 216 118 c 128,-1,5
 75.599609375 265 75.599609375 265 75.599609375 532 c 0,6,7
 75.599609375 796 75.599609375 796 214.200195312 944 c 128,-1,8
 352.799804688 1092 352.799804688 1092 599.400390625 1092 c 0,9,10
 699.299804688 1092 699.299804688 1092 801 1071 c 128,-1,11
 902.700195312 1050 902.700195312 1050 1008 1008 c 1,12,-1
 1008 713 l 1,13,-1
 907.200195312 713 l 1,14,15
 892.799804688 848 892.799804688 848 836.099609375 913.5 c 128,-1,16
 779.400390625 979 779.400390625 979 676.799804688 979 c 0,17,18
 543.599609375 979 543.599609375 979 487.349609375 879 c 128,-1,19
 431.099609375 779 431.099609375 779 431.099609375 532 c 0,20,21
 431.099609375 291 431.099609375 291 486 187.5 c 128,-1,22
 540.900390625 84 540.900390625 84 665.099609375 84 c 0,23,24
 761.400390625 84 761.400390625 84 819.450195312 148 c 128,-1,25
 877.5 212 877.5 212 890.099609375 332 c 1,26,-1
 1039.5 332 l 1,0,1
EndSplineSet
EndChar
StartChar: d
Encoding: 100 100 100
Width: 1288
Flags: W
AnchorPoint: "below" 612.9 0 basechar 0
AnchorPoint: "above" 881.1 1465 basechar 0
LayerCount: 2
Back
Fore
SplineSet
791.099609375 479 m 2,0,-1
 791.099609375 584 l 2,1,2
 791.099609375 770 791.099609375 770 747.900390625 853 c 128,-1,3
 704.700195312 936 704.700195312 936 610.200195312 936 c 0,4,5
 511.200195312 936 511.200195312 936 471.150390625 848.5 c 128,-1,6
 431.099609375 761 431.099609375 761 431.099609375 532 c 0,7,8
 431.099609375 303 431.099609375 303 471.599609375 215 c 128,-1,9
 512.099609375 127 512.099609375 127 610.200195312 127 c 0,10,11
 704.700195312 127 704.700195312 127 747.900390625 210 c 128,-1,12
 791.099609375 293 791.099609375 293 791.099609375 479 c 2,0,-1
1109.70019531 121 m 1,13,-1
 1245.59960938 121 l 1,14,-1
 1245.59960938 0 l 1,15,-1
 791.099609375 0 l 1,16,-1
 791.099609375 135 l 1,17,18
 750.599609375 52 750.599609375 52 681.75 11.5 c 128,-1,19
 612.900390625 -29 612.900390625 -29 512.099609375 -29 c 0,20,21
 308.700195312 -29 308.700195312 -29 192.150390625 121 c 128,-1,22
 75.599609375 271 75.599609375 271 75.599609375 532 c 0,23,24
 75.599609375 794 75.599609375 794 192.150390625 943 c 128,-1,25
 308.700195312 1092 308.700195312 1092 512.099609375 1092 c 0,26,27
 612.900390625 1092 612.900390625 1092 681.75 1051.5 c 128,-1,28
 750.599609375 1011 750.599609375 1011 791.099609375 928 c 1,29,-1
 791.099609375 1436 l 1,30,-1
 654.299804688 1436 l 1,31,-1
 654.299804688 1556 l 1,32,-1
 1109.70019531 1556 l 1,33,-1
 1109.70019531 121 l 1,13,-1
EndSplineSet
EndChar
StartChar: e
Encoding: 101 101 101
Width: 1172
Flags: W
AnchorPoint: "below" 585.9 0 basechar 0
AnchorPoint: "above" 585.9 1092 basechar 0
LayerCount: 2
Back
Fore
SplineSet
738.900390625 600 m 1,0,1
 738.900390625 810 738.900390625 810 703.799804688 894.5 c 128,-1,2
 668.700195312 979 668.700195312 979 584.099609375 979 c 0,3,4
 502.200195312 979 502.200195312 979 466.650390625 896 c 128,-1,5
 431.099609375 813 431.099609375 813 431.099609375 618 c 2,6,-1
 431.099609375 600 l 1,7,-1
 738.900390625 600 l 1,0,1
1089 481 m 1,8,-1
 431.099609375 481 l 1,9,-1
 431.099609375 473 l 2,10,11
 431.099609375 267 431.099609375 267 486.900390625 175.5 c 128,-1,12
 542.700195312 84 542.700195312 84 666.900390625 84 c 0,13,14
 770.400390625 84 770.400390625 84 834.299804688 145 c 128,-1,15
 898.200195312 206 898.200195312 206 916.200195312 322 c 1,16,-1
 1065.59960938 322 l 1,17,18
 1026.90039062 141 1026.90039062 141 911.700195312 56 c 128,-1,19
 796.5 -29 796.5 -29 589.5 -29 c 0,20,21
 341.099609375 -29 341.099609375 -29 208.349609375 116.5 c 128,-1,22
 75.599609375 262 75.599609375 262 75.599609375 532 c 0,23,24
 75.599609375 796 75.599609375 796 211.5 944 c 128,-1,25
 347.400390625 1092 347.400390625 1092 589.5 1092 c 0,26,27
 827.099609375 1092 827.099609375 1092 954 936.5 c 128,-1,28
 1080.90039062 781 1080.90039062 781 1089 481 c 1,8,-1
EndSplineSet
EndChar
StartChar: f
Encoding: 102 102 102
Width: 792
Flags: W
AnchorPoint: "below" 342.9 0 basechar 0
AnchorPoint: "above" 521.1 1465 basechar 0
LayerCount: 2
Back
Fore
SplineSet
891.900390625 1290 m 1,0,-1
 791.099609375 1290 l 1,1,2
 783.900390625 1368 783.900390625 1368 750.150390625 1406 c 128,-1,3
 716.400390625 1444 716.400390625 1444 654.299804688 1444 c 0,4,5
 582.299804688 1444 582.299804688 1444 549.900390625 1386.5 c 128,-1,6
 517.5 1329 517.5 1329 517.5 1200 c 2,7,-1
 517.5 1063 l 1,8,-1
 757.799804688 1063 l 1,9,-1
 757.799804688 942 l 1,10,-1
 517.5 942 l 1,11,-1
 517.5 121 l 1,12,-1
 702 121 l 1,13,-1
 702 0 l 1,14,-1
 63 0 l 1,15,-1
 63 121 l 1,16,-1
 198.900390625 121 l 1,17,-1
 198.900390625 942 l 1,18,-1
 56.7001953125 942 l 1,19,-1
 56.7001953125 1063 l 1,20,-1
 198.900390625 1063 l 1,21,-1
 198.900390625 1196 l 2,22,23
 198.900390625 1373 198.900390625 1373 300.599609375 1464.5 c 128,-1,24
 402.299804688 1556 402.299804688 1556 599.400390625 1556 c 0,25,26
 675.900390625 1556 675.900390625 1556 748.799804688 1546.5 c 128,-1,27
 821.700195312 1537 821.700195312 1537 891.900390625 1518 c 1,28,-1
 891.900390625 1290 l 1,0,-1
EndSplineSet
EndChar
StartChar: g
Encoding: 103 103 103
Width: 1288
Flags: W
AnchorPoint: "below" 610.2 -430 basechar 0
AnchorPoint: "above" 610.2 1092 basechar 0
LayerCount: 2
Back
Fore
SplineSet
1109.70019531 942 m 1,0,-1
 1109.70019531 14 l 2,1,2
 1109.70019531 -210 1109.70019531 -210 966.150390625 -332.5 c 128,-1,3
 822.599609375 -455 822.599609375 -455 560.700195312 -455 c 0,4,5
 465.299804688 -455 465.299804688 -455 367.200195312 -438.5 c 128,-1,6
 269.099609375 -422 269.099609375 -422 165.599609375 -389 c 1,7,-1
 165.599609375 -135 l 1,8,-1
 267.299804688 -135 l 1,9,10
 280.799804688 -240 280.799804688 -240 343.349609375 -291 c 128,-1,11
 405.900390625 -342 405.900390625 -342 522 -342 c 0,12,13
 669.599609375 -342 669.599609375 -342 730.349609375 -263.5 c 128,-1,14
 791.099609375 -185 791.099609375 -185 791.099609375 14 c 2,15,-1
 791.099609375 135 l 1,16,17
 750.599609375 52 750.599609375 52 681.75 11.5 c 128,-1,18
 612.900390625 -29 612.900390625 -29 512.099609375 -29 c 0,19,20
 308.700195312 -29 308.700195312 -29 192.150390625 121 c 128,-1,21
 75.599609375 271 75.599609375 271 75.599609375 532 c 0,22,23
 75.599609375 794 75.599609375 794 192.150390625 943 c 128,-1,24
 308.700195312 1092 308.700195312 1092 512.099609375 1092 c 0,25,26
 612.900390625 1092 612.900390625 1092 681.75 1051.5 c 128,-1,27
 750.599609375 1011 750.599609375 1011 791.099609375 928 c 1,28,-1
 791.099609375 1063 l 1,29,-1
 1245.59960938 1063 l 1,30,-1
 1245.59960938 942 l 1,31,-1
 1109.70019531 942 l 1,0,-1
791.099609375 584 m 2,32,33
 791.099609375 770 791.099609375 770 747.900390625 853 c 128,-1,34
 704.700195312 936 704.700195312 936 610.200195312 936 c 0,35,36
 511.200195312 936 511.200195312 936 471.150390625 848.5 c 128,-1,37
 431.099609375 761 431.099609375 761 431.099609375 532 c 0,38,39
 431.099609375 303 431.099609375 303 471.599609375 215 c 128,-1,40
 512.099609375 127 512.099609375 127 610.200195312 127 c 0,41,42
 704.700195312 127 704.700195312 127 747.900390625 210 c 128,-1,43
 791.099609375 293 791.099609375 293 791.099609375 479 c 2,44,-1
 791.099609375 584 l 2,32,33
EndSplineSet
AlternateSubs2: "'aalt' Access All Alternates" g.alt
AlternateSubs2: "'salt' Stylistic Alternatives" g.alt
EndChar
StartChar: h
Encoding: 104 104 104
Width: 1340
Flags: W
AnchorPoint: "below" 679.5 0 basechar 0
AnchorPoint: "above" 291.6 1465 basechar 0
LayerCount: 2
Back
Fore
SplineSet
63 0 m 1,0,-1
 63 121 l 1,1,-1
 198.900390625 121 l 1,2,-1
 198.900390625 1436 l 1,3,-1
 56.7001953125 1436 l 1,4,-1
 56.7001953125 1556 l 1,5,-1
 517.5 1556 l 1,6,-1
 517.5 913 l 1,7,8
 575.099609375 1008 575.099609375 1008 648.900390625 1050 c 128,-1,9
 722.700195312 1092 722.700195312 1092 835.200195312 1092 c 0,10,11
 996.299804688 1092 996.299804688 1092 1078.65039062 986.5 c 128,-1,12
 1161 881 1161 881 1161 676 c 2,13,-1
 1161 121 l 1,14,-1
 1297.79980469 121 l 1,15,-1
 1297.79980469 0 l 1,16,-1
 726.299804688 0 l 1,17,-1
 726.299804688 121 l 1,18,-1
 842.400390625 121 l 1,19,-1
 842.400390625 686 l 2,20,21
 842.400390625 821 842.400390625 821 811.349609375 873.5 c 128,-1,22
 780.299804688 926 780.299804688 926 703.799804688 926 c 0,23,24
 607.5 926 607.5 926 562.5 847.5 c 128,-1,25
 517.5 769 517.5 769 517.5 598 c 2,26,-1
 517.5 121 l 1,27,-1
 634.5 121 l 1,28,-1
 634.5 0 l 1,29,-1
 63 0 l 1,0,-1
EndSplineSet
EndChar
StartChar: i
Encoding: 105 105 105
Width: 700
Flags: W
AnchorPoint: "below" 342.9 0 basechar 0
AnchorPoint: "above" 342.9 1585 basechar 0
LayerCount: 2
Back
Fore
SplineSet
169.200195312 1364 m 0,0,1
 169.200195312 1445 169.200195312 1445 219.599609375 1500.5 c 128,-1,2
 270 1556 270 1556 342.900390625 1556 c 0,3,4
 414 1556 414 1556 463.950195312 1500.5 c 128,-1,5
 513.900390625 1445 513.900390625 1445 513.900390625 1364 c 0,6,7
 513.900390625 1285 513.900390625 1285 463.950195312 1229.5 c 128,-1,8
 414 1174 414 1174 342.900390625 1174 c 0,9,10
 270 1174 270 1174 219.599609375 1229 c 128,-1,11
 169.200195312 1284 169.200195312 1284 169.200195312 1364 c 0,0,1
517.5 121 m 1,12,-1
 654.299804688 121 l 1,13,-1
 654.299804688 0 l 1,14,-1
 63 0 l 1,15,-1
 63 121 l 1,16,-1
 198.900390625 121 l 1,17,-1
 198.900390625 942 l 1,18,-1
 63 942 l 1,19,-1
 63 1063 l 1,20,-1
 517.5 1063 l 1,21,-1
 517.5 121 l 1,12,-1
EndSplineSet
Substitution2: "Single Substitution - Dotless Form" dotlessi
EndChar
StartChar: j
Encoding: 106 106 106
Width: 666
Flags: W
AnchorPoint: "below" 197.1 -430 basechar 0
AnchorPoint: "above" 333.9 1585 basechar 0
LayerCount: 2
Back
Fore
SplineSet
160.200195312 1364 m 0,0,1
 160.200195312 1445 160.200195312 1445 210.150390625 1500.5 c 128,-1,2
 260.099609375 1556 260.099609375 1556 333.900390625 1556 c 0,3,4
 404.099609375 1556 404.099609375 1556 454.5 1500 c 128,-1,5
 504.900390625 1444 504.900390625 1444 504.900390625 1364 c 0,6,7
 504.900390625 1285 504.900390625 1285 454.950195312 1229.5 c 128,-1,8
 405 1174 405 1174 333.900390625 1174 c 0,9,10
 261 1174 261 1174 210.599609375 1229 c 128,-1,11
 160.200195312 1284 160.200195312 1284 160.200195312 1364 c 0,0,1
197.099609375 942 m 1,12,-1
 61.2001953125 942 l 1,13,-1
 61.2001953125 1063 l 1,14,-1
 515.700195312 1063 l 1,15,-1
 515.700195312 -125 l 2,16,17
 515.700195312 -288 515.700195312 -288 411.75 -371.5 c 128,-1,18
 307.799804688 -455 307.799804688 -455 105.299804688 -455 c 0,19,20
 51.2998046875 -455 51.2998046875 -455 -9.900390625 -445 c 128,-1,21
 -71.099609375 -435 -71.099609375 -435 -136.799804688 -416 c 1,22,-1
 -136.799804688 -190 l 1,23,-1
 -35.099609375 -191 l 1,24,25
 -33.2998046875 -271 -33.2998046875 -271 -6.75 -306.5 c 128,-1,26
 19.7998046875 -342 19.7998046875 -342 79.2001953125 -342 c 0,27,28
 144.900390625 -342 144.900390625 -342 171 -295 c 128,-1,29
 197.099609375 -248 197.099609375 -248 197.099609375 -125 c 2,30,-1
 197.099609375 942 l 1,12,-1
EndSplineSet
Substitution2: "Single Substitution - Dotless Form" dotlessj
EndChar
StartChar: k
Encoding: 107 107 107
Width: 1277
Flags: W
AnchorPoint: "below" 679.5 0 basechar 0
AnchorPoint: "above" 291.6 1465 basechar 0
LayerCount: 2
Back
Fore
SplineSet
638.099609375 0 m 1,0,-1
 63 0 l 1,1,-1
 63 121 l 1,2,-1
 198.900390625 121 l 1,3,-1
 198.900390625 1436 l 1,4,-1
 63 1436 l 1,5,-1
 63 1556 l 1,6,-1
 517.5 1556 l 1,7,-1
 517.5 557 l 1,8,-1
 903.599609375 942 l 1,9,-1
 789.299804688 942 l 1,10,-1
 789.299804688 1063 l 1,11,-1
 1225.79980469 1063 l 1,12,-1
 1225.79980469 942 l 1,13,-1
 1048.5 942 l 1,14,-1
 801.900390625 696 l 1,15,-1
 1205.09960938 121 l 1,16,-1
 1308.59960938 121 l 1,17,-1
 1308.59960938 0 l 1,18,-1
 759.599609375 0 l 1,19,-1
 759.599609375 121 l 1,20,-1
 872.099609375 121 l 1,21,-1
 606.599609375 500 l 1,22,-1
 517.5 412 l 1,23,-1
 517.5 121 l 1,24,-1
 638.099609375 121 l 1,25,-1
 638.099609375 0 l 1,0,-1
EndSplineSet
EndChar
StartChar: l
Encoding: 108 108 108
Width: 700
Flags: W
AnchorPoint: "below" 342.9 0 basechar 0
AnchorPoint: "above" 291.6 1465 basechar 0
LayerCount: 2
Back
Fore
SplineSet
517.5 121 m 1,0,-1
 654.299804688 121 l 1,1,-1
 654.299804688 0 l 1,2,-1
 63 0 l 1,3,-1
 63 121 l 1,4,-1
 198.900390625 121 l 1,5,-1
 198.900390625 1436 l 1,6,-1
 63 1436 l 1,7,-1
 63 1556 l 1,8,-1
 517.5 1556 l 1,9,-1
 517.5 121 l 1,0,-1
EndSplineSet
EndChar
StartChar: m
Encoding: 109 109 109
Width: 1950
Flags: W
AnchorPoint: "above" 985.5 1092 basechar 0
AnchorPoint: "below" 985.5 0 basechar 0
LayerCount: 2
Back
Fore
SplineSet
1118.70019531 889 m 1,0,1
 1185.29980469 995 1185.29980469 995 1262.70019531 1043.5 c 128,-1,2
 1340.09960938 1092 1340.09960938 1092 1443.59960938 1092 c 0,3,4
 1608.29980469 1092 1608.29980469 1092 1689.75 988.5 c 128,-1,5
 1771.20019531 885 1771.20019531 885 1771.20019531 676 c 2,6,-1
 1771.20019531 121 l 1,7,-1
 1908 121 l 1,8,-1
 1908 0 l 1,9,-1
 1338.29980469 0 l 1,10,-1
 1338.29980469 121 l 1,11,-1
 1452.59960938 121 l 1,12,-1
 1452.59960938 623 l 2,13,14
 1452.59960938 822 1452.59960938 822 1425.15039062 874 c 128,-1,15
 1397.70019531 926 1397.70019531 926 1323 926 c 0,16,17
 1238.40039062 926 1238.40039062 926 1191.59960938 853.5 c 128,-1,18
 1144.79980469 781 1144.79980469 781 1144.79980469 647 c 2,19,-1
 1144.79980469 121 l 1,20,-1
 1259.09960938 121 l 1,21,-1
 1259.09960938 0 l 1,22,-1
 711.900390625 0 l 1,23,-1
 711.900390625 121 l 1,24,-1
 826.200195312 121 l 1,25,-1
 826.200195312 623 l 2,26,27
 826.200195312 822 826.200195312 822 798.299804688 874 c 128,-1,28
 770.400390625 926 770.400390625 926 696.599609375 926 c 0,29,30
 611.099609375 926 611.099609375 926 564.299804688 853.5 c 128,-1,31
 517.5 781 517.5 781 517.5 647 c 2,32,-1
 517.5 121 l 1,33,-1
 631.799804688 121 l 1,34,-1
 631.799804688 0 l 1,35,-1
 63 0 l 1,36,-1
 63 121 l 1,37,-1
 198.900390625 121 l 1,38,-1
 198.900390625 942 l 1,39,-1
 63 942 l 1,40,-1
 63 1063 l 1,41,-1
 517.5 1063 l 1,42,-1
 517.5 913 l 1,43,44
 573.299804688 1006 573.299804688 1006 645.299804688 1049 c 128,-1,45
 717.299804688 1092 717.299804688 1092 816.299804688 1092 c 0,46,47
 933.299804688 1092 933.299804688 1092 1006.20019531 1042.5 c 128,-1,48
 1079.09960938 993 1079.09960938 993 1118.70019531 889 c 1,0,1
EndSplineSet
EndChar
StartChar: n
Encoding: 110 110 110
Width: 1340
Flags: W
AnchorPoint: "below" 679.5 0 basechar 0
AnchorPoint: "above" 597.6 1092 basechar 0
LayerCount: 2
Back
Fore
SplineSet
63 0 m 1,0,-1
 63 121 l 1,1,-1
 198.900390625 121 l 1,2,-1
 198.900390625 942 l 1,3,-1
 63 942 l 1,4,-1
 63 1063 l 1,5,-1
 517.5 1063 l 1,6,-1
 517.5 913 l 1,7,8
 575.099609375 1008 575.099609375 1008 648.900390625 1050 c 128,-1,9
 722.700195312 1092 722.700195312 1092 835.200195312 1092 c 0,10,11
 996.299804688 1092 996.299804688 1092 1078.65039062 986.5 c 128,-1,12
 1161 881 1161 881 1161 676 c 2,13,-1
 1161 121 l 1,14,-1
 1297.79980469 121 l 1,15,-1
 1297.79980469 0 l 1,16,-1
 726.299804688 0 l 1,17,-1
 726.299804688 121 l 1,18,-1
 842.400390625 121 l 1,19,-1
 842.400390625 686 l 2,20,21
 842.400390625 821 842.400390625 821 811.349609375 873.5 c 128,-1,22
 780.299804688 926 780.299804688 926 703.799804688 926 c 0,23,24
 607.5 926 607.5 926 562.5 847.5 c 128,-1,25
 517.5 769 517.5 769 517.5 598 c 2,26,-1
 517.5 121 l 1,27,-1
 634.5 121 l 1,28,-1
 634.5 0 l 1,29,-1
 63 0 l 1,0,-1
EndSplineSet
EndChar
StartChar: o
Encoding: 111 111 111
Width: 1229
Flags: W
AnchorPoint: "below" 615.6 0 basechar 0
AnchorPoint: "above" 615.6 1092 basechar 0
LayerCount: 2
Back
Fore
SplineSet
615.599609375 84 m 0,0,1
 716.400390625 84 716.400390625 84 757.349609375 180 c 128,-1,2
 798.299804688 276 798.299804688 276 798.299804688 532 c 0,3,4
 798.299804688 788 798.299804688 788 757.799804688 883.5 c 128,-1,5
 717.299804688 979 717.299804688 979 615.599609375 979 c 0,6,7
 513.900390625 979 513.900390625 979 472.5 882.5 c 128,-1,8
 431.099609375 786 431.099609375 786 431.099609375 532 c 0,9,10
 431.099609375 278 431.099609375 278 472.5 181 c 128,-1,11
 513.900390625 84 513.900390625 84 615.599609375 84 c 0,0,1
615.599609375 -29 m 0,12,13
 362.700195312 -29 362.700195312 -29 219.150390625 120.5 c 128,-1,14
 75.599609375 270 75.599609375 270 75.599609375 532 c 0,15,16
 75.599609375 795 75.599609375 795 219.150390625 943.5 c 128,-1,17
 362.700195312 1092 362.700195312 1092 615.599609375 1092 c 0,18,19
 869.400390625 1092 869.400390625 1092 1012.5 943.5 c 128,-1,20
 1155.59960938 795 1155.59960938 795 1155.59960938 532 c 0,21,22
 1155.59960938 270 1155.59960938 270 1012.04980469 120.5 c 128,-1,23
 868.5 -29 868.5 -29 615.599609375 -29 c 0,12,13
EndSplineSet
EndChar
StartChar: p
Encoding: 112 112 112
Width: 1288
Flags: W
AnchorPoint: "above" 678.6 1092 basechar 0
AnchorPoint: "below" 342.9 -430 basechar 0
LayerCount: 2
Back
Fore
SplineSet
497.700195312 584 m 2,0,-1
 497.700195312 479 l 2,1,2
 497.700195312 293 497.700195312 293 540.450195312 210 c 128,-1,3
 583.200195312 127 583.200195312 127 678.599609375 127 c 0,4,5
 776.700195312 127 776.700195312 127 816.75 215 c 128,-1,6
 856.799804688 303 856.799804688 303 856.799804688 532 c 0,7,8
 856.799804688 761 856.799804688 761 816.75 848.5 c 128,-1,9
 776.700195312 936 776.700195312 936 678.599609375 936 c 0,10,11
 583.200195312 936 583.200195312 936 540.450195312 853 c 128,-1,12
 497.700195312 770 497.700195312 770 497.700195312 584 c 2,0,-1
179.099609375 942 m 1,13,-1
 42.2998046875 942 l 1,14,-1
 42.2998046875 1063 l 1,15,-1
 497.700195312 1063 l 1,16,-1
 497.700195312 928 l 1,17,18
 538.200195312 1011 538.200195312 1011 606.599609375 1051.5 c 128,-1,19
 675 1092 675 1092 775.799804688 1092 c 0,20,21
 980.099609375 1092 980.099609375 1092 1097.54980469 942.5 c 128,-1,22
 1215 793 1215 793 1215 532 c 0,23,24
 1215 271 1215 271 1097.54980469 121 c 128,-1,25
 980.099609375 -29 980.099609375 -29 775.799804688 -29 c 0,26,27
 675 -29 675 -29 606.599609375 11.5 c 128,-1,28
 538.200195312 52 538.200195312 52 497.700195312 135 c 1,29,-1
 497.700195312 -305 l 1,30,-1
 645.299804688 -305 l 1,31,-1
 645.299804688 -426 l 1,32,-1
 42.2998046875 -426 l 1,33,-1
 42.2998046875 -305 l 1,34,-1
 179.099609375 -305 l 1,35,-1
 179.099609375 942 l 1,13,-1
EndSplineSet
EndChar
StartChar: q
Encoding: 113 113 113
Width: 1288
Flags: W
AnchorPoint: "above" 605.7 1092 basechar 0
AnchorPoint: "below" 950.4 -430 basechar 0
LayerCount: 2
Back
Fore
SplineSet
1109.70019531 942 m 1,0,-1
 1109.70019531 -305 l 1,1,-1
 1245.59960938 -305 l 1,2,-1
 1245.59960938 -426 l 1,3,-1
 643.5 -426 l 1,4,-1
 643.5 -305 l 1,5,-1
 791.099609375 -305 l 1,6,-1
 791.099609375 135 l 1,7,8
 750.599609375 52 750.599609375 52 681.75 11.5 c 128,-1,9
 612.900390625 -29 612.900390625 -29 512.099609375 -29 c 0,10,11
 308.700195312 -29 308.700195312 -29 192.150390625 121 c 128,-1,12
 75.599609375 271 75.599609375 271 75.599609375 532 c 0,13,14
 75.599609375 794 75.599609375 794 192.150390625 943 c 128,-1,15
 308.700195312 1092 308.700195312 1092 512.099609375 1092 c 0,16,17
 612.900390625 1092 612.900390625 1092 681.75 1051.5 c 128,-1,18
 750.599609375 1011 750.599609375 1011 791.099609375 928 c 1,19,-1
 791.099609375 1063 l 1,20,-1
 1245.59960938 1063 l 1,21,-1
 1245.59960938 942 l 1,22,-1
 1109.70019531 942 l 1,0,-1
791.099609375 584 m 2,23,24
 791.099609375 770 791.099609375 770 747.900390625 853 c 128,-1,25
 704.700195312 936 704.700195312 936 610.200195312 936 c 0,26,27
 511.200195312 936 511.200195312 936 471.150390625 848.5 c 128,-1,28
 431.099609375 761 431.099609375 761 431.099609375 532 c 0,29,30
 431.099609375 303 431.099609375 303 471.599609375 215 c 128,-1,31
 512.099609375 127 512.099609375 127 610.200195312 127 c 0,32,33
 704.700195312 127 704.700195312 127 747.900390625 210 c 128,-1,34
 791.099609375 293 791.099609375 293 791.099609375 479 c 2,35,-1
 791.099609375 584 l 2,23,24
EndSplineSet
EndChar
StartChar: r
Encoding: 114 114 114
Width: 971
Flags: W
AnchorPoint: "below" 342.9 0 basechar 0
AnchorPoint: "above" 597.6 1092 basechar 0
LayerCount: 2
Back
Fore
SplineSet
990 1075 m 1,0,-1
 990 758 l 1,1,-1
 888.299804688 758 l 1,2,3
 882.900390625 843 882.900390625 843 846.900390625 884.5 c 128,-1,4
 810.900390625 926 810.900390625 926 742.5 926 c 0,5,6
 638.099609375 926 638.099609375 926 577.799804688 824 c 128,-1,7
 517.5 722 517.5 722 517.5 541 c 2,8,-1
 517.5 121 l 1,9,-1
 691.200195312 121 l 1,10,-1
 691.200195312 0 l 1,11,-1
 63 0 l 1,12,-1
 63 121 l 1,13,-1
 198.900390625 121 l 1,14,-1
 198.900390625 942 l 1,15,-1
 53.099609375 942 l 1,16,-1
 53.099609375 1063 l 1,17,-1
 517.5 1063 l 1,18,-1
 517.5 874 l 1,19,20
 564.299804688 985 564.299804688 985 641.25 1038.5 c 128,-1,21
 718.200195312 1092 718.200195312 1092 829.799804688 1092 c 0,22,23
 857.700195312 1092 857.700195312 1092 897.75 1087.5 c 128,-1,24
 937.799804688 1083 937.799804688 1083 990 1075 c 1,0,-1
EndSplineSet
EndChar
StartChar: s
Encoding: 115 115 115
Width: 1037
Flags: W
AnchorPoint: "below" 520.2 0 basechar 0
AnchorPoint: "above" 520.2 1092 basechar 0
LayerCount: 2
Back
Fore
SplineSet
86.400390625 31 m 1,0,-1
 86.400390625 328 l 1,1,-1
 188.099609375 328 l 1,2,3
 200.700195312 209 200.700195312 209 268.200195312 146.5 c 128,-1,4
 335.700195312 84 335.700195312 84 451.799804688 84 c 0,5,6
 549 84 549 84 600.75 121.5 c 128,-1,7
 652.5 159 652.5 159 652.5 229 c 0,8,9
 652.5 293 652.5 293 619.650390625 328 c 128,-1,10
 586.799804688 363 586.799804688 363 492.299804688 389 c 2,11,-1
 360.900390625 426 l 2,12,13
 212.400390625 467 212.400390625 467 145.799804688 543.5 c 128,-1,14
 79.2001953125 620 79.2001953125 620 79.2001953125 750 c 0,15,16
 79.2001953125 923 79.2001953125 923 187.200195312 1007.5 c 128,-1,17
 295.200195312 1092 295.200195312 1092 520.200195312 1092 c 0,18,19
 604.799804688 1092 604.799804688 1092 700.650390625 1076.5 c 128,-1,20
 796.5 1061 796.5 1061 912.599609375 1028 c 1,21,-1
 912.599609375 760 l 1,22,-1
 810.900390625 760 l 1,23,24
 802.799804688 869 802.799804688 869 741.150390625 924 c 128,-1,25
 679.5 979 679.5 979 564.299804688 979 c 0,26,27
 467.099609375 979 467.099609375 979 417.150390625 944.5 c 128,-1,28
 367.200195312 910 367.200195312 910 367.200195312 844 c 0,29,30
 367.200195312 790 367.200195312 790 396 759 c 128,-1,31
 424.799804688 728 424.799804688 728 499.5 707 c 2,32,-1
 630 670 l 2,33,34
 818.099609375 617 818.099609375 617 890.099609375 539 c 128,-1,35
 962.099609375 461 962.099609375 461 962.099609375 322 c 0,36,37
 962.099609375 142 962.099609375 142 846.450195312 56.5 c 128,-1,38
 730.799804688 -29 730.799804688 -29 486.900390625 -29 c 0,39,40
 397.799804688 -29 397.799804688 -29 297.900390625 -14 c 128,-1,41
 198 1 198 1 86.400390625 31 c 1,0,-1
EndSplineSet
EndChar
StartChar: t
Encoding: 116 116 116
Width: 851
Flags: W
AnchorPoint: "below" 501.3 0 basechar 0
AnchorPoint: "above" 342 1465 basechar 0
LayerCount: 2
Back
Fore
SplineSet
182.700195312 942 m 1,0,-1
 44.099609375 942 l 1,1,-1
 44.099609375 1063 l 1,2,-1
 182.700195312 1063 l 1,3,-1
 182.700195312 1393 l 1,4,-1
 501.299804688 1393 l 1,5,-1
 501.299804688 1063 l 1,6,-1
 766.799804688 1063 l 1,7,-1
 766.799804688 942 l 1,8,-1
 501.299804688 942 l 1,9,-1
 501.299804688 291 l 2,10,11
 501.299804688 152 501.299804688 152 521.099609375 118 c 128,-1,12
 540.900390625 84 540.900390625 84 593.099609375 84 c 0,13,14
 650.700195312 84 650.700195312 84 678.599609375 127 c 128,-1,15
 706.5 170 706.5 170 708.299804688 260 c 1,16,-1
 842.400390625 260 l 1,17,18
 834.299804688 100 834.299804688 100 763.650390625 35.5 c 128,-1,19
 693 -29 693 -29 520.200195312 -29 c 0,20,21
 323.099609375 -29 323.099609375 -29 252.900390625 39.5 c 128,-1,22
 182.700195312 108 182.700195312 108 182.700195312 291 c 2,23,-1
 182.700195312 942 l 1,0,-1
EndSplineSet
EndChar
StartChar: u
Encoding: 117 117 117
Width: 1340
Flags: W
AnchorPoint: "below" 636.3 0 basechar 0
AnchorPoint: "above" 636.3 1092 basechar 0
LayerCount: 2
Back
Fore
SplineSet
1141.20019531 1063 m 1,0,-1
 1141.20019531 121 l 1,1,-1
 1277.09960938 121 l 1,2,-1
 1277.09960938 0 l 1,3,-1
 821.700195312 0 l 1,4,-1
 821.700195312 150 l 1,5,6
 765 55 765 55 691.200195312 13 c 128,-1,7
 617.400390625 -29 617.400390625 -29 504.900390625 -29 c 0,8,9
 343.799804688 -29 343.799804688 -29 261.450195312 76.5 c 128,-1,10
 179.099609375 182 179.099609375 182 179.099609375 387 c 2,11,-1
 179.099609375 942 l 1,12,-1
 42.2998046875 942 l 1,13,-1
 42.2998046875 1063 l 1,14,-1
 497.700195312 1063 l 1,15,-1
 497.700195312 442 l 2,16,17
 497.700195312 244 497.700195312 244 527.400390625 190.5 c 128,-1,18
 557.099609375 137 557.099609375 137 636.299804688 137 c 0,19,20
 732.599609375 137 732.599609375 137 777.150390625 216 c 128,-1,21
 821.700195312 295 821.700195312 295 821.700195312 467 c 2,22,-1
 821.700195312 942 l 1,23,-1
 705.599609375 942 l 1,24,-1
 705.599609375 1063 l 1,25,-1
 1141.20019531 1063 l 1,0,-1
EndSplineSet
EndChar
StartChar: v
Encoding: 118 118 118
Width: 1071
Flags: W
AnchorPoint: "below" 545.4 -5 basechar 0
AnchorPoint: "above" 545.4 1092 basechar 0
LayerCount: 2
Back
Fore
SplineSet
411.299804688 0 m 1,0,-1
 72 942 l 1,1,-1
 -33.2998046875 942 l 1,2,-1
 -33.2998046875 1063 l 1,3,-1
 515.700195312 1063 l 1,4,-1
 515.700195312 942 l 1,5,-1
 399.599609375 942 l 1,6,-1
 641.700195312 270 l 1,7,-1
 882.900390625 942 l 1,8,-1
 757.799804688 942 l 1,9,-1
 757.799804688 1063 l 1,10,-1
 1116.90039062 1063 l 1,11,-1
 1116.90039062 942 l 1,12,-1
 1006.20019531 942 l 1,13,-1
 666.900390625 0 l 1,14,-1
 411.299804688 0 l 1,0,-1
EndSplineSet
EndChar
StartChar: w
Encoding: 119 119 119
Width: 1586
Flags: W
AnchorPoint: "below" 803.7 0 basechar 0
AnchorPoint: "above" 803.7 1092 basechar 0
LayerCount: 2
Back
Fore
SplineSet
993.599609375 1063 m 1,0,-1
 1211.40039062 354 l 1,1,-1
 1391.40039062 942 l 1,2,-1
 1266.29980469 942 l 1,3,-1
 1266.29980469 1063 l 1,4,-1
 1623.59960938 1063 l 1,5,-1
 1623.59960938 942 l 1,6,-1
 1511.09960938 942 l 1,7,-1
 1222.20019531 0 l 1,8,-1
 1002.59960938 0 l 1,9,-1
 800.099609375 666 l 1,10,-1
 595.799804688 0 l 1,11,-1
 378 0 l 1,12,-1
 88.2001953125 942 l 1,13,-1
 -16.2001953125 942 l 1,14,-1
 -16.2001953125 1063 l 1,15,-1
 525.599609375 1063 l 1,16,-1
 525.599609375 942 l 1,17,-1
 413.099609375 942 l 1,18,-1
 589.5 367 l 1,19,-1
 803.700195312 1063 l 1,20,-1
 993.599609375 1063 l 1,0,-1
EndSplineSet
EndChar
StartChar: x
Encoding: 120 120 120
Width: 1098
Flags: W
AnchorPoint: "below" 545.4 0 basechar 0
AnchorPoint: "above" 545.4 1092 basechar 0
LayerCount: 2
Back
Fore
SplineSet
647.099609375 678 m 1,0,-1
 816.299804688 942 l 1,1,-1
 698.400390625 942 l 1,2,-1
 698.400390625 1063 l 1,3,-1
 1071 1063 l 1,4,-1
 1071 942 l 1,5,-1
 944.099609375 942 l 1,6,-1
 700.200195312 563 l 1,7,-1
 984.599609375 121 l 1,8,-1
 1111.5 121 l 1,9,-1
 1111.5 0 l 1,10,-1
 503.099609375 0 l 1,11,-1
 503.099609375 121 l 1,12,-1
 626.400390625 121 l 1,13,-1
 446.400390625 401 l 1,14,-1
 265.5 121 l 1,15,-1
 394.200195312 121 l 1,16,-1
 394.200195312 0 l 1,17,-1
 0 0 l 1,18,-1
 0 121 l 1,19,-1
 136.799804688 121 l 1,20,-1
 390.599609375 518 l 1,21,-1
 116.099609375 942 l 1,22,-1
 9 942 l 1,23,-1
 9 1063 l 1,24,-1
 593.099609375 1063 l 1,25,-1
 593.099609375 942 l 1,26,-1
 477 942 l 1,27,-1
 647.099609375 678 l 1,0,-1
EndSplineSet
EndChar
StartChar: y
Encoding: 121 121 121
Width: 1071
Flags: W
AnchorPoint: "below" 545.4 -430 basechar 0
AnchorPoint: "above" 545.4 1092 basechar 0
LayerCount: 2
Back
Fore
SplineSet
575.099609375 -240 m 1,0,1
 531.900390625 -357 531.900390625 -357 470.700195312 -406 c 128,-1,2
 409.5 -455 409.5 -455 306 -455 c 0,3,4
 261.900390625 -455 261.900390625 -455 207.900390625 -444 c 128,-1,5
 153.900390625 -433 153.900390625 -433 90 -412 c 1,6,-1
 90 -190 l 1,7,-1
 191.700195312 -191 l 1,8,9
 194.400390625 -268 194.400390625 -268 224.549804688 -305 c 128,-1,10
 254.700195312 -342 254.700195312 -342 315 -342 c 0,11,12
 373.5 -342 373.5 -342 409.5 -306.5 c 128,-1,13
 445.5 -271 445.5 -271 481.5 -172 c 1,14,-1
 495.900390625 -135 l 1,15,-1
 79.2001953125 942 l 1,16,-1
 -24.2998046875 942 l 1,17,-1
 -24.2998046875 1063 l 1,18,-1
 527.400390625 1063 l 1,19,-1
 527.400390625 942 l 1,20,-1
 413.099609375 942 l 1,21,-1
 656.099609375 313 l 1,22,-1
 882.900390625 942 l 1,23,-1
 756 942 l 1,24,-1
 756 1063 l 1,25,-1
 1115.09960938 1063 l 1,26,-1
 1115.09960938 942 l 1,27,-1
 999 942 l 1,28,-1
 575.099609375 -240 l 1,0,1
EndSplineSet
EndChar
StartChar: z
Encoding: 122 122 122
Width: 1046
Flags: W
AnchorPoint: "below" 523.8 0 basechar 0
AnchorPoint: "above" 523.8 1092 basechar 0
LayerCount: 2
Back
Fore
SplineSet
64.7998046875 0 m 1,0,-1
 64.7998046875 121 l 1,1,-1
 613.799804688 946 l 1,2,-1
 200.700195312 946 l 1,3,-1
 200.700195312 764 l 1,4,-1
 93.599609375 764 l 1,5,-1
 93.599609375 1063 l 1,6,-1
 984.599609375 1063 l 1,7,-1
 984.599609375 944 l 1,8,-1
 434.700195312 119 l 1,9,-1
 877.5 119 l 1,10,-1
 877.5 311 l 1,11,-1
 984.599609375 311 l 1,12,-1
 984.599609375 0 l 1,13,-1
 64.7998046875 0 l 1,0,-1
EndSplineSet
EndChar
StartChar: braceleft
Encoding: 123 123 123
Width: 1185
Flags: W
LayerCount: 2
Back
Fore
SplineSet
1019.70019531 -213 m 1,0,-1
 1019.70019531 -334 l 1,1,-1
 886.5 -334 l 2,2,3
 674.099609375 -334 674.099609375 -334 600.299804688 -309.5 c 128,-1,4
 526.5 -285 526.5 -285 481.5 -223 c 0,5,6
 455.400390625 -187 455.400390625 -187 444.150390625 -132 c 128,-1,7
 432.900390625 -77 432.900390625 -77 432.900390625 35 c 2,8,-1
 432.900390625 285 l 2,9,10
 432.900390625 436 432.900390625 436 384.75 493.5 c 128,-1,11
 336.599609375 551 336.599609375 551 209.700195312 551 c 2,12,-1
 154.799804688 551 l 1,13,-1
 154.799804688 672 l 1,14,-1
 209.700195312 672 l 2,15,16
 336.599609375 672 336.599609375 672 384.75 729.5 c 128,-1,17
 432.900390625 787 432.900390625 787 432.900390625 938 c 2,18,-1
 432.900390625 1188 l 2,19,20
 432.900390625 1300 432.900390625 1300 444.150390625 1354.5 c 128,-1,21
 455.400390625 1409 455.400390625 1409 481.5 1446 c 0,22,23
 526.5 1507 526.5 1507 600.299804688 1531.5 c 128,-1,24
 674.099609375 1556 674.099609375 1556 886.5 1556 c 2,25,-1
 1019.70019531 1556 l 1,26,-1
 1019.70019531 1436 l 1,27,-1
 927 1436 l 2,28,29
 826.200195312 1436 826.200195312 1436 789.299804688 1389 c 128,-1,30
 752.400390625 1342 752.400390625 1342 752.400390625 1206 c 2,31,-1
 752.400390625 936 l 2,32,33
 752.400390625 777 752.400390625 777 707.849609375 709.5 c 128,-1,34
 663.299804688 642 663.299804688 642 547.200195312 612 c 1,35,36
 665.099609375 578 665.099609375 578 708.75 512 c 128,-1,37
 752.400390625 446 752.400390625 446 752.400390625 287 c 2,38,-1
 752.400390625 16 l 2,39,40
 752.400390625 -119 752.400390625 -119 789.299804688 -166 c 128,-1,41
 826.200195312 -213 826.200195312 -213 927 -213 c 2,42,-1
 1019.70019531 -213 l 1,0,-1
EndSplineSet
EndChar
StartChar: bar
Encoding: 124 124 124
Width: 670
Flags: W
LayerCount: 2
Back
Fore
SplineSet
431.099609375 1565 m 1,0,-1
 431.099609375 -483 l 1,1,-1
 237.599609375 -483 l 1,2,-1
 237.599609375 1565 l 1,3,-1
 431.099609375 1565 l 1,0,-1
EndSplineSet
EndChar
StartChar: braceright
Encoding: 125 125 125
Width: 1185
Flags: W
LayerCount: 2
Back
Fore
SplineSet
167.400390625 -213 m 1,0,-1
 258.299804688 -213 l 2,1,2
 358.200195312 -213 358.200195312 -213 395.549804688 -166 c 128,-1,3
 432.900390625 -119 432.900390625 -119 432.900390625 16 c 2,4,-1
 432.900390625 287 l 2,5,6
 432.900390625 444 432.900390625 444 477 511 c 128,-1,7
 521.099609375 578 521.099609375 578 639.900390625 612 c 1,8,9
 522.900390625 642 522.900390625 642 477.900390625 710 c 128,-1,10
 432.900390625 778 432.900390625 778 432.900390625 936 c 2,11,-1
 432.900390625 1206 l 2,12,13
 432.900390625 1342 432.900390625 1342 395.549804688 1389 c 128,-1,14
 358.200195312 1436 358.200195312 1436 258.299804688 1436 c 2,15,-1
 167.400390625 1436 l 1,16,-1
 167.400390625 1556 l 1,17,-1
 298.799804688 1556 l 2,18,19
 511.200195312 1556 511.200195312 1556 585 1531.5 c 128,-1,20
 658.799804688 1507 658.799804688 1507 703.799804688 1446 c 0,21,22
 729.900390625 1409 729.900390625 1409 741.150390625 1354.5 c 128,-1,23
 752.400390625 1300 752.400390625 1300 752.400390625 1188 c 2,24,-1
 752.400390625 938 l 2,25,26
 752.400390625 787 752.400390625 787 800.549804688 729.5 c 128,-1,27
 848.700195312 672 848.700195312 672 974.700195312 672 c 2,28,-1
 1030.5 672 l 1,29,-1
 1030.5 551 l 1,30,-1
 974.700195312 551 l 2,31,32
 848.700195312 551 848.700195312 551 800.549804688 493.5 c 128,-1,33
 752.400390625 436 752.400390625 436 752.400390625 285 c 2,34,-1
 752.400390625 35 l 2,35,36
 752.400390625 -77 752.400390625 -77 741.150390625 -132 c 128,-1,37
 729.900390625 -187 729.900390625 -187 703.799804688 -223 c 0,38,39
 658.799804688 -285 658.799804688 -285 585 -309.5 c 128,-1,40
 511.200195312 -334 511.200195312 -334 298.799804688 -334 c 2,41,-1
 167.400390625 -334 l 1,42,-1
 167.400390625 -213 l 1,0,-1
EndSplineSet
EndChar
StartChar: asciitilde
Encoding: 126 126 126
Width: 1544
Flags: W
LayerCount: 2
Back
Fore
SplineSet
1349.09960938 831 m 1,0,-1
 1349.09960938 625 l 1,1,2
 1265.40039062 539 1265.40039062 539 1181.25 498 c 128,-1,3
 1097.09960938 457 1097.09960938 457 1006.20019531 457 c 0,4,5
 920.700195312 457 920.700195312 457 783.900390625 515 c 0,6,7
 768.599609375 521 768.599609375 521 761.400390625 524 c 0,8,9
 755.099609375 527 755.099609375 527 743.400390625 532 c 0,10,11
 588.599609375 598 588.599609375 598 501.299804688 598 c 0,12,13
 432 598 432 598 356.849609375 562 c 128,-1,14
 281.700195312 526 281.700195312 526 195.299804688 453 c 1,15,-1
 195.299804688 659 l 1,16,17
 281.700195312 746 281.700195312 746 364.950195312 786.5 c 128,-1,18
 448.200195312 827 448.200195312 827 538.200195312 827 c 0,19,20
 623.700195312 827 623.700195312 827 759.599609375 770 c 0,21,22
 775.799804688 763 775.799804688 763 783 760 c 2,23,-1
 796.5 754 l 2,24,25
 952.200195312 686 952.200195312 686 1043.09960938 686 c 0,26,27
 1112.40039062 686 1112.40039062 686 1187.54980469 722 c 128,-1,28
 1262.70019531 758 1262.70019531 758 1349.09960938 831 c 1,0,-1
EndSplineSet
EndChar
StartChar: exclamdown
Encoding: 161 161 161
Width: 809
Flags: W
LayerCount: 2
Back
Fore
SplineSet
575.099609375 956 m 0,0,1
 575.099609375 878 575.099609375 878 524.700195312 823 c 128,-1,2
 474.299804688 768 474.299804688 768 404.099609375 768 c 0,3,4
 333 768 333 768 283.5 823 c 128,-1,5
 234 878 234 878 234 956 c 0,6,7
 234 1035 234 1035 283.950195312 1091 c 128,-1,8
 333.900390625 1147 333.900390625 1147 404.099609375 1147 c 0,9,10
 474.299804688 1147 474.299804688 1147 524.700195312 1090.5 c 128,-1,11
 575.099609375 1034 575.099609375 1034 575.099609375 956 c 0,0,1
573.299804688 -373 m 1,12,-1
 235.799804688 -373 l 1,13,-1
 341.099609375 469 l 1,14,-1
 341.099609375 659 l 1,15,-1
 466.200195312 659 l 1,16,-1
 466.200195312 469 l 1,17,-1
 573.299804688 -373 l 1,12,-1
EndSplineSet
Substitution2: "'case' Case-Sensitive Forms" exclamdown.case
EndChar
StartChar: cent
Encoding: 162 162 162
Width: 1282
Flags: W
LayerCount: 2
Back
Fore
SplineSet
665.099609375 94 m 1,0,-1
 665.099609375 969 l 1,1,2
 576 944 576 944 536.849609375 843.5 c 128,-1,3
 497.700195312 743 497.700195312 743 497.700195312 532 c 0,4,5
 497.700195312 321 497.700195312 321 536.400390625 221 c 128,-1,6
 575.099609375 121 575.099609375 121 665.099609375 94 c 1,0,-1
1109.70019531 332 m 1,7,8
 1080.90039062 175 1080.90039062 175 995.849609375 85.5 c 128,-1,9
 910.799804688 -4 910.799804688 -4 774 -23 c 1,10,-1
 774 -299 l 1,11,-1
 665.099609375 -299 l 1,12,-1
 665.099609375 -29 l 1,13,14
 415.799804688 -23 415.799804688 -23 279.900390625 123.5 c 128,-1,15
 144 270 144 270 144 532 c 0,16,17
 144 794 144 794 279.900390625 939.5 c 128,-1,18
 415.799804688 1085 415.799804688 1085 665.099609375 1092 c 1,19,-1
 665.099609375 1356 l 1,20,-1
 774 1356 l 1,21,-1
 774 1087 l 1,22,23
 827.099609375 1083 827.099609375 1083 899.549804688 1064 c 128,-1,24
 972 1045 972 1045 1078.20019531 1008 c 1,25,-1
 1078.20019531 713 l 1,26,-1
 976.5 713 l 1,27,28
 963 839 963 839 913.5 903.5 c 128,-1,29
 864 968 864 968 774 979 c 1,30,-1
 774 88 l 1,31,32
 855.900390625 104 855.900390625 104 902.700195312 165 c 128,-1,33
 949.5 226 949.5 226 960.299804688 332 c 1,34,-1
 1109.70019531 332 l 1,7,8
EndSplineSet
EndChar
StartChar: sterling
Encoding: 163 163 163
Width: 1282
Flags: W
LayerCount: 2
Back
Fore
SplineSet
1122.29980469 1202 m 1,0,-1
 1014.29980469 1202 l 1,1,2
 1008.90039062 1299 1008.90039062 1299 964.349609375 1353 c 128,-1,3
 919.799804688 1407 919.799804688 1407 844.200195312 1407 c 0,4,5
 738.900390625 1407 738.900390625 1407 693 1332.5 c 128,-1,6
 647.099609375 1258 647.099609375 1258 647.099609375 1083 c 2,7,-1
 647.099609375 815 l 1,8,-1
 963.900390625 815 l 1,9,-1
 963.900390625 694 l 1,10,-1
 647.099609375 694 l 1,11,-1
 647.099609375 137 l 1,12,-1
 1025.09960938 137 l 1,13,-1
 1025.09960938 365 l 1,14,-1
 1148.40039062 365 l 1,15,-1
 1148.40039062 0 l 1,16,-1
 132.299804688 0 l 1,17,-1
 132.299804688 121 l 1,18,-1
 306 121 l 1,19,-1
 306 694 l 1,20,-1
 132.299804688 694 l 1,21,-1
 132.299804688 815 l 1,22,-1
 306 815 l 1,23,-1
 306 1092 l 2,24,25
 306 1308 306 1308 426.150390625 1414 c 128,-1,26
 546.299804688 1520 546.299804688 1520 792.900390625 1520 c 0,27,28
 851.400390625 1520 851.400390625 1520 932.849609375 1511 c 128,-1,29
 1014.29980469 1502 1014.29980469 1502 1122.29980469 1485 c 1,30,-1
 1122.29980469 1202 l 1,0,-1
EndSplineSet
EndChar
StartChar: currency
Encoding: 164 164 164
Width: 1172
Flags: W
LayerCount: 2
Back
Fore
SplineSet
587.700195312 422 m 0,0,1
 669.599609375 422 669.599609375 422 727.200195312 485.5 c 128,-1,2
 784.799804688 549 784.799804688 549 784.799804688 641 c 0,3,4
 784.799804688 733 784.799804688 733 727.650390625 796.5 c 128,-1,5
 670.5 860 670.5 860 587.700195312 860 c 0,6,7
 505.799804688 860 505.799804688 860 448.200195312 796.5 c 128,-1,8
 390.599609375 733 390.599609375 733 390.599609375 641 c 0,9,10
 390.599609375 548 390.599609375 548 447.299804688 485 c 128,-1,11
 504 422 504 422 587.700195312 422 c 0,0,1
392.400390625 268 m 1,12,-1
 204.299804688 61 l 1,13,-1
 68.400390625 215 l 1,14,-1
 256.5 424 l 1,15,16
 228.599609375 470 228.599609375 470 215.549804688 523.5 c 128,-1,17
 202.5 577 202.5 577 202.5 641 c 0,18,19
 202.5 704 202.5 704 216 758 c 128,-1,20
 229.5 812 229.5 812 256.5 858 c 1,21,-1
 68.400390625 1063 l 1,22,-1
 206.099609375 1221 l 1,23,-1
 392.400390625 1010 l 1,24,25
 435.599609375 1040 435.599609375 1040 484.200195312 1054.5 c 128,-1,26
 532.799804688 1069 532.799804688 1069 587.700195312 1069 c 0,27,28
 637.200195312 1069 637.200195312 1069 686.25 1054.5 c 128,-1,29
 735.299804688 1040 735.299804688 1040 786.599609375 1010 c 1,30,-1
 971.099609375 1221 l 1,31,-1
 1107.90039062 1067 l 1,32,-1
 919.799804688 862 l 1,33,34
 946.799804688 806 946.799804688 806 959.849609375 750.5 c 128,-1,35
 972.900390625 695 972.900390625 695 972.900390625 641 c 0,36,37
 972.900390625 578 972.900390625 578 959.849609375 525.5 c 128,-1,38
 946.799804688 473 946.799804688 473 919.799804688 426 c 1,39,-1
 1107.90039062 215 l 1,40,-1
 967.5 61 l 1,41,-1
 781.200195312 272 l 1,42,43
 739.799804688 242 739.799804688 242 692.099609375 227.5 c 128,-1,44
 644.400390625 213 644.400390625 213 587.700195312 213 c 0,45,46
 535.5 213 535.5 213 486.900390625 227 c 128,-1,47
 438.299804688 241 438.299804688 241 392.400390625 268 c 1,12,-1
EndSplineSet
EndChar
StartChar: yen
Encoding: 165 165 165
Width: 1282
Flags: W
LayerCount: 2
Back
Fore
SplineSet
293.400390625 0 m 1,0,-1
 293.400390625 121 l 1,1,-1
 464.400390625 121 l 1,2,-1
 464.400390625 467 l 1,3,-1
 101.700195312 467 l 1,4,-1
 101.700195312 584 l 1,5,-1
 464.400390625 584 l 1,6,-1
 464.400390625 643 l 1,7,-1
 409.5 778 l 1,8,-1
 101.700195312 778 l 1,9,-1
 101.700195312 895 l 1,10,-1
 359.099609375 895 l 1,11,-1
 158.400390625 1372 l 1,12,-1
 35.099609375 1372 l 1,13,-1
 35.099609375 1493 l 1,14,-1
 659.700195312 1493 l 1,15,-1
 659.700195312 1372 l 1,16,-1
 506.700195312 1372 l 1,17,-1
 738.900390625 821 l 1,18,-1
 969.299804688 1372 l 1,19,-1
 833.400390625 1372 l 1,20,-1
 833.400390625 1493 l 1,21,-1
 1225.79980469 1493 l 1,22,-1
 1225.79980469 1372 l 1,23,-1
 1104.29980469 1372 l 1,24,-1
 905.400390625 895 l 1,25,-1
 1168.20019531 895 l 1,26,-1
 1168.20019531 778 l 1,27,-1
 853.200195312 778 l 1,28,-1
 805.5 662 l 1,29,-1
 805.5 584 l 1,30,-1
 1168.20019531 584 l 1,31,-1
 1168.20019531 467 l 1,32,-1
 805.5 467 l 1,33,-1
 805.5 121 l 1,34,-1
 976.5 121 l 1,35,-1
 976.5 0 l 1,36,-1
 293.400390625 0 l 1,0,-1
EndSplineSet
EndChar
StartChar: brokenbar
Encoding: 166 166 166
Width: 670
Flags: W
LayerCount: 2
Back
Fore
SplineSet
431.099609375 1432 m 1,0,-1
 431.099609375 674 l 1,1,-1
 237.599609375 674 l 1,2,-1
 237.599609375 1432 l 1,3,-1
 431.099609375 1432 l 1,0,-1
431.099609375 408 m 1,4,-1
 431.099609375 -350 l 1,5,-1
 237.599609375 -350 l 1,6,-1
 237.599609375 408 l 1,7,-1
 431.099609375 408 l 1,4,-1
EndSplineSet
EndChar
StartChar: section
Encoding: 167 167 167
Width: 963
Flags: W
LayerCount: 2
Back
Fore
SplineSet
807.299804688 1475 m 1,0,-1
 807.299804688 1235 l 1,1,-1
 700.200195312 1235 l 1,2,3
 694.799804688 1321 694.799804688 1321 648 1364 c 128,-1,4
 601.200195312 1407 601.200195312 1407 513.900390625 1407 c 0,5,6
 441 1407 441 1407 400.049804688 1370 c 128,-1,7
 359.099609375 1333 359.099609375 1333 359.099609375 1266 c 0,8,9
 359.099609375 1219 359.099609375 1219 383.400390625 1186 c 128,-1,10
 407.700195312 1153 407.700195312 1153 488.700195312 1106 c 2,11,-1
 610.200195312 1034 l 1,12,13
 780.299804688 936 780.299804688 936 843.75 852 c 128,-1,14
 907.200195312 768 907.200195312 768 907.200195312 653 c 0,15,16
 907.200195312 549 907.200195312 549 855.900390625 475 c 128,-1,17
 804.599609375 401 804.599609375 401 702 358 c 1,18,19
 776.700195312 311 776.700195312 311 811.349609375 247.5 c 128,-1,20
 846 184 846 184 846 94 c 0,21,22
 846 -43 846 -43 747.900390625 -119 c 128,-1,23
 649.799804688 -195 649.799804688 -195 469.799804688 -195 c 0,24,25
 395.099609375 -195 395.099609375 -195 313.650390625 -183.5 c 128,-1,26
 232.200195312 -172 232.200195312 -172 140.400390625 -150 c 1,27,-1
 140.400390625 90 l 1,28,-1
 246.599609375 90 l 1,29,30
 253.799804688 0 253.799804688 0 300.599609375 -41 c 128,-1,31
 347.400390625 -82 347.400390625 -82 442.799804688 -82 c 0,32,33
 521.099609375 -82 521.099609375 -82 562.950195312 -45 c 128,-1,34
 604.799804688 -8 604.799804688 -8 604.799804688 61 c 0,35,36
 604.799804688 108 604.799804688 108 580.950195312 141 c 128,-1,37
 557.099609375 174 557.099609375 174 475.200195312 221 c 2,38,-1
 353.700195312 293 l 2,39,40
 184.5 392 184.5 392 120.599609375 476 c 128,-1,41
 56.7001953125 560 56.7001953125 560 56.7001953125 674 c 0,42,43
 56.7001953125 777 56.7001953125 777 108.450195312 850 c 128,-1,44
 160.200195312 923 160.200195312 923 263.700195312 967 c 1,45,46
 189 1013 189 1013 153.450195312 1077.5 c 128,-1,47
 117.900390625 1142 117.900390625 1142 117.900390625 1231 c 0,48,49
 117.900390625 1367 117.900390625 1367 216 1443.5 c 128,-1,50
 314.099609375 1520 314.099609375 1520 490.5 1520 c 0,51,52
 557.099609375 1520 557.099609375 1520 635.400390625 1508.5 c 128,-1,53
 713.700195312 1497 713.700195312 1497 807.299804688 1475 c 1,0,-1
355.5 901 m 1,54,55
 315.900390625 868 315.900390625 868 295.200195312 829 c 128,-1,56
 274.5 790 274.5 790 274.5 745 c 0,57,58
 274.5 684 274.5 684 315.450195312 633 c 128,-1,59
 356.400390625 582 356.400390625 582 455.400390625 524 c 2,60,-1
 606.599609375 436 l 1,61,62
 647.099609375 471 647.099609375 471 668.25 510.5 c 128,-1,63
 689.400390625 550 689.400390625 550 689.400390625 592 c 0,64,65
 689.400390625 652 689.400390625 652 647.549804688 703 c 128,-1,66
 605.700195312 754 605.700195312 754 504.900390625 813 c 2,67,-1
 355.5 901 l 1,54,55
EndSplineSet
EndChar
StartChar: dieresis
Encoding: 168 168 168
Width: 921
Flags: W
LayerCount: 2
Back
Fore
SplineSet
126.900390625 1468 m 0,0,1
 126.900390625 1528 126.900390625 1528 166.5 1571 c 128,-1,2
 206.099609375 1614 206.099609375 1614 260.099609375 1614 c 0,3,4
 314.099609375 1614 314.099609375 1614 352.349609375 1571 c 128,-1,5
 390.599609375 1528 390.599609375 1528 390.599609375 1468 c 0,6,7
 390.599609375 1408 390.599609375 1408 351.900390625 1364.5 c 128,-1,8
 313.200195312 1321 313.200195312 1321 260.099609375 1321 c 0,9,10
 206.099609375 1321 206.099609375 1321 166.5 1365 c 128,-1,11
 126.900390625 1409 126.900390625 1409 126.900390625 1468 c 0,0,1
529.200195312 1468 m 0,12,13
 529.200195312 1528 529.200195312 1528 568.349609375 1571 c 128,-1,14
 607.5 1614 607.5 1614 661.5 1614 c 0,15,16
 715.5 1614 715.5 1614 755.099609375 1571 c 128,-1,17
 794.700195312 1528 794.700195312 1528 794.700195312 1468 c 0,18,19
 794.700195312 1409 794.700195312 1409 755.099609375 1365 c 128,-1,20
 715.5 1321 715.5 1321 661.5 1321 c 0,21,22
 607.5 1321 607.5 1321 568.349609375 1365 c 128,-1,23
 529.200195312 1409 529.200195312 1409 529.200195312 1468 c 0,12,13
EndSplineSet
LCarets2: 1 0
EndChar
StartChar: copyright
Encoding: 169 169 169
Width: 1843
Flags: W
LayerCount: 2
Back
Fore
SplineSet
921.599609375 1485 m 0,0,1
 1058.40039062 1485 1058.40039062 1485 1176.75 1430 c 128,-1,2
 1295.09960938 1375 1295.09960938 1375 1393.20019531 1266 c 0,3,4
 1491.29980469 1157 1491.29980469 1157 1539.90039062 1026 c 128,-1,5
 1588.5 895 1588.5 895 1588.5 741 c 0,6,7
 1588.5 589 1588.5 589 1539.90039062 458.5 c 128,-1,8
 1491.29980469 328 1491.29980469 328 1393.20019531 219 c 0,9,10
 1295.09960938 110 1295.09960938 110 1176.75 55 c 128,-1,11
 1058.40039062 0 1058.40039062 0 921.599609375 0 c 0,12,13
 784.799804688 0 784.799804688 0 666.450195312 55 c 128,-1,14
 548.099609375 110 548.099609375 110 450 219 c 0,15,16
 351.900390625 328 351.900390625 328 303.299804688 458.5 c 128,-1,17
 254.700195312 589 254.700195312 589 254.700195312 741 c 0,18,19
 254.700195312 895 254.700195312 895 303.299804688 1026 c 128,-1,20
 351.900390625 1157 351.900390625 1157 450 1266 c 0,21,22
 548.099609375 1375 548.099609375 1375 666.450195312 1430 c 128,-1,23
 784.799804688 1485 784.799804688 1485 921.599609375 1485 c 0,0,1
921.599609375 1331 m 0,24,25
 812.700195312 1331 812.700195312 1331 719.099609375 1287.5 c 128,-1,26
 625.5 1244 625.5 1244 547.200195312 1157 c 0,27,28
 469.799804688 1071 469.799804688 1071 431.099609375 967.5 c 128,-1,29
 392.400390625 864 392.400390625 864 392.400390625 741 c 0,30,31
 392.400390625 619 392.400390625 619 431.099609375 515.5 c 128,-1,32
 469.799804688 412 469.799804688 412 547.200195312 326 c 0,33,34
 624.599609375 240 624.599609375 240 718.650390625 197 c 128,-1,35
 812.700195312 154 812.700195312 154 921.599609375 154 c 0,36,37
 1032.29980469 154 1032.29980469 154 1125 196.5 c 128,-1,38
 1217.70019531 239 1217.70019531 239 1296 326 c 0,39,40
 1373.40039062 412 1373.40039062 412 1412.09960938 515.5 c 128,-1,41
 1450.79980469 619 1450.79980469 619 1450.79980469 741 c 0,42,43
 1450.79980469 864 1450.79980469 864 1412.09960938 967.5 c 128,-1,44
 1373.40039062 1071 1373.40039062 1071 1296 1157 c 0,45,46
 1216.79980469 1245 1216.79980469 1245 1123.65039062 1288 c 128,-1,47
 1030.5 1331 1030.5 1331 921.599609375 1331 c 0,24,25
1251.90039062 580 m 1,48,49
 1227.59960938 441 1227.59960938 441 1145.25 371 c 128,-1,50
 1062.90039062 301 1062.90039062 301 923.400390625 301 c 0,51,52
 754.200195312 301 754.200195312 301 649.799804688 422 c 128,-1,53
 545.400390625 543 545.400390625 543 545.400390625 741 c 0,54,55
 545.400390625 943 545.400390625 943 650.700195312 1063.5 c 128,-1,56
 756 1184 756 1184 932.400390625 1184 c 0,57,58
 1003.5 1184 1003.5 1184 1075.5 1165.5 c 128,-1,59
 1147.5 1147 1147.5 1147 1225.79980469 1108 c 1,60,-1
 1225.79980469 885 l 1,61,-1
 1131.29980469 885 l 1,62,63
 1120.5 979 1120.5 979 1073.25 1032 c 128,-1,64
 1026 1085 1026 1085 953.099609375 1085 c 0,65,66
 859.5 1085 859.5 1085 805.950195312 993.5 c 128,-1,67
 752.400390625 902 752.400390625 902 752.400390625 741 c 0,68,69
 752.400390625 580 752.400390625 580 805.5 489.5 c 128,-1,70
 858.599609375 399 858.599609375 399 953.099609375 399 c 0,71,72
 1018.79980469 399 1018.79980469 399 1062.90039062 445 c 128,-1,73
 1107 491 1107 491 1127.70019531 580 c 1,74,-1
 1251.90039062 580 l 1,48,49
EndSplineSet
EndChar
StartChar: ordfeminine
Encoding: 170 170 170
Width: 897
Flags: W
LayerCount: 2
Back
Fore
SplineSet
101.700195312 639 m 1,0,-1
 819.900390625 639 l 1,1,-1
 819.900390625 504 l 1,2,-1
 101.700195312 504 l 1,3,-1
 101.700195312 639 l 1,0,-1
761.400390625 1212 m 2,4,-1
 761.400390625 850 l 1,5,-1
 864.900390625 850 l 1,6,-1
 864.900390625 756 l 1,7,-1
 523.799804688 756 l 1,8,-1
 523.799804688 848 l 1,9,10
 477.900390625 791 477.900390625 791 419.849609375 764 c 128,-1,11
 361.799804688 737 361.799804688 737 285.299804688 737 c 0,12,13
 174.599609375 737 174.599609375 737 114.75 798 c 128,-1,14
 54.900390625 859 54.900390625 859 54.900390625 973 c 0,15,16
 54.900390625 1101 54.900390625 1101 139.950195312 1164 c 128,-1,17
 225 1227 225 1227 397.799804688 1227 c 2,18,-1
 523.799804688 1227 l 1,19,-1
 523.799804688 1255 l 2,20,21
 523.799804688 1345 523.799804688 1345 481.5 1389.5 c 128,-1,22
 439.200195312 1434 439.200195312 1434 353.700195312 1434 c 0,23,24
 285.299804688 1434 285.299804688 1434 245.700195312 1401.5 c 128,-1,25
 206.099609375 1369 206.099609375 1369 197.099609375 1307 c 1,26,-1
 110.700195312 1307 l 1,27,-1
 110.700195312 1473 l 1,28,29
 176.400390625 1496 176.400390625 1496 245.700195312 1508 c 128,-1,30
 315 1520 315 1520 390.599609375 1520 c 0,31,32
 583.200195312 1520 583.200195312 1520 672.299804688 1446 c 128,-1,33
 761.400390625 1372 761.400390625 1372 761.400390625 1212 c 2,4,-1
523.799804688 1001 m 2,34,-1
 523.799804688 1133 l 1,35,-1
 432.900390625 1133 l 2,36,37
 368.099609375 1133 368.099609375 1133 330.75 1095.5 c 128,-1,38
 293.400390625 1058 293.400390625 1058 293.400390625 993 c 0,39,40
 293.400390625 931 293.400390625 931 320.849609375 897.5 c 128,-1,41
 348.299804688 864 348.299804688 864 399.599609375 864 c 0,42,43
 456.299804688 864 456.299804688 864 490.049804688 901 c 128,-1,44
 523.799804688 938 523.799804688 938 523.799804688 1001 c 2,34,-1
EndSplineSet
EndChar
StartChar: guillemotleft
Encoding: 171 171 171
Width: 1152
Flags: W
LayerCount: 2
Back
Fore
SplineSet
978.299804688 1069 m 1,0,-1
 978.299804688 922 l 1,1,-1
 763.200195312 600 l 1,2,-1
 978.299804688 279 l 1,3,-1
 978.299804688 131 l 1,4,-1
 556.200195312 516 l 1,5,-1
 556.200195312 684 l 1,6,-1
 978.299804688 1069 l 1,0,-1
564.299804688 1069 m 1,7,-1
 564.299804688 922 l 1,8,-1
 348.299804688 600 l 1,9,-1
 564.299804688 279 l 1,10,-1
 564.299804688 131 l 1,11,-1
 142.200195312 516 l 1,12,-1
 142.200195312 684 l 1,13,-1
 564.299804688 1069 l 1,7,-1
EndSplineSet
EndChar
StartChar: logicalnot
Encoding: 172 172 172
Width: 1544
Flags: W
LayerCount: 2
Back
Fore
SplineSet
195.299804688 903 m 1,0,-1
 1349.09960938 903 l 1,1,-1
 1349.09960938 287 l 1,2,-1
 1143 287 l 1,3,-1
 1143 676 l 1,4,-1
 195.299804688 676 l 1,5,-1
 195.299804688 903 l 1,0,-1
EndSplineSet
EndChar
StartChar: sfthyphen
Encoding: 173 173 173
Width: 765
Flags: W
LayerCount: 2
Back
Fore
SplineSet
99.900390625 684 m 1,0,-1
 665.099609375 684 l 1,1,-1
 665.099609375 414 l 1,2,-1
 99.900390625 414 l 1,3,-1
 99.900390625 684 l 1,0,-1
EndSplineSet
EndChar
StartChar: registered
Encoding: 174 174 174
Width: 1843
Flags: W
LayerCount: 2
Back
Fore
SplineSet
1049.40039062 754 m 1,0,1
 1084.5 743 1084.5 743 1111.5 716.5 c 128,-1,2
 1138.5 690 1138.5 690 1155.59960938 649 c 2,3,-1
 1245.59960938 434 l 1,4,-1
 1299.59960938 434 l 1,5,-1
 1299.59960938 352 l 1,6,-1
 1098.90039062 352 l 1,7,-1
 993.599609375 606 l 1,8,9
 964.799804688 674 964.799804688 674 938.25 695.5 c 128,-1,10
 911.700195312 717 911.700195312 717 862.200195312 717 c 2,11,-1
 838.799804688 717 l 1,12,-1
 838.799804688 434 l 1,13,-1
 916.200195312 434 l 1,14,-1
 916.200195312 352 l 1,15,-1
 584.099609375 352 l 1,16,-1
 584.099609375 434 l 1,17,-1
 661.5 434 l 1,18,-1
 661.5 1077 l 1,19,-1
 584.099609375 1077 l 1,20,-1
 584.099609375 1159 l 1,21,-1
 991.799804688 1159 l 2,22,23
 1099.79980469 1159 1099.79980469 1159 1161.90039062 1104 c 128,-1,24
 1224 1049 1224 1049 1224 954 c 0,25,26
 1224 865 1224 865 1179.45019531 814 c 128,-1,27
 1134.90039062 763 1134.90039062 763 1049.40039062 754 c 1,0,1
838.799804688 799 m 1,28,-1
 899.099609375 799 l 2,29,30
 970.200195312 799 970.200195312 799 1008.45019531 835 c 128,-1,31
 1046.70019531 871 1046.70019531 871 1046.70019531 938 c 0,32,33
 1046.70019531 1005 1046.70019531 1005 1008.45019531 1041 c 128,-1,34
 970.200195312 1077 970.200195312 1077 899.099609375 1077 c 2,35,-1
 838.799804688 1077 l 1,36,-1
 838.799804688 799 l 1,28,-1
921.599609375 1485 m 0,37,38
 1058.40039062 1485 1058.40039062 1485 1176.75 1430 c 128,-1,39
 1295.09960938 1375 1295.09960938 1375 1393.20019531 1266 c 0,40,41
 1491.29980469 1157 1491.29980469 1157 1539.90039062 1026 c 128,-1,42
 1588.5 895 1588.5 895 1588.5 741 c 0,43,44
 1588.5 589 1588.5 589 1539.90039062 458.5 c 128,-1,45
 1491.29980469 328 1491.29980469 328 1393.20019531 219 c 0,46,47
 1295.09960938 110 1295.09960938 110 1176.75 55 c 128,-1,48
 1058.40039062 0 1058.40039062 0 921.599609375 0 c 0,49,50
 784.799804688 0 784.799804688 0 666.450195312 55 c 128,-1,51
 548.099609375 110 548.099609375 110 450 219 c 0,52,53
 351.900390625 328 351.900390625 328 303.299804688 458.5 c 128,-1,54
 254.700195312 589 254.700195312 589 254.700195312 741 c 0,55,56
 254.700195312 895 254.700195312 895 303.299804688 1026 c 128,-1,57
 351.900390625 1157 351.900390625 1157 450 1266 c 0,58,59
 548.099609375 1375 548.099609375 1375 666.450195312 1430 c 128,-1,60
 784.799804688 1485 784.799804688 1485 921.599609375 1485 c 0,37,38
921.599609375 1331 m 0,61,62
 812.700195312 1331 812.700195312 1331 719.099609375 1287.5 c 128,-1,63
 625.5 1244 625.5 1244 547.200195312 1157 c 0,64,65
 469.799804688 1071 469.799804688 1071 431.099609375 967.5 c 128,-1,66
 392.400390625 864 392.400390625 864 392.400390625 741 c 0,67,68
 392.400390625 619 392.400390625 619 431.099609375 515.5 c 128,-1,69
 469.799804688 412 469.799804688 412 547.200195312 326 c 0,70,71
 624.599609375 240 624.599609375 240 718.650390625 197 c 128,-1,72
 812.700195312 154 812.700195312 154 921.599609375 154 c 0,73,74
 1032.29980469 154 1032.29980469 154 1125 196.5 c 128,-1,75
 1217.70019531 239 1217.70019531 239 1296 326 c 0,76,77
 1373.40039062 412 1373.40039062 412 1412.09960938 515.5 c 128,-1,78
 1450.79980469 619 1450.79980469 619 1450.79980469 741 c 0,79,80
 1450.79980469 864 1450.79980469 864 1412.09960938 967.5 c 128,-1,81
 1373.40039062 1071 1373.40039062 1071 1296 1157 c 0,82,83
 1216.79980469 1245 1216.79980469 1245 1123.65039062 1288 c 128,-1,84
 1030.5 1331 1030.5 1331 921.599609375 1331 c 0,61,62
EndSplineSet
EndChar
StartChar: macron
Encoding: 175 175 175
Width: 921
Flags: W
LayerCount: 2
Back
Fore
SplineSet
177.299804688 1548 m 1,0,-1
 744.299804688 1548 l 1,1,-1
 744.299804688 1360 l 1,2,-1
 177.299804688 1360 l 1,3,-1
 177.299804688 1548 l 1,0,-1
EndSplineSet
EndChar
StartChar: degree
Encoding: 176 176 176
Width: 921
Flags: W
LayerCount: 2
Back
Fore
SplineSet
460.799804688 1534 m 0,0,1
 520.200195312 1534 520.200195312 1534 575.099609375 1508.5 c 128,-1,2
 630 1483 630 1483 673.200195312 1436 c 1,3,4
 715.5 1388 715.5 1388 737.549804688 1328 c 128,-1,5
 759.599609375 1268 759.599609375 1268 759.599609375 1200 c 0,6,7
 759.599609375 1133 759.599609375 1133 737.549804688 1072.5 c 128,-1,8
 715.5 1012 715.5 1012 675 967 c 0,9,10
 631.799804688 919 631.799804688 919 576 893.5 c 128,-1,11
 520.200195312 868 520.200195312 868 459 868 c 0,12,13
 332.099609375 868 332.099609375 868 246.150390625 963.5 c 128,-1,14
 160.200195312 1059 160.200195312 1059 160.200195312 1200 c 0,15,16
 160.200195312 1341 160.200195312 1341 247.049804688 1437.5 c 128,-1,17
 333.900390625 1534 333.900390625 1534 460.799804688 1534 c 0,0,1
460.799804688 1372 m 0,18,19
 396 1372 396 1372 351 1322 c 128,-1,20
 306 1272 306 1272 306 1200 c 0,21,22
 306 1128 306 1128 350.549804688 1079 c 128,-1,23
 395.099609375 1030 395.099609375 1030 460.799804688 1030 c 0,24,25
 525.599609375 1030 525.599609375 1030 570.599609375 1079.5 c 128,-1,26
 615.599609375 1129 615.599609375 1129 615.599609375 1200 c 0,27,28
 615.599609375 1272 615.599609375 1272 570.150390625 1322 c 128,-1,29
 524.700195312 1372 524.700195312 1372 460.799804688 1372 c 0,18,19
EndSplineSet
EndChar
StartChar: plusminus
Encoding: 177 177 177
Width: 1544
Flags: W
LayerCount: 2
Back
Fore
SplineSet
195.299804688 227 m 1,0,-1
 1349.09960938 227 l 1,1,-1
 1349.09960938 0 l 1,2,-1
 195.299804688 0 l 1,3,-1
 195.299804688 227 l 1,0,-1
875.700195312 1284 m 1,4,-1
 875.700195312 926 l 1,5,-1
 1349.09960938 926 l 1,6,-1
 1349.09960938 698 l 1,7,-1
 875.700195312 698 l 1,8,-1
 875.700195312 340 l 1,9,-1
 668.700195312 340 l 1,10,-1
 668.700195312 698 l 1,11,-1
 195.299804688 698 l 1,12,-1
 195.299804688 926 l 1,13,-1
 668.700195312 926 l 1,14,-1
 668.700195312 1284 l 1,15,-1
 875.700195312 1284 l 1,4,-1
EndSplineSet
EndChar
StartChar: twosuperior
Encoding: 178 178 178
Width: 807
Flags: W
LayerCount: 2
Back
Fore
SplineSet
169.200195312 1284 m 1,0,-1
 84.599609375 1284 l 1,1,-1
 84.599609375 1479 l 1,2,3
 149.400390625 1499 149.400390625 1499 217.349609375 1509.5 c 128,-1,4
 285.299804688 1520 285.299804688 1520 357.299804688 1520 c 0,5,6
 520.200195312 1520 520.200195312 1520 610.200195312 1456 c 128,-1,7
 700.200195312 1392 700.200195312 1392 700.200195312 1278 c 0,8,9
 700.200195312 1196 700.200195312 1196 651.150390625 1131.5 c 128,-1,10
 602.099609375 1067 602.099609375 1067 460.799804688 977 c 2,11,-1
 241.200195312 838 l 1,12,-1
 613.799804688 838 l 1,13,-1
 613.799804688 934 l 1,14,-1
 703.799804688 934 l 1,15,-1
 703.799804688 684 l 1,16,-1
 77.400390625 684 l 1,17,-1
 77.400390625 817 l 1,18,-1
 193.5 901 l 2,19,20
 361.799804688 1024 361.799804688 1024 406.799804688 1094 c 128,-1,21
 451.799804688 1164 451.799804688 1164 451.799804688 1257 c 0,22,23
 451.799804688 1341 451.799804688 1341 414.450195312 1388.5 c 128,-1,24
 377.099609375 1436 377.099609375 1436 311.400390625 1436 c 0,25,26
 254.700195312 1436 254.700195312 1436 215.549804688 1394.5 c 128,-1,27
 176.400390625 1353 176.400390625 1353 169.200195312 1284 c 1,0,-1
EndSplineSet
EndChar
StartChar: threesuperior
Encoding: 179 179 179
Width: 807
Flags: W
LayerCount: 2
Back
Fore
SplineSet
99.900390625 1481 m 1,0,1
 179.099609375 1500 179.099609375 1500 246.150390625 1510 c 128,-1,2
 313.200195312 1520 313.200195312 1520 370.799804688 1520 c 0,3,4
 532.799804688 1520 532.799804688 1520 616.5 1467.5 c 128,-1,5
 700.200195312 1415 700.200195312 1415 700.200195312 1315 c 0,6,7
 700.200195312 1243 700.200195312 1243 652.950195312 1196 c 128,-1,8
 605.700195312 1149 605.700195312 1149 513.900390625 1133 c 1,9,10
 621.900390625 1117 621.900390625 1117 677.700195312 1061.5 c 128,-1,11
 733.5 1006 733.5 1006 733.5 913 c 0,12,13
 733.5 791 733.5 791 641.700195312 729.5 c 128,-1,14
 549.900390625 668 549.900390625 668 369 668 c 0,15,16
 297 668 297 668 225 678.5 c 128,-1,17
 153 689 153 689 81 711 c 1,18,-1
 81 911 l 1,19,-1
 167.400390625 911 l 1,20,21
 173.700195312 831 173.700195312 831 212.400390625 791.5 c 128,-1,22
 251.099609375 752 251.099609375 752 322.200195312 752 c 0,23,24
 401.400390625 752 401.400390625 752 443.25 795 c 128,-1,25
 485.099609375 838 485.099609375 838 485.099609375 920 c 0,26,27
 485.099609375 1000 485.099609375 1000 441 1043.5 c 128,-1,28
 396.900390625 1087 396.900390625 1087 315 1087 c 2,29,-1
 278.099609375 1087 l 1,30,-1
 278.099609375 1171 l 1,31,-1
 306 1171 l 2,32,33
 378.900390625 1171 378.900390625 1171 418.049804688 1205 c 128,-1,34
 457.200195312 1239 457.200195312 1239 457.200195312 1303 c 0,35,36
 457.200195312 1366 457.200195312 1366 422.099609375 1401 c 128,-1,37
 387 1436 387 1436 322.200195312 1436 c 0,38,39
 262.799804688 1436 262.799804688 1436 226.799804688 1399.5 c 128,-1,40
 190.799804688 1363 190.799804688 1363 186.299804688 1299 c 1,41,-1
 99.900390625 1298 l 1,42,-1
 99.900390625 1481 l 1,0,1
EndSplineSet
EndChar
StartChar: acute
Encoding: 180 180 180
Width: 921
Flags: W
LayerCount: 2
Back
Fore
SplineSet
543.599609375 1638 m 1,0,-1
 794.700195312 1638 l 1,1,-1
 459 1262 l 1,2,-1
 311.400390625 1262 l 1,3,-1
 543.599609375 1638 l 1,0,-1
EndSplineSet
LCarets2: 1 0
EndChar
StartChar: mu
Encoding: 181 181 181
Width: 1349
Flags: W
LayerCount: 2
Back
Fore
SplineSet
1150.20019531 1063 m 1,0,-1
 1150.20019531 121 l 1,1,-1
 1287 121 l 1,2,-1
 1287 0 l 1,3,-1
 831.599609375 0 l 1,4,-1
 831.599609375 125 l 1,5,6
 782.099609375 42 782.099609375 42 733.049804688 6.5 c 128,-1,7
 684 -29 684 -29 617.400390625 -29 c 0,8,9
 589.5 -29 589.5 -29 562.950195312 -19 c 128,-1,10
 536.400390625 -9 536.400390625 -9 506.700195312 12 c 1,11,-1
 506.700195312 -305 l 1,12,-1
 643.5 -305 l 1,13,-1
 643.5 -426 l 1,14,-1
 51.2998046875 -426 l 1,15,-1
 51.2998046875 -305 l 1,16,-1
 188.099609375 -305 l 1,17,-1
 188.099609375 942 l 1,18,-1
 51.2998046875 942 l 1,19,-1
 51.2998046875 1063 l 1,20,-1
 506.700195312 1063 l 1,21,-1
 506.700195312 467 l 2,22,23
 506.700195312 247 506.700195312 247 537.299804688 192 c 128,-1,24
 567.900390625 137 567.900390625 137 647.099609375 137 c 0,25,26
 742.5 137 742.5 137 787.049804688 216.5 c 128,-1,27
 831.599609375 296 831.599609375 296 831.599609375 467 c 2,28,-1
 831.599609375 942 l 1,29,-1
 713.700195312 942 l 1,30,-1
 713.700195312 1063 l 1,31,-1
 1150.20019531 1063 l 1,0,-1
EndSplineSet
EndChar
StartChar: paragraph
Encoding: 182 182 182
Width: 1172
Flags: W
LayerCount: 2
Back
Fore
SplineSet
560.700195312 1493 m 2,0,-1
 1060.20019531 1493 l 1,1,-1
 1060.20019531 1368 l 1,2,-1
 958.5 1368 l 1,3,-1
 958.5 -197 l 1,4,-1
 821.700195312 -197 l 1,5,-1
 821.700195312 1368 l 1,6,-1
 675 1368 l 1,7,-1
 675 -197 l 1,8,-1
 538.200195312 -197 l 1,9,-1
 538.200195312 649 l 1,10,11
 344.700195312 666 344.700195312 666 238.5 776.5 c 128,-1,12
 132.299804688 887 132.299804688 887 132.299804688 1071 c 0,13,14
 132.299804688 1261 132.299804688 1261 249.299804688 1377 c 128,-1,15
 366.299804688 1493 366.299804688 1493 560.700195312 1493 c 2,0,-1
EndSplineSet
EndChar
StartChar: periodcentered
Encoding: 183 183 183
Width: 641
Flags: W
LayerCount: 2
Back
Fore
SplineSet
149.400390625 711 m 0,0,1
 149.400390625 789 149.400390625 789 199.799804688 845 c 128,-1,2
 250.200195312 901 250.200195312 901 320.400390625 901 c 0,3,4
 391.5 901 391.5 901 441.900390625 845 c 128,-1,5
 492.299804688 789 492.299804688 789 492.299804688 711 c 0,6,7
 492.299804688 633 492.299804688 633 441.900390625 577.5 c 128,-1,8
 391.5 522 391.5 522 320.400390625 522 c 0,9,10
 250.200195312 522 250.200195312 522 199.799804688 577.5 c 128,-1,11
 149.400390625 633 149.400390625 633 149.400390625 711 c 0,0,1
EndSplineSet
EndChar
StartChar: cedilla
Encoding: 184 184 184
Width: 921
Flags: W
LayerCount: 2
Back
Fore
SplineSet
534.599609375 0 m 1,0,1
 590.400390625 -64 590.400390625 -64 616.950195312 -118.5 c 128,-1,2
 643.5 -173 643.5 -173 643.5 -225 c 0,3,4
 643.5 -311 643.5 -311 585.450195312 -356 c 128,-1,5
 527.400390625 -401 527.400390625 -401 418.5 -401 c 0,6,7
 375.299804688 -401 375.299804688 -401 329.400390625 -394.5 c 128,-1,8
 283.5 -388 283.5 -388 236.700195312 -375 c 1,9,-1
 235.799804688 -219 l 1,10,11
 276.299804688 -236 276.299804688 -236 314.549804688 -245 c 128,-1,12
 352.799804688 -254 352.799804688 -254 385.200195312 -254 c 0,13,14
 439.200195312 -254 439.200195312 -254 467.549804688 -230.5 c 128,-1,15
 495.900390625 -207 495.900390625 -207 495.900390625 -162 c 0,16,17
 495.900390625 -134 495.900390625 -134 481.049804688 -101 c 128,-1,18
 466.200195312 -68 466.200195312 -68 420.299804688 0 c 1,19,-1
 534.599609375 0 l 1,0,1
EndSplineSet
EndChar
StartChar: onesuperior
Encoding: 185 185 185
Width: 807
Flags: W
LayerCount: 2
Back
Fore
SplineSet
145.799804688 684 m 1,0,-1
 145.799804688 778 l 1,1,-1
 293.400390625 778 l 1,2,-1
 293.400390625 1391 l 1,3,-1
 128.700195312 1290 l 1,4,-1
 128.700195312 1395 l 1,5,-1
 328.5 1520 l 1,6,-1
 532.799804688 1520 l 1,7,-1
 532.799804688 778 l 1,8,-1
 680.400390625 778 l 1,9,-1
 680.400390625 684 l 1,10,-1
 145.799804688 684 l 1,0,-1
EndSplineSet
EndChar
StartChar: ordmasculine
Encoding: 186 186 186
Width: 921
Flags: W
LayerCount: 2
Back
Fore
SplineSet
101.700195312 639 m 1,0,-1
 819.900390625 639 l 1,1,-1
 819.900390625 504 l 1,2,-1
 101.700195312 504 l 1,3,-1
 101.700195312 639 l 1,0,-1
460.799804688 823 m 0,4,5
 529.200195312 823 529.200195312 823 559.349609375 894 c 128,-1,6
 589.5 965 589.5 965 589.5 1128 c 0,7,8
 589.5 1292 589.5 1292 559.349609375 1363 c 128,-1,9
 529.200195312 1434 529.200195312 1434 460.799804688 1434 c 0,10,11
 391.5 1434 391.5 1434 361.799804688 1364 c 128,-1,12
 332.099609375 1294 332.099609375 1294 332.099609375 1128 c 0,13,14
 332.099609375 963 332.099609375 963 361.799804688 893 c 128,-1,15
 391.5 823 391.5 823 460.799804688 823 c 0,4,5
460.799804688 737 m 0,16,17
 270 737 270 737 162.450195312 841 c 128,-1,18
 54.900390625 945 54.900390625 945 54.900390625 1128 c 0,19,20
 54.900390625 1311 54.900390625 1311 162.450195312 1415.5 c 128,-1,21
 270 1520 270 1520 460.799804688 1520 c 0,22,23
 651.599609375 1520 651.599609375 1520 759.150390625 1415.5 c 128,-1,24
 866.700195312 1311 866.700195312 1311 866.700195312 1128 c 0,25,26
 866.700195312 945 866.700195312 945 759.150390625 841 c 128,-1,27
 651.599609375 737 651.599609375 737 460.799804688 737 c 0,16,17
EndSplineSet
EndChar
StartChar: guillemotright
Encoding: 187 187 187
Width: 1152
Flags: W
LayerCount: 2
Back
Fore
SplineSet
173.700195312 1069 m 1,0,-1
 595.799804688 684 l 1,1,-1
 595.799804688 516 l 1,2,-1
 173.700195312 131 l 1,3,-1
 173.700195312 279 l 1,4,-1
 388.799804688 600 l 1,5,-1
 173.700195312 922 l 1,6,-1
 173.700195312 1069 l 1,0,-1
587.700195312 1069 m 1,7,-1
 1009.79980469 684 l 1,8,-1
 1009.79980469 516 l 1,9,-1
 587.700195312 131 l 1,10,-1
 587.700195312 279 l 1,11,-1
 803.700195312 600 l 1,12,-1
 587.700195312 922 l 1,13,-1
 587.700195312 1069 l 1,7,-1
EndSplineSet
EndChar
StartChar: questiondown
Encoding: 191 191 191
Width: 1080
Flags: W
LayerCount: 2
Back
Fore
SplineSet
772.200195312 956 m 0,0,1
 772.200195312 878 772.200195312 878 721.799804688 823 c 128,-1,2
 671.400390625 768 671.400390625 768 601.200195312 768 c 0,3,4
 530.099609375 768 530.099609375 768 480.599609375 823 c 128,-1,5
 431.099609375 878 431.099609375 878 431.099609375 956 c 0,6,7
 431.099609375 1035 431.099609375 1035 481.049804688 1091 c 128,-1,8
 531 1147 531 1147 601.200195312 1147 c 0,9,10
 671.400390625 1147 671.400390625 1147 721.799804688 1090.5 c 128,-1,11
 772.200195312 1034 772.200195312 1034 772.200195312 956 c 0,0,1
960.299804688 -334 m 1,12,13
 848.700195312 -368 848.700195312 -368 747.900390625 -385 c 128,-1,14
 647.099609375 -402 647.099609375 -402 552.599609375 -402 c 0,15,16
 325.799804688 -402 325.799804688 -402 204.299804688 -291.5 c 128,-1,17
 82.7998046875 -181 82.7998046875 -181 82.7998046875 24 c 0,18,19
 82.7998046875 226 82.7998046875 226 200.25 342.5 c 128,-1,20
 317.700195312 459 317.700195312 459 538.200195312 477 c 1,21,-1
 538.200195312 682 l 1,22,-1
 663.299804688 682 l 1,23,-1
 663.299804688 383 l 1,24,25
 538.200195312 340 538.200195312 340 479.25 247.5 c 128,-1,26
 420.299804688 155 420.299804688 155 420.299804688 2 c 0,27,28
 420.299804688 -143 420.299804688 -143 475.200195312 -216 c 128,-1,29
 530.099609375 -289 530.099609375 -289 638.099609375 -289 c 0,30,31
 736.200195312 -289 736.200195312 -289 789.75 -223 c 128,-1,32
 843.299804688 -157 843.299804688 -157 852.299804688 -27 c 1,33,-1
 960.299804688 -27 l 1,34,-1
 960.299804688 -334 l 1,12,13
EndSplineSet
Substitution2: "'case' Case-Sensitive Forms" questiondown.case
EndChar
StartChar: Aring
Encoding: 197 197 197
Width: 1430
Flags: W
LayerCount: 2
Back
Fore
SplineSet
591.299804688 1616 m 0,0,1
 591.299804688 1562 591.299804688 1562 626.400390625 1523.5 c 128,-1,2
 661.5 1485 661.5 1485 709.200195312 1485 c 0,3,4
 758.700195312 1485 758.700195312 1485 793.349609375 1523.5 c 128,-1,5
 828 1562 828 1562 828 1616 c 0,6,7
 828 1670 828 1670 792.900390625 1708.5 c 128,-1,8
 757.799804688 1747 757.799804688 1747 709.200195312 1747 c 0,9,10
 661.5 1747 661.5 1747 626.400390625 1708.5 c 128,-1,11
 591.299804688 1670 591.299804688 1670 591.299804688 1616 c 0,0,1
-14.400390625 0 m 1,12,-1
 -14.400390625 121 l 1,13,-1
 95.400390625 121 l 1,14,-1
 562.5 1384 l 1,15,16
 510.299804688 1421 510.299804688 1421 481.950195312 1481.5 c 128,-1,17
 453.599609375 1542 453.599609375 1542 453.599609375 1616 c 0,18,19
 453.599609375 1733 453.599609375 1733 528.75 1817 c 128,-1,20
 603.900390625 1901 603.900390625 1901 709.200195312 1901 c 0,21,22
 815.400390625 1901 815.400390625 1901 890.549804688 1817 c 128,-1,23
 965.700195312 1733 965.700195312 1733 965.700195312 1616 c 0,24,25
 965.700195312 1542 965.700195312 1542 938.25 1483 c 128,-1,26
 910.799804688 1424 910.799804688 1424 856.799804688 1384 c 1,27,-1
 1323 121 l 1,28,-1
 1450.79980469 121 l 1,29,-1
 1450.79980469 0 l 1,30,-1
 821.700195312 0 l 1,31,-1
 821.700195312 121 l 1,32,-1
 953.099609375 121 l 1,33,-1
 842.400390625 426 l 1,34,-1
 337.5 426 l 1,35,-1
 225 121 l 1,36,-1
 385.200195312 121 l 1,37,-1
 385.200195312 0 l 1,38,-1
 -14.400390625 0 l 1,12,-1
381.599609375 547 m 1,39,-1
 798.299804688 547 l 1,40,-1
 593.099609375 1118 l 1,41,-1
 381.599609375 547 l 1,39,-1
EndSplineSet
EndChar
StartChar: AE
Encoding: 198 198 198
Width: 1906
Flags: W
AnchorPoint: "below" 1094.4 0 basechar 0
AnchorPoint: "above" 1094.4 1465 basechar 0
LayerCount: 2
Back
Fore
SplineSet
360.900390625 545 m 1,0,-1
 779.400390625 545 l 1,1,-1
 779.400390625 1372 l 1,2,-1
 711.900390625 1372 l 1,3,-1
 360.900390625 545 l 1,0,-1
608.400390625 0 m 1,4,-1
 608.400390625 121 l 1,5,-1
 779.400390625 121 l 1,6,-1
 779.400390625 424 l 1,7,-1
 309.599609375 424 l 1,8,-1
 180.900390625 121 l 1,9,-1
 328.5 121 l 1,10,-1
 328.5 0 l 1,11,-1
 -56.7001953125 0 l 1,12,-1
 -56.7001953125 121 l 1,13,-1
 45.900390625 121 l 1,14,-1
 578.700195312 1372 l 1,15,-1
 397.799804688 1372 l 1,16,-1
 397.799804688 1493 l 1,17,-1
 1793.70019531 1493 l 1,18,-1
 1793.70019531 1141 l 1,19,-1
 1669.5 1141 l 1,20,-1
 1669.5 1356 l 1,21,-1
 1127.70019531 1356 l 1,22,-1
 1127.70019531 877 l 1,23,-1
 1458 877 l 1,24,-1
 1458 1067 l 1,25,-1
 1579.5 1067 l 1,26,-1
 1579.5 551 l 1,27,-1
 1458 551 l 1,28,-1
 1458 741 l 1,29,-1
 1127.70019531 741 l 1,30,-1
 1127.70019531 137 l 1,31,-1
 1688.40039062 137 l 1,32,-1
 1688.40039062 352 l 1,33,-1
 1809.90039062 352 l 1,34,-1
 1809.90039062 0 l 1,35,-1
 608.400390625 0 l 1,4,-1
EndSplineSet
EndChar
StartChar: Eth
Encoding: 208 208 208
Width: 1611
Flags: W
LayerCount: 2
Back
Fore
SplineSet
617.400390625 121 m 1,0,-1
 742.5 121 l 2,1,2
 953.099609375 121 953.099609375 121 1049.84960938 270.5 c 128,-1,3
 1146.59960938 420 1146.59960938 420 1146.59960938 748 c 0,4,5
 1146.59960938 1074 1146.59960938 1074 1049.84960938 1223 c 128,-1,6
 953.099609375 1372 953.099609375 1372 742.5 1372 c 2,7,-1
 617.400390625 1372 l 1,8,-1
 617.400390625 850 l 1,9,-1
 916.200195312 850 l 1,10,-1
 916.200195312 713 l 1,11,-1
 617.400390625 713 l 1,12,-1
 617.400390625 121 l 1,0,-1
98.099609375 0 m 1,13,-1
 98.099609375 121 l 1,14,-1
 270.900390625 121 l 1,15,-1
 270.900390625 713 l 1,16,-1
 79.2001953125 713 l 1,17,-1
 79.2001953125 850 l 1,18,-1
 270.900390625 850 l 1,19,-1
 270.900390625 1372 l 1,20,-1
 98.099609375 1372 l 1,21,-1
 98.099609375 1493 l 1,22,-1
 789.299804688 1493 l 2,23,24
 1149.29980469 1493 1149.29980469 1493 1340.54980469 1301.5 c 128,-1,25
 1531.79980469 1110 1531.79980469 1110 1531.79980469 748 c 0,26,27
 1531.79980469 385 1531.79980469 385 1340.54980469 192.5 c 128,-1,28
 1149.29980469 0 1149.29980469 0 789.299804688 0 c 2,29,-1
 98.099609375 0 l 1,13,-1
EndSplineSet
EndChar
StartChar: multiply
Encoding: 215 215 215
Width: 1544
Flags: W
LayerCount: 2
Back
Fore
SplineSet
1306.79980469 1081 m 1,0,-1
 910.799804688 641 l 1,1,-1
 1306.79980469 201 l 1,2,-1
 1168.20019531 47 l 1,3,-1
 772.200195312 487 l 1,4,-1
 376.200195312 47 l 1,5,-1
 237.599609375 201 l 1,6,-1
 634.5 641 l 1,7,-1
 237.599609375 1081 l 1,8,-1
 376.200195312 1237 l 1,9,-1
 772.200195312 797 l 1,10,-1
 1168.20019531 1237 l 1,11,-1
 1306.79980469 1081 l 1,0,-1
EndSplineSet
EndChar
StartChar: Oslash
Encoding: 216 216 216
Width: 1605
Flags: W
AnchorPoint: "above" 803.7 1465 basechar 0
AnchorPoint: "below" 803.7 0 basechar 0
LayerCount: 2
Back
Fore
SplineSet
481.5 479 m 1,0,-1
 1090.79980469 1157 l 1,1,2
 1053 1276 1053 1276 979.650390625 1337.5 c 128,-1,3
 906.299804688 1399 906.299804688 1399 801.900390625 1399 c 0,4,5
 630.900390625 1399 630.900390625 1399 546.75 1236.5 c 128,-1,6
 462.599609375 1074 462.599609375 1074 462.599609375 745 c 0,7,8
 462.599609375 669 462.599609375 669 467.099609375 603 c 128,-1,9
 471.599609375 537 471.599609375 537 481.5 479 c 1,0,-1
513.900390625 334 m 1,10,11
 554.400390625 212 554.400390625 212 625.950195312 152 c 128,-1,12
 697.5 92 697.5 92 801.900390625 92 c 0,13,14
 977.400390625 92 977.400390625 92 1060.20019531 259 c 128,-1,15
 1143 426 1143 426 1143 784 c 0,16,17
 1143 849 1143 849 1137.59960938 899.5 c 128,-1,18
 1132.20019531 950 1132.20019531 950 1120.5 993 c 1,19,-1
 513.900390625 334 l 1,10,11
1364.40039062 1280 m 1,20,21
 1445.40039062 1176 1445.40039062 1176 1485.90039062 1042.5 c 128,-1,22
 1526.40039062 909 1526.40039062 909 1526.40039062 745 c 0,23,24
 1526.40039062 383 1526.40039062 383 1333.34960938 177 c 128,-1,25
 1140.29980469 -29 1140.29980469 -29 801.900390625 -29 c 0,26,27
 659.700195312 -29 659.700195312 -29 540.450195312 10 c 128,-1,28
 421.200195312 49 421.200195312 49 325.799804688 127 c 1,29,-1
 142.200195312 -78 l 1,30,-1
 61.2001953125 12 l 1,31,-1
 241.200195312 213 l 1,32,33
 159.299804688 315 159.299804688 315 118.349609375 448.5 c 128,-1,34
 77.400390625 582 77.400390625 582 77.400390625 745 c 0,35,36
 77.400390625 1107 77.400390625 1107 270.450195312 1313.5 c 128,-1,37
 463.5 1520 463.5 1520 801.900390625 1520 c 0,38,39
 945.900390625 1520 945.900390625 1520 1065.59960938 1481.5 c 128,-1,40
 1185.29980469 1443 1185.29980469 1443 1278.90039062 1366 c 1,41,-1
 1461.59960938 1569 l 1,42,-1
 1542.59960938 1479 l 1,43,-1
 1364.40039062 1280 l 1,20,21
EndSplineSet
EndChar
StartChar: Thorn
Encoding: 222 222 222
Width: 1395
Flags: W
LayerCount: 2
Back
Fore
SplineSet
86.400390625 0 m 1,0,-1
 86.400390625 121 l 1,1,-1
 258.299804688 121 l 1,2,-1
 258.299804688 1372 l 1,3,-1
 86.400390625 1372 l 1,4,-1
 86.400390625 1493 l 1,5,-1
 819.900390625 1493 l 1,6,-1
 819.900390625 1372 l 1,7,-1
 604.799804688 1372 l 1,8,-1
 604.799804688 1202 l 1,9,-1
 851.400390625 1202 l 2,10,11
 1075.5 1202 1075.5 1202 1207.79980469 1083.5 c 128,-1,12
 1340.09960938 965 1340.09960938 965 1340.09960938 766 c 0,13,14
 1340.09960938 567 1340.09960938 567 1207.34960938 447.5 c 128,-1,15
 1074.59960938 328 1074.59960938 328 851.400390625 328 c 2,16,-1
 604.799804688 328 l 1,17,-1
 604.799804688 121 l 1,18,-1
 821.700195312 121 l 1,19,-1
 821.700195312 0 l 1,20,-1
 86.400390625 0 l 1,0,-1
604.799804688 449 m 1,21,-1
 705.599609375 449 l 2,22,23
 822.599609375 449 822.599609375 449 892.349609375 535 c 128,-1,24
 962.099609375 621 962.099609375 621 962.099609375 766 c 0,25,26
 962.099609375 910 962.099609375 910 892.799804688 995.5 c 128,-1,27
 823.5 1081 823.5 1081 705.599609375 1081 c 2,28,-1
 604.799804688 1081 l 1,29,-1
 604.799804688 449 l 1,21,-1
EndSplineSet
EndChar
StartChar: germandbls
Encoding: 223 223 223
Width: 1400
Flags: W
LayerCount: 2
Back
Fore
SplineSet
897.299804688 1221 m 1,0,1
 891 1345 891 1345 847.799804688 1394.5 c 128,-1,2
 804.599609375 1444 804.599609375 1444 703.799804688 1444 c 0,3,4
 605.700195312 1444 605.700195312 1444 561.599609375 1384.5 c 128,-1,5
 517.5 1325 517.5 1325 517.5 1190 c 2,6,-1
 517.5 0 l 1,7,-1
 63 0 l 1,8,-1
 63 121 l 1,9,-1
 198.900390625 121 l 1,10,-1
 198.900390625 1147 l 2,11,12
 198.900390625 1348 198.900390625 1348 324.900390625 1452 c 128,-1,13
 450.900390625 1556 450.900390625 1556 693 1556 c 0,14,15
 929.700195312 1556 929.700195312 1556 1050.75 1450.5 c 128,-1,16
 1171.79980469 1345 1171.79980469 1345 1196.09960938 1116 c 1,17,-1
 1176.29980469 1116 l 2,18,19
 1036.79980469 1116 1036.79980469 1116 965.25 1070.5 c 128,-1,20
 893.700195312 1025 893.700195312 1025 893.700195312 936 c 0,21,22
 893.700195312 896 893.700195312 896 914.400390625 862.5 c 128,-1,23
 935.099609375 829 935.099609375 829 1009.79980469 768 c 2,24,-1
 1089 705 l 2,25,26
 1248.29980469 577 1248.29980469 577 1292.40039062 498 c 128,-1,27
 1336.5 419 1336.5 419 1336.5 311 c 0,28,29
 1336.5 151 1336.5 151 1224.45019531 61 c 128,-1,30
 1112.40039062 -29 1112.40039062 -29 910.799804688 -29 c 0,31,32
 838.799804688 -29 838.799804688 -29 760.049804688 -14 c 128,-1,33
 681.299804688 1 681.299804688 1 591.299804688 31 c 1,34,-1
 591.299804688 289 l 1,35,-1
 700.200195312 289 l 1,36,37
 711.900390625 182 711.900390625 182 756 133 c 128,-1,38
 800.099609375 84 800.099609375 84 884.700195312 84 c 0,39,40
 953.099609375 84 953.099609375 84 995.400390625 128 c 128,-1,41
 1037.70019531 172 1037.70019531 172 1037.70019531 244 c 0,42,43
 1037.70019531 349 1037.70019531 349 890.099609375 466 c 0,44,45
 871.200195312 481 871.200195312 481 861.299804688 489 c 2,46,-1
 781.200195312 553 l 2,47,48
 689.400390625 627 689.400390625 627 648.900390625 705.5 c 128,-1,49
 608.400390625 784 608.400390625 784 608.400390625 889 c 0,50,51
 608.400390625 1023 608.400390625 1023 680.400390625 1105.5 c 128,-1,52
 752.400390625 1188 752.400390625 1188 897.299804688 1221 c 1,0,1
EndSplineSet
EndChar
StartChar: ae
Encoding: 230 230 230
Width: 1797
Flags: W
AnchorPoint: "above" 877.5 1092 basechar 0
AnchorPoint: "below" 877.5 0 basechar 0
LayerCount: 2
Back
Fore
SplineSet
1361.70019531 600 m 1,0,1
 1361.70019531 810 1361.70019531 810 1326.59960938 894.5 c 128,-1,2
 1291.5 979 1291.5 979 1206.90039062 979 c 0,3,4
 1125 979 1125 979 1089.45019531 896 c 128,-1,5
 1053.90039062 813 1053.90039062 813 1053.90039062 618 c 2,6,-1
 1053.90039062 600 l 1,7,-1
 1361.70019531 600 l 1,0,1
877.5 936 m 1,8,9
 946.799804688 1014 946.799804688 1014 1030.04980469 1053 c 128,-1,10
 1113.29980469 1092 1113.29980469 1092 1213.20019531 1092 c 0,11,12
 1449.90039062 1092 1449.90039062 1092 1576.79980469 937 c 128,-1,13
 1703.70019531 782 1703.70019531 782 1711.79980469 481 c 1,14,-1
 1053.90039062 481 l 1,15,-1
 1053.90039062 473 l 2,16,17
 1053.90039062 267 1053.90039062 267 1109.70019531 175.5 c 128,-1,18
 1165.5 84 1165.5 84 1290.59960938 84 c 0,19,20
 1393.20019531 84 1393.20019531 84 1456.20019531 144.5 c 128,-1,21
 1519.20019531 205 1519.20019531 205 1537.20019531 322 c 1,22,-1
 1688.40039062 322 l 1,23,24
 1649.70019531 141 1649.70019531 141 1534.95019531 56 c 128,-1,25
 1420.20019531 -29 1420.20019531 -29 1213.20019531 -29 c 0,26,27
 1092.59960938 -29 1092.59960938 -29 999 9.5 c 128,-1,28
 905.400390625 48 905.400390625 48 835.200195312 127 c 1,29,30
 755.099609375 49 755.099609375 49 660.150390625 10 c 128,-1,31
 565.200195312 -29 565.200195312 -29 453.599609375 -29 c 0,32,33
 268.200195312 -29 268.200195312 -29 171.900390625 57.5 c 128,-1,34
 75.599609375 144 75.599609375 144 75.599609375 309 c 0,35,36
 75.599609375 489 75.599609375 489 190.349609375 577.5 c 128,-1,37
 305.099609375 666 305.099609375 666 538.200195312 666 c 2,38,-1
 705.599609375 666 l 1,39,-1
 705.599609375 729 l 2,40,41
 705.599609375 845 705.599609375 845 642.150390625 912 c 128,-1,42
 578.700195312 979 578.700195312 979 468 979 c 0,43,44
 375.299804688 979 375.299804688 979 324 935.5 c 128,-1,45
 272.700195312 892 272.700195312 892 251.099609375 795 c 1,46,-1
 149.400390625 795 l 1,47,-1
 149.400390625 1024 l 1,48,49
 234.900390625 1058 234.900390625 1058 326.700195312 1075 c 128,-1,50
 418.5 1092 418.5 1092 520.200195312 1092 c 0,51,52
 643.5 1092 643.5 1092 731.700195312 1053.5 c 128,-1,53
 819.900390625 1015 819.900390625 1015 877.5 936 c 1,8,9
705.599609375 330 m 2,54,-1
 705.599609375 547 l 1,55,-1
 585.900390625 547 l 2,56,57
 487.799804688 547 487.799804688 547 440.099609375 492 c 128,-1,58
 392.400390625 437 392.400390625 437 392.400390625 324 c 0,59,60
 392.400390625 211 392.400390625 211 427.950195312 163 c 128,-1,61
 463.5 115 463.5 115 543.599609375 115 c 0,62,63
 621 115 621 115 663.299804688 171 c 128,-1,64
 705.599609375 227 705.599609375 227 705.599609375 330 c 2,54,-1
EndSplineSet
EndChar
StartChar: eth
Encoding: 240 240 240
Width: 1229
Flags: W
LayerCount: 2
Back
Fore
SplineSet
805.5 1337 m 1,0,1
 974.700195312 1188 974.700195312 1188 1065.15039062 986.5 c 128,-1,2
 1155.59960938 785 1155.59960938 785 1155.59960938 557 c 0,3,4
 1155.59960938 282 1155.59960938 282 1012.5 126.5 c 128,-1,5
 869.400390625 -29 869.400390625 -29 615.599609375 -29 c 0,6,7
 368.099609375 -29 368.099609375 -29 221.849609375 117.5 c 128,-1,8
 75.599609375 264 75.599609375 264 75.599609375 508 c 0,9,10
 75.599609375 738 75.599609375 738 219.150390625 889 c 128,-1,11
 362.700195312 1040 362.700195312 1040 582.299804688 1040 c 0,12,13
 620.099609375 1040 620.099609375 1040 658.799804688 1034 c 128,-1,14
 697.5 1028 697.5 1028 737.099609375 1016 c 1,15,16
 718.200195312 1079 718.200195312 1079 688.950195312 1134 c 128,-1,17
 659.700195312 1189 659.700195312 1189 617.400390625 1241 c 1,18,-1
 330.299804688 1092 l 1,19,-1
 285.299804688 1192 l 1,20,-1
 536.400390625 1323 l 1,21,22
 489.599609375 1361 489.599609375 1361 420.75 1392 c 128,-1,23
 351.900390625 1423 351.900390625 1423 261.900390625 1446 c 1,24,-1
 287.099609375 1556 l 1,25,26
 413.099609375 1539 413.099609375 1539 518.400390625 1502.5 c 128,-1,27
 623.700195312 1466 623.700195312 1466 705.599609375 1411 c 1,28,-1
 1002.59960938 1565 l 1,29,-1
 1044.90039062 1462 l 1,30,-1
 805.5 1337 l 1,0,1
754.200195312 891 m 1,31,32
 711.900390625 910 711.900390625 910 678.150390625 919 c 128,-1,33
 644.400390625 928 644.400390625 928 615.599609375 928 c 0,34,35
 515.700195312 928 515.700195312 928 473.400390625 832.5 c 128,-1,36
 431.099609375 737 431.099609375 737 431.099609375 508 c 0,37,38
 431.099609375 274 431.099609375 274 473.400390625 179 c 128,-1,39
 515.700195312 84 515.700195312 84 615.599609375 84 c 0,40,41
 715.5 84 715.5 84 756.900390625 178 c 128,-1,42
 798.299804688 272 798.299804688 272 798.299804688 508 c 0,43,44
 798.299804688 615 798.299804688 615 787.049804688 710.5 c 128,-1,45
 775.799804688 806 775.799804688 806 754.200195312 891 c 1,31,32
EndSplineSet
EndChar
StartChar: divide
Encoding: 247 247 247
Width: 1544
Flags: W
LayerCount: 2
Back
Fore
SplineSet
638.099609375 1012 m 0,0,1
 638.099609375 1073 638.099609375 1073 677.700195312 1117 c 128,-1,2
 717.299804688 1161 717.299804688 1161 772.200195312 1161 c 0,3,4
 828 1161 828 1161 867.599609375 1117 c 128,-1,5
 907.200195312 1073 907.200195312 1073 907.200195312 1012 c 0,6,7
 907.200195312 950 907.200195312 950 867.599609375 906 c 128,-1,8
 828 862 828 862 772.200195312 862 c 0,9,10
 717.299804688 862 717.299804688 862 677.700195312 906 c 128,-1,11
 638.099609375 950 638.099609375 950 638.099609375 1012 c 0,0,1
638.099609375 272 m 0,12,13
 638.099609375 334 638.099609375 334 677.700195312 378 c 128,-1,14
 717.299804688 422 717.299804688 422 772.200195312 422 c 0,15,16
 828 422 828 422 867.599609375 378 c 128,-1,17
 907.200195312 334 907.200195312 334 907.200195312 272 c 0,18,19
 907.200195312 211 907.200195312 211 867.599609375 167 c 128,-1,20
 828 123 828 123 772.200195312 123 c 0,21,22
 717.299804688 123 717.299804688 123 677.700195312 167 c 128,-1,23
 638.099609375 211 638.099609375 211 638.099609375 272 c 0,12,13
195.299804688 756 m 1,24,-1
 1349.09960938 756 l 1,25,-1
 1349.09960938 528 l 1,26,-1
 195.299804688 528 l 1,27,-1
 195.299804688 756 l 1,24,-1
EndSplineSet
EndChar
StartChar: oslash
Encoding: 248 248 248
Width: 1229
Flags: W
AnchorPoint: "above" 615.6 1092 basechar 0
AnchorPoint: "below" 615.6 0 basechar 0
LayerCount: 2
Back
Fore
SplineSet
432.900390625 416 m 1,0,-1
 781.200195312 801 l 1,1,2
 765.900390625 891 765.900390625 891 725.400390625 935 c 128,-1,3
 684.900390625 979 684.900390625 979 615.599609375 979 c 0,4,5
 516.599609375 979 516.599609375 979 474.75 883.5 c 128,-1,6
 432.900390625 788 432.900390625 788 432.900390625 553 c 2,7,-1
 432.900390625 416 l 1,0,-1
450 262 m 1,8,9
 463.5 173 463.5 173 504.900390625 128.5 c 128,-1,10
 546.299804688 84 546.299804688 84 615.599609375 84 c 0,11,12
 713.700195312 84 713.700195312 84 755.099609375 178 c 128,-1,13
 796.5 272 796.5 272 796.5 508 c 2,14,-1
 796.5 649 l 1,15,-1
 450 262 l 1,8,9
1035.90039062 913 m 1,16,17
 1095.29980469 841 1095.29980469 841 1125.45019531 745.5 c 128,-1,18
 1155.59960938 650 1155.59960938 650 1155.59960938 532 c 0,19,20
 1155.59960938 270 1155.59960938 270 1012.04980469 120.5 c 128,-1,21
 868.5 -29 868.5 -29 615.599609375 -29 c 0,22,23
 515.700195312 -29 515.700195312 -29 432 -4.5 c 128,-1,24
 348.299804688 20 348.299804688 20 276.299804688 70 c 1,25,-1
 121.5 -102 l 1,26,-1
 45.900390625 -16 l 1,27,-1
 193.5 147 l 1,28,29
 135 222 135 222 105.299804688 318.5 c 128,-1,30
 75.599609375 415 75.599609375 415 75.599609375 532 c 0,31,32
 75.599609375 795 75.599609375 795 219.150390625 943.5 c 128,-1,33
 362.700195312 1092 362.700195312 1092 615.599609375 1092 c 0,34,35
 720 1092 720 1092 805.049804688 1067 c 128,-1,36
 890.099609375 1042 890.099609375 1042 954.900390625 993 c 1,37,-1
 1106.09960938 1161 l 1,38,-1
 1183.5 1075 l 1,39,-1
 1035.90039062 913 l 1,16,17
EndSplineSet
EndChar
StartChar: thorn
Encoding: 254 254 254
Width: 1288
Flags: W
LayerCount: 2
Back
Fore
SplineSet
497.700195312 584 m 2,0,-1
 497.700195312 479 l 2,1,2
 497.700195312 293 497.700195312 293 540.450195312 210 c 128,-1,3
 583.200195312 127 583.200195312 127 678.599609375 127 c 0,4,5
 776.700195312 127 776.700195312 127 816.75 215 c 128,-1,6
 856.799804688 303 856.799804688 303 856.799804688 532 c 0,7,8
 856.799804688 761 856.799804688 761 816.75 848.5 c 128,-1,9
 776.700195312 936 776.700195312 936 678.599609375 936 c 0,10,11
 583.200195312 936 583.200195312 936 540.450195312 853 c 128,-1,12
 497.700195312 770 497.700195312 770 497.700195312 584 c 2,0,-1
179.099609375 1436 m 1,13,-1
 42.2998046875 1436 l 1,14,-1
 42.2998046875 1556 l 1,15,-1
 497.700195312 1556 l 1,16,-1
 497.700195312 928 l 1,17,18
 538.200195312 1011 538.200195312 1011 606.599609375 1051.5 c 128,-1,19
 675 1092 675 1092 775.799804688 1092 c 0,20,21
 980.099609375 1092 980.099609375 1092 1097.54980469 942.5 c 128,-1,22
 1215 793 1215 793 1215 532 c 0,23,24
 1215 271 1215 271 1097.54980469 121 c 128,-1,25
 980.099609375 -29 980.099609375 -29 775.799804688 -29 c 0,26,27
 675 -29 675 -29 606.599609375 11.5 c 128,-1,28
 538.200195312 52 538.200195312 52 497.700195312 135 c 1,29,-1
 497.700195312 -305 l 1,30,-1
 645.299804688 -305 l 1,31,-1
 645.299804688 -426 l 1,32,-1
 42.2998046875 -426 l 1,33,-1
 42.2998046875 -305 l 1,34,-1
 179.099609375 -305 l 1,35,-1
 179.099609375 1436 l 1,13,-1
EndSplineSet
EndChar
StartChar: dcroat
Encoding: 273 273 273
Width: 1288
Flags: W
LayerCount: 2
Back
Fore
SplineSet
791.099609375 479 m 2,0,-1
 791.099609375 584 l 2,1,2
 791.099609375 770 791.099609375 770 747.900390625 853 c 128,-1,3
 704.700195312 936 704.700195312 936 610.200195312 936 c 0,4,5
 511.200195312 936 511.200195312 936 471.150390625 848.5 c 128,-1,6
 431.099609375 761 431.099609375 761 431.099609375 532 c 0,7,8
 431.099609375 303 431.099609375 303 471.599609375 215 c 128,-1,9
 512.099609375 127 512.099609375 127 610.200195312 127 c 0,10,11
 704.700195312 127 704.700195312 127 747.900390625 210 c 128,-1,12
 791.099609375 293 791.099609375 293 791.099609375 479 c 2,0,-1
1109.70019531 121 m 1,13,-1
 1245.59960938 121 l 1,14,-1
 1245.59960938 0 l 1,15,-1
 791.099609375 0 l 1,16,-1
 791.099609375 135 l 1,17,18
 750.599609375 52 750.599609375 52 681.75 11.5 c 128,-1,19
 612.900390625 -29 612.900390625 -29 512.099609375 -29 c 0,20,21
 308.700195312 -29 308.700195312 -29 192.150390625 121 c 128,-1,22
 75.599609375 271 75.599609375 271 75.599609375 532 c 0,23,24
 75.599609375 794 75.599609375 794 192.150390625 943 c 128,-1,25
 308.700195312 1092 308.700195312 1092 512.099609375 1092 c 0,26,27
 612.900390625 1092 612.900390625 1092 681.75 1051.5 c 128,-1,28
 750.599609375 1011 750.599609375 1011 791.099609375 928 c 1,29,-1
 791.099609375 1223 l 1,30,-1
 499.5 1223 l 1,31,-1
 499.5 1343 l 1,32,-1
 791.099609375 1343 l 1,33,-1
 791.099609375 1436 l 1,34,-1
 654.299804688 1436 l 1,35,-1
 654.299804688 1556 l 1,36,-1
 1109.70019531 1556 l 1,37,-1
 1109.70019531 1343 l 1,38,-1
 1264.5 1343 l 1,39,-1
 1264.5 1223 l 1,40,-1
 1109.70019531 1223 l 1,41,-1
 1109.70019531 121 l 1,13,-1
EndSplineSet
AlternateSubs2: "'aalt' Access All Alternates" dcroat.alt
AlternateSubs2: "'salt' Stylistic Alternatives" dcroat.alt
EndChar
StartChar: Hbar
Encoding: 294 294 294
Width: 1741
Flags: W
AnchorPoint: "above" 873 1465 basechar 0
AnchorPoint: "below" 873 0 basechar 0
LayerCount: 2
Back
Fore
SplineSet
86.400390625 0 m 1,0,-1
 86.400390625 121 l 1,1,-1
 258.299804688 121 l 1,2,-1
 258.299804688 1053 l 1,3,-1
 86.400390625 1053 l 1,4,-1
 86.400390625 1190 l 1,5,-1
 258.299804688 1190 l 1,6,-1
 258.299804688 1372 l 1,7,-1
 86.400390625 1372 l 1,8,-1
 86.400390625 1493 l 1,9,-1
 777.599609375 1493 l 1,10,-1
 777.599609375 1372 l 1,11,-1
 604.799804688 1372 l 1,12,-1
 604.799804688 1190 l 1,13,-1
 1139.40039062 1190 l 1,14,-1
 1139.40039062 1372 l 1,15,-1
 967.5 1372 l 1,16,-1
 967.5 1493 l 1,17,-1
 1658.70019531 1493 l 1,18,-1
 1658.70019531 1372 l 1,19,-1
 1485.90039062 1372 l 1,20,-1
 1485.90039062 1190 l 1,21,-1
 1658.70019531 1190 l 1,22,-1
 1658.70019531 1053 l 1,23,-1
 1485.90039062 1053 l 1,24,-1
 1485.90039062 121 l 1,25,-1
 1658.70019531 121 l 1,26,-1
 1658.70019531 0 l 1,27,-1
 967.5 0 l 1,28,-1
 967.5 121 l 1,29,-1
 1139.40039062 121 l 1,30,-1
 1139.40039062 733 l 1,31,-1
 604.799804688 733 l 1,32,-1
 604.799804688 121 l 1,33,-1
 777.599609375 121 l 1,34,-1
 777.599609375 0 l 1,35,-1
 86.400390625 0 l 1,0,-1
604.799804688 870 m 1,36,-1
 1139.40039062 870 l 1,37,-1
 1139.40039062 1053 l 1,38,-1
 604.799804688 1053 l 1,39,-1
 604.799804688 870 l 1,36,-1
EndSplineSet
EndChar
StartChar: hbar
Encoding: 295 295 295
Width: 1340
Flags: W
AnchorPoint: "below" 679.5 0 basechar 0
AnchorPoint: "above" 291.6 1465 basechar 0
LayerCount: 2
Back
Fore
SplineSet
63 0 m 1,0,-1
 63 121 l 1,1,-1
 198.900390625 121 l 1,2,-1
 198.900390625 1196 l 1,3,-1
 56.7001953125 1196 l 1,4,-1
 56.7001953125 1333 l 1,5,-1
 198.900390625 1333 l 1,6,-1
 198.900390625 1436 l 1,7,-1
 56.7001953125 1436 l 1,8,-1
 56.7001953125 1556 l 1,9,-1
 517.5 1556 l 1,10,-1
 517.5 1333 l 1,11,-1
 840.599609375 1333 l 1,12,-1
 840.599609375 1196 l 1,13,-1
 517.5 1196 l 1,14,-1
 517.5 913 l 1,15,16
 575.099609375 1008 575.099609375 1008 648.900390625 1050 c 128,-1,17
 722.700195312 1092 722.700195312 1092 835.200195312 1092 c 0,18,19
 996.299804688 1092 996.299804688 1092 1078.65039062 986.5 c 128,-1,20
 1161 881 1161 881 1161 676 c 2,21,-1
 1161 121 l 1,22,-1
 1297.79980469 121 l 1,23,-1
 1297.79980469 0 l 1,24,-1
 726.299804688 0 l 1,25,-1
 726.299804688 121 l 1,26,-1
 842.400390625 121 l 1,27,-1
 842.400390625 686 l 2,28,29
 842.400390625 821 842.400390625 821 811.349609375 873.5 c 128,-1,30
 780.299804688 926 780.299804688 926 703.799804688 926 c 0,31,32
 607.5 926 607.5 926 562.5 847.5 c 128,-1,33
 517.5 769 517.5 769 517.5 598 c 2,34,-1
 517.5 121 l 1,35,-1
 634.5 121 l 1,36,-1
 634.5 0 l 1,37,-1
 63 0 l 1,0,-1
EndSplineSet
EndChar
StartChar: dotlessi
Encoding: 305 305 305
Width: 700
Flags: W
AnchorPoint: "above" 350.1 1092 basechar 0
LayerCount: 2
Back
Fore
SplineSet
517.5 121 m 1,0,-1
 654.299804688 121 l 1,1,-1
 654.299804688 0 l 1,2,-1
 63 0 l 1,3,-1
 63 121 l 1,4,-1
 198.900390625 121 l 1,5,-1
 198.900390625 942 l 1,6,-1
 63 942 l 1,7,-1
 63 1063 l 1,8,-1
 517.5 1063 l 1,9,-1
 517.5 121 l 1,0,-1
EndSplineSet
EndChar
StartChar: kgreenlandic
Encoding: 312 312 312
Width: 1277
Flags: W
LayerCount: 2
Back
Fore
SplineSet
638.099609375 0 m 1,0,-1
 63 0 l 1,1,-1
 63 121 l 1,2,-1
 198.900390625 121 l 1,3,-1
 198.900390625 939 l 1,4,-1
 63 939 l 1,5,-1
 63 1060 l 1,6,-1
 517.5 1060 l 1,7,-1
 517.5 556 l 1,8,-1
 903.599609375 939 l 1,9,-1
 789.299804688 939 l 1,10,-1
 789.299804688 1060 l 1,11,-1
 1225.79980469 1060 l 1,12,-1
 1225.79980469 939 l 1,13,-1
 1048.5 939 l 1,14,-1
 801.900390625 695 l 1,15,-1
 1205.09960938 121 l 1,16,-1
 1308.59960938 121 l 1,17,-1
 1308.59960938 0 l 1,18,-1
 759.599609375 0 l 1,19,-1
 759.599609375 121 l 1,20,-1
 872.099609375 121 l 1,21,-1
 606.599609375 499 l 1,22,-1
 517.5 411 l 1,23,-1
 517.5 121 l 1,24,-1
 638.099609375 121 l 1,25,-1
 638.099609375 0 l 1,0,-1
EndSplineSet
EndChar
StartChar: Lslash
Encoding: 321 321 321
Width: 1308
Flags: W
LayerCount: 2
Back
Fore
SplineSet
98.099609375 0 m 1,0,-1
 98.099609375 121 l 1,1,-1
 270.900390625 121 l 1,2,-1
 270.900390625 549 l 1,3,-1
 77.400390625 422 l 1,4,-1
 14.400390625 539 l 1,5,-1
 270.900390625 707 l 1,6,-1
 270.900390625 1372 l 1,7,-1
 98.099609375 1372 l 1,8,-1
 98.099609375 1493 l 1,9,-1
 789.299804688 1493 l 1,10,-1
 789.299804688 1372 l 1,11,-1
 617.400390625 1372 l 1,12,-1
 617.400390625 938 l 1,13,-1
 923.400390625 1139 l 1,14,-1
 986.400390625 1022 l 1,15,-1
 617.400390625 778 l 1,16,-1
 617.400390625 137 l 1,17,-1
 1146.59960938 137 l 1,18,-1
 1146.59960938 373 l 1,19,-1
 1268.09960938 373 l 1,20,-1
 1268.09960938 0 l 1,21,-1
 98.099609375 0 l 1,0,-1
EndSplineSet
EndChar
StartChar: lslash
Encoding: 322 322 322
Width: 709
Flags: W
LayerCount: 2
Back
Fore
SplineSet
522 121 m 1,0,-1
 657.900390625 121 l 1,1,-1
 657.900390625 0 l 1,2,-1
 66.599609375 0 l 1,3,-1
 66.599609375 121 l 1,4,-1
 202.5 121 l 1,5,-1
 202.5 653 l 1,6,-1
 63 557 l 1,7,-1
 7.2001953125 662 l 1,8,-1
 202.5 795 l 1,9,-1
 202.5 1436 l 1,10,-1
 66.599609375 1436 l 1,11,-1
 66.599609375 1556 l 1,12,-1
 522 1556 l 1,13,-1
 522 999 l 1,14,-1
 661.5 1096 l 1,15,-1
 719.099609375 991 l 1,16,-1
 522 858 l 1,17,-1
 522 121 l 1,0,-1
EndSplineSet
EndChar
StartChar: Eng
Encoding: 330 330 330
Width: 1607
Flags: W
LayerCount: 2
Back
Fore
SplineSet
63 0 m 1,0,-1
 63 121 l 1,1,-1
 234 121 l 1,2,-1
 234 1372 l 1,3,-1
 98.099609375 1372 l 1,4,-1
 98.099609375 1493 l 1,5,-1
 582.299804688 1493 l 1,6,-1
 582.299804688 1339 l 1,7,8
 654.299804688 1436 654.299804688 1436 747.900390625 1479 c 0,9,10
 838.799804688 1521 838.799804688 1521 983.700195312 1521 c 0,11,12
 1187.09960938 1521 1187.09960938 1521 1291.04980469 1380 c 128,-1,13
 1395 1239 1395 1239 1395 965 c 2,14,-1
 1395 41 l 2,15,16
 1395 -202 1395 -202 1284.29980469 -314 c 128,-1,17
 1173.59960938 -426 1173.59960938 -426 933.299804688 -426 c 0,18,19
 858.599609375 -426 858.599609375 -426 783 -409 c 128,-1,20
 707.400390625 -392 707.400390625 -392 629.099609375 -358 c 1,21,-1
 629.099609375 -123 l 1,22,-1
 748.799804688 -123 l 1,23,24
 748.799804688 -217 748.799804688 -217 786.150390625 -261 c 128,-1,25
 823.5 -305 823.5 -305 891.900390625 -305 c 0,26,27
 979.200195312 -305 979.200195312 -305 1013.84960938 -230.5 c 128,-1,28
 1048.5 -156 1048.5 -156 1048.5 49 c 2,29,-1
 1048.5 927 l 2,30,31
 1048.5 1176 1048.5 1176 1003.95019531 1273 c 128,-1,32
 959.400390625 1370 959.400390625 1370 849.599609375 1370 c 0,33,34
 713.700195312 1370 713.700195312 1370 647.099609375 1243 c 0,35,36
 582.299804688 1121 582.299804688 1121 582.299804688 841 c 2,37,-1
 582.299804688 121 l 1,38,-1
 754.200195312 121 l 1,39,-1
 754.200195312 0 l 1,40,-1
 63 0 l 1,0,-1
EndSplineSet
AlternateSubs2: "'aalt' Access All Alternates" Eng.alt Eng.alt2
Substitution2: "'locl' Localized Forms in Latin - Sami" Eng.alt
EndChar
StartChar: eng
Encoding: 331 331 331
Width: 1340
Flags: W
AnchorPoint: "above" 597.6 1092 basechar 0
AnchorPoint: "below" 679.5 -430 basechar 0
LayerCount: 2
Back
Fore
SplineSet
63 0 m 1,0,-1
 63 121 l 1,1,-1
 198.900390625 121 l 1,2,-1
 198.900390625 942 l 1,3,-1
 63 942 l 1,4,-1
 63 1063 l 1,5,-1
 517.5 1063 l 1,6,-1
 517.5 913 l 1,7,8
 575.099609375 1008 575.099609375 1008 648.900390625 1050 c 128,-1,9
 722.700195312 1092 722.700195312 1092 835.200195312 1092 c 0,10,11
 996.299804688 1092 996.299804688 1092 1078.65039062 986.5 c 128,-1,12
 1161 881 1161 881 1161 676 c 2,13,-1
 1161 -125 l 2,14,15
 1161 -288 1161 -288 1057.04980469 -371.5 c 128,-1,16
 953.099609375 -455 953.099609375 -455 750.599609375 -455 c 0,17,18
 696.599609375 -455 696.599609375 -455 635.400390625 -445 c 128,-1,19
 574.200195312 -435 574.200195312 -435 508.5 -416 c 1,20,-1
 508.5 -191 l 1,21,-1
 610.200195312 -191 l 1,22,23
 612 -271 612 -271 638.549804688 -306.5 c 128,-1,24
 665.099609375 -342 665.099609375 -342 724.5 -342 c 0,25,26
 790.200195312 -342 790.200195312 -342 816.299804688 -295 c 128,-1,27
 842.400390625 -248 842.400390625 -248 842.400390625 -125 c 2,28,-1
 842.400390625 686 l 2,29,30
 842.400390625 821 842.400390625 821 811.349609375 873.5 c 128,-1,31
 780.299804688 926 780.299804688 926 703.799804688 926 c 0,32,33
 607.5 926 607.5 926 562.5 847.5 c 128,-1,34
 517.5 769 517.5 769 517.5 598 c 2,35,-1
 517.5 121 l 1,36,-1
 634.5 121 l 1,37,-1
 634.5 0 l 1,38,-1
 63 0 l 1,0,-1
EndSplineSet
EndChar
StartChar: OE
Encoding: 338 338 338
Width: 2175
Flags: W
AnchorPoint: "above" 1218.6 1465 basechar 0
AnchorPoint: "below" 1218.6 0 basechar 0
LayerCount: 2
Back
Fore
SplineSet
1048.5 121 m 1,0,-1
 1048.5 1372 l 1,1,-1
 934.200195312 1372 l 2,2,3
 696.599609375 1372 696.599609375 1372 576 1215 c 128,-1,4
 455.400390625 1058 455.400390625 1058 455.400390625 748 c 0,5,6
 455.400390625 434 455.400390625 434 575.099609375 277.5 c 128,-1,7
 694.799804688 121 694.799804688 121 934.200195312 121 c 2,8,-1
 1048.5 121 l 1,0,-1
2080.79980469 0 m 1,9,-1
 891.900390625 0 l 2,10,11
 705.599609375 0 705.599609375 0 583.650390625 26 c 128,-1,12
 461.700195312 52 461.700195312 52 370.799804688 109 c 1,13,14
 229.5 195 229.5 195 153.450195312 361 c 128,-1,15
 77.400390625 527 77.400390625 527 77.400390625 748 c 0,16,17
 77.400390625 968 77.400390625 968 153.450195312 1132.5 c 128,-1,18
 229.5 1297 229.5 1297 370.799804688 1384 c 1,19,20
 460.799804688 1442 460.799804688 1442 581.400390625 1467.5 c 128,-1,21
 702 1493 702 1493 891.900390625 1493 c 2,22,-1
 2064.59960938 1493 l 1,23,-1
 2064.59960938 1141 l 1,24,-1
 1941.29980469 1141 l 1,25,-1
 1941.29980469 1356 l 1,26,-1
 1396.79980469 1356 l 1,27,-1
 1396.79980469 877 l 1,28,-1
 1727.09960938 877 l 1,29,-1
 1727.09960938 1067 l 1,30,-1
 1850.40039062 1067 l 1,31,-1
 1850.40039062 551 l 1,32,-1
 1727.09960938 551 l 1,33,-1
 1727.09960938 741 l 1,34,-1
 1396.79980469 741 l 1,35,-1
 1396.79980469 137 l 1,36,-1
 1957.5 137 l 1,37,-1
 1957.5 352 l 1,38,-1
 2080.79980469 352 l 1,39,-1
 2080.79980469 0 l 1,9,-1
EndSplineSet
EndChar
StartChar: oe
Encoding: 339 339 339
Width: 1894
Flags: W
AnchorPoint: "below" 976.5 0 basechar 0
AnchorPoint: "above" 976.5 1092 basechar 0
LayerCount: 2
Back
Fore
SplineSet
615.599609375 84 m 0,0,1
 716.400390625 84 716.400390625 84 757.349609375 180 c 128,-1,2
 798.299804688 276 798.299804688 276 798.299804688 532 c 0,3,4
 798.299804688 788 798.299804688 788 757.799804688 883.5 c 128,-1,5
 717.299804688 979 717.299804688 979 615.599609375 979 c 0,6,7
 513.900390625 979 513.900390625 979 472.5 882.5 c 128,-1,8
 431.099609375 786 431.099609375 786 431.099609375 532 c 0,9,10
 431.099609375 278 431.099609375 278 472.5 181 c 128,-1,11
 513.900390625 84 513.900390625 84 615.599609375 84 c 0,0,1
1461.59960938 600 m 1,12,13
 1461.59960938 810 1461.59960938 810 1426.04980469 894.5 c 128,-1,14
 1390.5 979 1390.5 979 1306.79980469 979 c 0,15,16
 1225.79980469 979 1225.79980469 979 1190.70019531 897 c 128,-1,17
 1155.59960938 815 1155.59960938 815 1155.59960938 618 c 2,18,-1
 1155.59960938 600 l 1,19,-1
 1461.59960938 600 l 1,12,13
976.5 936 m 1,20,21
 1044 1016 1044 1016 1127.70019531 1054 c 128,-1,22
 1211.40039062 1092 1211.40039062 1092 1317.59960938 1092 c 0,23,24
 1551.59960938 1092 1551.59960938 1092 1678.5 935 c 128,-1,25
 1805.40039062 778 1805.40039062 778 1813.5 482 c 1,26,-1
 1155.59960938 481 l 1,27,-1
 1155.59960938 473 l 2,28,29
 1155.59960938 266 1155.59960938 266 1210.5 175 c 128,-1,30
 1265.40039062 84 1265.40039062 84 1389.59960938 84 c 0,31,32
 1493.09960938 84 1493.09960938 84 1557 145 c 128,-1,33
 1620.90039062 206 1620.90039062 206 1638.90039062 322 c 1,34,-1
 1788.29980469 322 l 1,35,36
 1753.20019531 148 1753.20019531 148 1639.79980469 59.5 c 128,-1,37
 1526.40039062 -29 1526.40039062 -29 1338.29980469 -29 c 0,38,39
 1219.5 -29 1219.5 -29 1130.40039062 9.5 c 128,-1,40
 1041.29980469 48 1041.29980469 48 976.5 127 c 1,41,42
 913.5 50 913.5 50 818.099609375 10.5 c 128,-1,43
 722.700195312 -29 722.700195312 -29 601.200195312 -29 c 0,44,45
 358.200195312 -29 358.200195312 -29 216.900390625 122 c 128,-1,46
 75.599609375 273 75.599609375 273 75.599609375 532 c 0,47,48
 75.599609375 795 75.599609375 795 219.150390625 943.5 c 128,-1,49
 362.700195312 1092 362.700195312 1092 615.599609375 1092 c 0,50,51
 729.900390625 1092 729.900390625 1092 819.450195312 1053.5 c 128,-1,52
 909 1015 909 1015 976.5 936 c 1,20,21
EndSplineSet
EndChar
StartChar: Tbar
Encoding: 358 358 358
Width: 1371
Flags: W
LayerCount: 2
Back
Fore
SplineSet
213.299804688 713 m 1,0,-1
 213.299804688 850 l 1,1,-1
 512.099609375 850 l 1,2,-1
 512.099609375 1356 l 1,3,-1
 144 1356 l 1,4,-1
 144 1120 l 1,5,-1
 20.7001953125 1120 l 1,6,-1
 20.7001953125 1493 l 1,7,-1
 1352.70019531 1493 l 1,8,-1
 1352.70019531 1120 l 1,9,-1
 1231.20019531 1120 l 1,10,-1
 1231.20019531 1356 l 1,11,-1
 860.400390625 1356 l 1,12,-1
 860.400390625 850 l 1,13,-1
 1159.20019531 850 l 1,14,-1
 1159.20019531 713 l 1,15,-1
 860.400390625 713 l 1,16,-1
 860.400390625 121 l 1,17,-1
 1039.5 121 l 1,18,-1
 1039.5 0 l 1,19,-1
 333.900390625 0 l 1,20,-1
 333.900390625 121 l 1,21,-1
 512.099609375 121 l 1,22,-1
 512.099609375 713 l 1,23,-1
 213.299804688 713 l 1,0,-1
EndSplineSet
EndChar
StartChar: tbar
Encoding: 359 359 359
Width: 851
Flags: W
AnchorPoint: "above" 342 1465 basechar 0
AnchorPoint: "below" 501.3 0 basechar 0
LayerCount: 2
Back
Fore
SplineSet
182.700195312 942 m 1,0,-1
 44.099609375 942 l 1,1,-1
 44.099609375 1063 l 1,2,-1
 182.700195312 1063 l 1,3,-1
 182.700195312 1393 l 1,4,-1
 501.299804688 1393 l 1,5,-1
 501.299804688 1063 l 1,6,-1
 766.799804688 1063 l 1,7,-1
 766.799804688 942 l 1,8,-1
 501.299804688 942 l 1,9,-1
 501.299804688 665 l 1,10,-1
 766.799804688 665 l 1,11,-1
 766.799804688 544 l 1,12,-1
 501.299804688 544 l 1,13,-1
 501.299804688 291 l 2,14,15
 501.299804688 152 501.299804688 152 521.099609375 118 c 128,-1,16
 540.900390625 84 540.900390625 84 593.099609375 84 c 0,17,18
 650.700195312 84 650.700195312 84 678.599609375 127 c 128,-1,19
 706.5 170 706.5 170 708.299804688 260 c 1,20,-1
 842.400390625 260 l 1,21,22
 834.299804688 100 834.299804688 100 763.650390625 35.5 c 128,-1,23
 693 -29 693 -29 520.200195312 -29 c 0,24,25
 323.099609375 -29 323.099609375 -29 252.900390625 39.5 c 128,-1,26
 182.700195312 108 182.700195312 108 182.700195312 291 c 2,27,-1
 182.700195312 544 l 1,28,-1
 44.099609375 544 l 1,29,-1
 44.099609375 665 l 1,30,-1
 182.700195312 665 l 1,31,-1
 182.700195312 942 l 1,0,-1
EndSplineSet
EndChar
StartChar: longs
Encoding: 383 383 383
Width: 792
Flags: W
AnchorPoint: "above" 521.1 1465 basechar 0
AnchorPoint: "below" 342.9 0 basechar 0
LayerCount: 2
Back
Fore
SplineSet
517.5 121 m 1,0,-1
 702 121 l 1,1,-1
 702 0 l 1,2,-1
 63 0 l 1,3,-1
 63 121 l 1,4,-1
 198.900390625 121 l 1,5,-1
 198.900390625 942 l 1,6,-1
 56.7001953125 942 l 1,7,-1
 56.7001953125 1063 l 1,8,-1
 198.900390625 1063 l 1,9,-1
 198.900390625 1196 l 2,10,11
 198.900390625 1373 198.900390625 1373 300.599609375 1464.5 c 128,-1,12
 402.299804688 1556 402.299804688 1556 599.400390625 1556 c 0,13,14
 675.900390625 1556 675.900390625 1556 748.799804688 1546.5 c 128,-1,15
 821.700195312 1537 821.700195312 1537 891.900390625 1518 c 1,16,-1
 891.900390625 1290 l 1,17,-1
 791.099609375 1290 l 1,18,19
 783.900390625 1368 783.900390625 1368 750.150390625 1406 c 128,-1,20
 716.400390625 1444 716.400390625 1444 654.299804688 1444 c 0,21,22
 582.299804688 1444 582.299804688 1444 549.900390625 1386.5 c 0,23,24
 517.5 1324.33007812 517.5 1324.33007812 517.5 1200 c 2,25,-1
 517.5 121 l 1,0,-1
EndSplineSet
EndChar
StartChar: uni0180
Encoding: 384 384 384
Width: 1288
Flags: W
AnchorPoint: "below" 605.7 0 basechar 0
AnchorPoint: "above" 291.6 1465 basechar 0
LayerCount: 2
Back
Fore
SplineSet
179.099609375 121 m 1,0,-1
 179.099609375 1196 l 1,1,-1
 36.900390625 1196 l 1,2,-1
 36.900390625 1333 l 1,3,-1
 179.099609375 1333 l 1,4,-1
 179.099609375 1436 l 1,5,-1
 42.2998046875 1436 l 1,6,-1
 42.2998046875 1556 l 1,7,-1
 497.700195312 1556 l 1,8,-1
 497.700195312 1333 l 1,9,-1
 820.799804688 1333 l 1,10,-1
 820.799804688 1196 l 1,11,-1
 497.700195312 1196 l 9,12,-1
 497.700195312 928 l 17,13,14
 538.200195312 1011 538.200195312 1011 606.599609375 1051.5 c 128,-1,15
 675 1092 675 1092 775.799804688 1092 c 0,16,17
 980.099609375 1092 980.099609375 1092 1097.54980469 942.5 c 128,-1,18
 1215 793 1215 793 1215 532 c 0,19,20
 1215 271 1215 271 1097.54980469 121 c 128,-1,21
 980.099609375 -29 980.099609375 -29 775.799804688 -29 c 0,22,23
 675 -29 675 -29 606.599609375 11.5 c 128,-1,24
 538.200195312 52 538.200195312 52 497.700195312 135 c 1,25,-1
 497.700195312 0 l 1,26,-1
 42.2998046875 0 l 1,27,-1
 42.2998046875 121 l 1,28,-1
 179.099609375 121 l 1,0,-1
497.700195312 479 m 2,29,30
 497.700195312 293 497.700195312 293 540.450195312 210 c 128,-1,31
 583.200195312 127 583.200195312 127 678.599609375 127 c 0,32,33
 776.700195312 127 776.700195312 127 816.75 215 c 128,-1,34
 856.799804688 303 856.799804688 303 856.799804688 532 c 0,35,36
 856.799804688 761 856.799804688 761 816.75 848.5 c 128,-1,37
 776.700195312 936 776.700195312 936 678.599609375 936 c 0,38,39
 583.200195312 936 583.200195312 936 540.450195312 853 c 128,-1,40
 497.700195312 770 497.700195312 770 497.700195312 584 c 2,41,-1
 497.700195312 479 l 2,29,30
EndSplineSet
EndChar
StartChar: uni0181
Encoding: 385 385 385
Width: 1557
Flags: W
LayerCount: 2
Back
Fore
SplineSet
258.299804688 1493 m 9,0,-1
 882.900390625 1493 l 18,1,2
 1132.20019531 1493 1132.20019531 1493 1251.90039062 1401 c 0,3,4
 1375.20019531 1306 1375.20019531 1306 1375.20019531 1124 c 0,5,6
 1375.20019531 991 1375.20019531 991 1290.59960938 913 c 0,7,8
 1205.09960938 835 1205.09960938 835 1037.70019531 815 c 1,9,10
 1240.20019531 815 1240.20019531 815 1348.20019531 695 c 0,11,12
 1456.20019531 596 1456.20019531 596 1456.20019531 432 c 0,13,14
 1456.20019531 210 1456.20019531 210 1305 105 c 0,15,16
 1154.70019531 0 1154.70019531 0 833.400390625 0 c 2,17,-1
 86.400390625 0 l 1,18,-1
 86.400390625 121 l 1,19,-1
 258.299804688 121 l 1,20,-1
 258.299804688 1372 l 0,21,22
 81.900390625 1372 81.900390625 1372 19.7998046875 1283 c 0,23,24
 -43.2001953125 1192 -43.2001953125 1192 -43.2001953125 1006 c 1,25,-1
 -221.400390625 1006 l 1,26,-1
 -221.400390625 1364 l 1,27,28
 -81.7431640625 1493 -81.7431640625 1493 258.299804688 1493 c 9,0,-1
604.799804688 870 m 1,29,-1
 722.700195312 870 l 2,30,31
 877.5 870 877.5 870 952.200195312 932 c 0,32,33
 1026.90039062 995 1026.90039062 995 1026.90039062 1124 c 0,34,35
 1026.90039062 1254 1026.90039062 1254 954 1313 c 0,36,37
 882 1372 882 1372 722.700195312 1372 c 2,38,-1
 604.799804688 1372 l 1,39,-1
 604.799804688 870 l 1,29,-1
604.799804688 121 m 1,40,-1
 733.5 121 l 2,41,42
 905.400390625 121 905.400390625 121 988.200195312 197 c 128,-1,43
 1071 273 1071 273 1071 432 c 0,44,45
 1071 592 1071 592 987.299804688 671 c 128,-1,46
 903.599609375 750 903.599609375 750 733.5 750 c 2,47,-1
 604.799804688 750 l 1,48,-1
 604.799804688 121 l 1,40,-1
EndSplineSet
EndChar
StartChar: uni0183
Encoding: 387 387 387
Width: 1288
Flags: W
LayerCount: 2
Back
Fore
SplineSet
497.700195312 479 m 2,0,1
 497.700195312 293 497.700195312 293 540 210 c 0,2,3
 583.200195312 127 583.200195312 127 678.599609375 127 c 0,4,5
 776.700195312 127 776.700195312 127 817.200195312 215 c 0,6,7
 856.799804688 303 856.799804688 303 856.799804688 532 c 128,-1,8
 856.799804688 761 856.799804688 761 817.200195312 848 c 0,9,10
 776.700195312 936 776.700195312 936 678.599609375 936 c 0,11,12
 583.200195312 936 583.200195312 936 540 853 c 0,13,14
 497.700195312 770 497.700195312 770 497.700195312 584 c 2,15,-1
 497.700195312 479 l 2,0,1
1036.79980469 1556 m 1,16,-1
 1036.79980469 1268 l 1,17,-1
 927.900390625 1268 l 1,18,-1
 927.900390625 1436 l 1,19,-1
 497.700195312 1436 l 1,20,-1
 497.700195312 928 l 1,21,22
 538.200195312 1011 538.200195312 1011 606.599609375 1052 c 0,23,24
 675 1092 675 1092 775.799804688 1092 c 0,25,26
 980.099609375 1092 980.099609375 1092 1098 942 c 0,27,28
 1215 793 1215 793 1215 532 c 128,-1,29
 1215 271 1215 271 1098 121 c 0,30,31
 980.099609375 -29 980.099609375 -29 775.799804688 -29 c 0,32,33
 675 -29 675 -29 606.599609375 12 c 0,34,35
 538.200195312 52 538.200195312 52 497.700195312 135 c 1,36,-1
 497.700195312 0 l 1,37,-1
 42.2998046875 0 l 1,38,-1
 42.2998046875 121 l 1,39,-1
 179.099609375 121 l 1,40,-1
 179.099609375 1436 l 1,41,-1
 42.2998046875 1436 l 1,42,-1
 42.2998046875 1556 l 1,43,-1
 1036.79980469 1556 l 1,16,-1
EndSplineSet
EndChar
StartChar: uni0184
Encoding: 388 388 388
Width: 1575
Flags: W
LayerCount: 2
Back
Fore
SplineSet
604.799804688 870 m 1,0,-1
 723.599609375 870 l 2,1,2
 907.497070312 870 907.497070312 870 1033.91113281 852.375 c 0,3,4
 1045.93457031 850.698242188 1045.93457031 850.698242188 1054.79980469 849 c 0,5,6
 1232.3515625 814.987304688 1232.3515625 814.987304688 1362.15039062 697.868164062 c 0,7,8
 1363.72460938 696.440429688 1363.72460938 696.440429688 1365.29980469 695 c 0,9,10
 1473.29980469 596 1473.29980469 596 1473.29980469 432 c 0,11,12
 1473.29980469 209.997070312 1473.29980469 209.997070312 1322.54980469 105 c 128,-1,13
 1171.79101562 0 1171.79101562 0 834.299804688 0 c 2,14,-1
 86.400390625 0 l 1,15,-1
 86.400390625 121 l 1,16,-1
 258.299804688 121 l 1,17,-1
 258.299804688 834 l 1,18,-1
 0 834 l 1,19,-1
 0 955 l 1,20,-1
 604.799804688 1493 l 1,21,-1
 604.799804688 870 l 1,0,-1
604.799804688 121 m 1,22,-1
 734.400390625 121 l 2,23,24
 915.95703125 121 915.95703125 121 1000.22363281 192.5234375 c 0,25,26
 1002.83398438 194.733398438 1002.83398438 194.733398438 1005.29980469 197 c 0,27,28
 1088.09960938 273.004882812 1088.09960938 273.004882812 1088.09960938 432 c 0,29,30
 1088.09960938 592 1088.09960938 592 1004.40039062 671 c 0,31,32
 924.641601562 746.282226562 924.641601562 746.282226562 749.068359375 749.8515625 c 0,33,34
 741.7734375 750 741.7734375 750 734.400390625 750 c 2,35,-1
 604.799804688 750 l 1,36,-1
 604.799804688 121 l 1,22,-1
EndSplineSet
EndChar
StartChar: uni0185
Encoding: 389 389 389
Width: 1288
Flags: W
LayerCount: 2
Back
Fore
SplineSet
497.700195312 479 m 2,0,1
 497.700195312 293 497.700195312 293 540.450195312 210 c 128,-1,2
 583.200195312 127 583.200195312 127 678.599609375 127 c 0,3,4
 776.700195312 127 776.700195312 127 816.75 215 c 128,-1,5
 856.799804688 303 856.799804688 303 856.799804688 532 c 128,-1,6
 856.799804688 761 856.799804688 761 816.75 848.5 c 128,-1,7
 776.700195312 936 776.700195312 936 678.599609375 936 c 0,8,9
 583.200195312 936 583.200195312 936 540.450195312 853 c 128,-1,10
 497.700195312 770 497.700195312 770 497.700195312 584 c 2,11,-1
 497.700195312 479 l 2,0,1
0 1008 m 1,12,-1
 0 1128 l 1,13,-1
 497.700195312 1557 l 1,14,-1
 497.700195312 928 l 1,15,16
 538.200195312 1011 538.200195312 1011 606.599609375 1051.5 c 128,-1,17
 675 1092 675 1092 775.799804688 1092 c 0,18,19
 980.099609375 1092 980.099609375 1092 1097.54980469 942.5 c 128,-1,20
 1215 793 1215 793 1215 532 c 128,-1,21
 1215 271 1215 271 1097.54980469 121 c 128,-1,22
 980.099609375 -29 980.099609375 -29 775.799804688 -29 c 0,23,24
 675 -29 675 -29 606.599609375 11.5 c 128,-1,25
 538.200195312 52 538.200195312 52 497.700195312 135 c 1,26,-1
 497.700195312 0 l 1,27,-1
 42.2998046875 0 l 1,28,-1
 42.2998046875 121 l 1,29,-1
 179.099609375 121 l 1,30,-1
 178.200195312 1008 l 1,31,-1
 0 1008 l 1,12,-1
EndSplineSet
EndChar
StartChar: uni0186
Encoding: 390 390 390
Width: 1467
Flags: W
AnchorPoint: "above" 659.7 1465 basechar 0
LayerCount: 2
Back
Fore
SplineSet
77.400390625 1065 m 1,0,1
 130.5 1296 130.5 1296 268.200195312 1408 c 128,-1,2
 405.900390625 1520 405.900390625 1520 638.099609375 1520 c 0,3,4
 978.299804688 1520 978.299804688 1520 1175.84960938 1311.5 c 128,-1,5
 1373.40039062 1103 1373.40039062 1103 1373.40039062 746 c 0,6,7
 1373.40039062 388 1373.40039062 388 1175.84960938 179.5 c 128,-1,8
 978.299804688 -29 978.299804688 -29 638.099609375 -29 c 0,9,10
 518.400390625 -29 518.400390625 -29 388.799804688 3 c 128,-1,11
 259.200195312 35 259.200195312 35 114.299804688 100 c 1,12,-1
 114.299804688 467 l 1,13,-1
 228.599609375 467 l 1,14,15
 263.700195312 279 263.700195312 279 356.400390625 185.5 c 128,-1,16
 449.099609375 92 449.099609375 92 601.200195312 92 c 0,17,18
 797.400390625 92 797.400390625 92 892.799804688 252.5 c 128,-1,19
 988.200195312 413 988.200195312 413 988.200195312 746 c 0,20,21
 988.200195312 1079 988.200195312 1079 892.799804688 1239 c 128,-1,22
 797.400390625 1399 797.400390625 1399 599.400390625 1399 c 0,23,24
 465.299804688 1399 465.299804688 1399 380.25 1316 c 128,-1,25
 295.200195312 1233 295.200195312 1233 256.5 1065 c 1,26,-1
 77.400390625 1065 l 1,0,1
EndSplineSet
EndChar
StartChar: uni0187
Encoding: 391 391 391
Width: 1467
Flags: W
AnchorPoint: "above" 800.1 1465 basechar 0
LayerCount: 2
Back
Fore
SplineSet
1373.40039062 426 m 1,0,1
 1320.29980469 195 1320.29980469 195 1182.59960938 83 c 0,2,3
 1044.90039062 -29 1044.90039062 -29 812.700195312 -29 c 0,4,5
 472.5 -29 472.5 -29 275.400390625 180 c 0,6,7
 77.400390625 388 77.400390625 388 77.400390625 745 c 0,8,9
 77.400390625 1103 77.400390625 1103 275.400390625 1312 c 0,10,11
 472.5 1520 472.5 1520 812.700195312 1520 c 0,12,13
 932.400390625 1520 932.400390625 1520 1062 1488 c 0,14,15
 1114.20019531 1475 1114.20019531 1475 1169.09960938 1457 c 1,16,17
 1184.40039062 1583 1184.40039062 1583 1260 1652 c 0,18,19
 1336.5 1721 1336.5 1721 1428.29980469 1721 c 0,20,21
 1482.29980469 1721 1482.29980469 1721 1543.5 1711 c 0,22,23
 1604.70019531 1701 1604.70019531 1701 1670.40039062 1682 c 1,24,-1
 1670.40039062 1457 l 1,25,-1
 1568.70019531 1457 l 1,26,27
 1568.70019531 1537 1568.70019531 1537 1540.79980469 1572 c 0,28,29
 1513.79980469 1608 1513.79980469 1608 1454.40039062 1608 c 0,30,31
 1388.70019531 1608 1388.70019531 1608 1362.59960938 1561 c 0,32,33
 1336.5 1514 1336.5 1514 1336.5 1391 c 2,34,-1
 1336.5 1024 l 1,35,-1
 1222.20019531 1024 l 1,36,37
 1187.09960938 1212 1187.09960938 1212 1094.40039062 1306 c 0,38,39
 1001.70019531 1399 1001.70019531 1399 849.599609375 1399 c 0,40,41
 653.400390625 1399 653.400390625 1399 558 1238 c 0,42,43
 462.599609375 1078 462.599609375 1078 462.599609375 745 c 0,44,45
 462.599609375 412 462.599609375 412 558 252 c 0,46,47
 653.400390625 92 653.400390625 92 851.400390625 92 c 0,48,49
 985.5 92 985.5 92 1071 175 c 0,50,51
 1155.59960938 258 1155.59960938 258 1194.29980469 426 c 1,52,-1
 1373.40039062 426 l 1,0,1
EndSplineSet
EndChar
StartChar: uni0188
Encoding: 392 392 392
Width: 1122
Flags: W
AnchorPoint: "above" 597.6 1092 basechar 0
LayerCount: 2
Back
Fore
SplineSet
1039.5 332 m 1,0,1
 1005.29980469 150 1005.29980469 150 900 60 c 0,2,3
 793.799804688 -29 793.799804688 -29 612 -29 c 0,4,5
 356.400390625 -29 356.400390625 -29 216 118 c 0,6,7
 75.599609375 265 75.599609375 265 75.599609375 532 c 0,8,9
 75.599609375 796 75.599609375 796 214.200195312 944 c 0,10,11
 352.799804688 1092 352.799804688 1092 599.400390625 1092 c 0,12,13
 698.400390625 1092 698.400390625 1092 799.200195312 1071 c 1,14,-1
 799.200195312 1123 l 2,15,16
 799.200195312 1286 799.200195312 1286 903.599609375 1370 c 0,17,18
 1007.09960938 1453 1007.09960938 1453 1099.79980469 1453 c 0,19,20
 1153.79980469 1453 1153.79980469 1453 1215 1443 c 0,21,22
 1276.20019531 1433 1276.20019531 1433 1341.90039062 1414 c 1,23,-1
 1341.90039062 1189 l 1,24,-1
 1240.20019531 1189 l 1,25,26
 1240.20019531 1269 1240.20019531 1269 1211.40039062 1304 c 0,27,28
 1185.29980469 1340 1185.29980469 1340 1125.90039062 1340 c 0,29,30
 1060.20019531 1340 1060.20019531 1340 1034.09960938 1293 c 0,31,32
 1008 1246 1008 1246 1008 1123 c 2,33,-1
 1008 1008 l 1,34,-1
 1008 713 l 1,35,-1
 907.200195312 713 l 1,36,37
 892.799804688 848 892.799804688 848 836.099609375 914 c 0,38,39
 779.400390625 979 779.400390625 979 676.799804688 979 c 0,40,41
 543.599609375 979 543.599609375 979 487.799804688 879 c 0,42,43
 431.099609375 779 431.099609375 779 431.099609375 532 c 0,44,45
 431.099609375 291 431.099609375 291 486 188 c 0,46,47
 540.900390625 84 540.900390625 84 665.099609375 84 c 0,48,49
 761.400390625 84 761.400390625 84 819 148 c 0,50,51
 877.5 212 877.5 212 890.099609375 332 c 1,52,-1
 1039.5 332 l 1,0,1
EndSplineSet
EndChar
StartChar: uni018A
Encoding: 394 394 394
Width: 1598
Flags: W
AnchorPoint: "above" 778.5 1465 basechar 0
LayerCount: 2
Back
Fore
SplineSet
258.299804688 1493 m 2,0,-1
 775.799804688 1493 l 2,1,2
 1137.59960938 1493 1137.59960938 1493 1329.29980469 1301 c 128,-1,3
 1521 1109 1521 1109 1521 748 c 0,4,5
 1521 385 1521 385 1328.40039062 192 c 0,6,7
 1136.70019531 0 1136.70019531 0 775.799804688 0 c 2,8,-1
 86.400390625 0 l 1,9,-1
 86.400390625 121 l 1,10,-1
 258.299804688 121 l 1,11,-1
 258.299804688 1372 l 17,12,13
 81.900390625 1372 81.900390625 1372 19.7998046875 1283 c 0,14,15
 -43.2001953125 1192 -43.2001953125 1192 -43.2001953125 1006 c 1,16,-1
 -221.400390625 1006 l 1,17,-1
 -221.400390625 1364 l 1,18,19
 -146.700195312 1433 -146.700195312 1433 66.599609375 1476 c 0,20,21
 152.099609375 1493 152.099609375 1493 258.299804688 1493 c 2,0,-1
604.799804688 121 m 1,22,-1
 729.900390625 121 l 2,23,24
 940.5 121 940.5 121 1038.59960938 271 c 0,25,26
 1135.79980469 421 1135.79980469 421 1135.79980469 748 c 0,27,28
 1135.79980469 1073 1135.79980469 1073 1038.59960938 1222 c 0,29,30
 941.400390625 1372 941.400390625 1372 729.900390625 1372 c 2,31,-1
 604.799804688 1372 l 1,32,-1
 604.799804688 121 l 1,22,-1
EndSplineSet
EndChar
StartChar: uni018B
Encoding: 395 395 395
Width: 1575
Flags: W
LayerCount: 2
Back
Fore
SplineSet
954.900390625 1356 m 1,0,-1
 289.799804688 1356 l 1,1,-1
 289.799804688 1120 l 1,2,-1
 168.299804688 1120 l 1,3,-1
 168.299804688 1493 l 1,4,-1
 1473.29980469 1493 l 1,5,-1
 1473.29980469 1372 l 1,6,-1
 1301.40039062 1372 l 1,7,-1
 1301.40039062 121 l 1,8,-1
 1473.29980469 121 l 1,9,-1
 1473.29980469 0 l 1,10,-1
 725.400390625 0 l 2,11,12
 387.900390625 0 387.900390625 0 237.599609375 105 c 0,13,14
 86.400390625 210 86.400390625 210 86.400390625 432 c 0,15,16
 86.400390625 596 86.400390625 596 194.400390625 695 c 0,17,18
 196.200195312 696 196.200195312 696 198 698 c 0,19,20
 327.599609375 815 327.599609375 815 504.900390625 849 c 0,21,22
 513.900390625 851 513.900390625 851 525.599609375 852 c 0,23,24
 652.5 870 652.5 870 836.099609375 870 c 2,25,-1
 954.900390625 870 l 1,26,-1
 954.900390625 1356 l 1,0,-1
954.900390625 121 m 1,27,-1
 954.900390625 750 l 1,28,-1
 825.299804688 750 l 2,29,-1
 810.900390625 750 l 0,30,31
 635.400390625 750 635.400390625 750 555.299804688 671 c 0,32,33
 471.599609375 592 471.599609375 592 471.599609375 432 c 0,34,35
 471.599609375 273 471.599609375 273 554.400390625 197 c 0,36,-1
 559.799804688 193 l 0,37,38
 643.5 121 643.5 121 825.299804688 121 c 2,39,-1
 954.900390625 121 l 1,27,-1
EndSplineSet
EndChar
StartChar: uni018C
Encoding: 396 396 396
Width: 1288
Flags: W
LayerCount: 2
Back
Fore
SplineSet
759.599609375 479 m 2,0,-1
 759.599609375 584 l 2,1,2
 759.599609375 770 759.599609375 770 716.400390625 853 c 0,3,4
 674.099609375 936 674.099609375 936 578.700195312 936 c 0,5,6
 480.599609375 936 480.599609375 936 441 848 c 0,7,8
 400.5 761 400.5 761 400.5 532 c 128,-1,9
 400.5 303 400.5 303 441 215 c 0,10,11
 480.599609375 127 480.599609375 127 578.700195312 127 c 0,12,13
 674.099609375 127 674.099609375 127 716.400390625 210 c 0,14,15
 759.599609375 293 759.599609375 293 759.599609375 479 c 2,0,-1
1214.09960938 1436 m 1,16,-1
 1078.20019531 1436 l 1,17,-1
 1078.20019531 121 l 1,18,-1
 1215 121 l 1,19,-1
 1215 0 l 1,20,-1
 759.599609375 0 l 1,21,-1
 759.599609375 135 l 1,22,23
 719.099609375 52 719.099609375 52 650.700195312 12 c 0,24,25
 582.299804688 -29 582.299804688 -29 481.5 -29 c 0,26,27
 277.200195312 -29 277.200195312 -29 160.200195312 121 c 0,28,29
 42.2998046875 271 42.2998046875 271 42.2998046875 532 c 128,-1,30
 42.2998046875 793 42.2998046875 793 160.200195312 942 c 0,31,32
 277.200195312 1092 277.200195312 1092 481.5 1092 c 0,33,34
 582.299804688 1092 582.299804688 1092 650.700195312 1052 c 0,35,36
 719.099609375 1011 719.099609375 1011 759.599609375 928 c 1,37,-1
 759.599609375 1436 l 1,38,-1
 329.400390625 1436 l 1,39,-1
 329.400390625 1268 l 1,40,-1
 220.5 1268 l 1,41,-1
 220.5 1556 l 1,42,-1
 1214.09960938 1556 l 1,43,-1
 1214.09960938 1436 l 1,16,-1
EndSplineSet
EndChar
StartChar: uni018D
Encoding: 397 397 397
Width: 1229
Flags: W
LayerCount: 2
Back
Fore
SplineSet
910.799804688 41 m 8,0,1
 1057.5 -53 1057.5 -53 1057.5 -197 c 0,2,3
 1057.5 -366 1057.5 -366 937.799804688 -435 c 0,4,-1
 927 -441 l 0,5,6
 810.900390625 -504 810.900390625 -504 615.599609375 -504 c 0,7,8
 525.599609375 -504 525.599609375 -504 414.900390625 -491 c 0,9,10
 306.900390625 -478 306.900390625 -478 202.5 -454 c 1,11,-1
 202.5 -241 l 1,12,-1
 303.299804688 -241 l 1,13,14
 307.799804688 -277 307.799804688 -277 322.200195312 -298 c 0,15,16
 331.200195312 -312 331.200195312 -312 371.700195312 -345 c 1,17,18
 431.099609375 -391 431.099609375 -391 527.400390625 -391 c 0,19,20
 635.400390625 -391 635.400390625 -391 693 -343 c 1,21,-1
 722.700195312 -316 l 1,22,23
 757.799804688 -281 757.799804688 -281 750.599609375 -193 c 0,24,25
 750.599609375 -29 750.599609375 -29 615.599609375 -29 c 1,26,27
 360.900390625 -29 360.900390625 -29 218.700195312 120 c 0,28,29
 75.599609375 269 75.599609375 269 75.599609375 531 c 128,-1,30
 75.599609375 793 75.599609375 793 219.599609375 942 c 0,31,32
 362.700195312 1092 362.700195312 1092 615.599609375 1092 c 128,-1,33
 868.5 1092 868.5 1092 1011.59960938 942 c 0,34,35
 1155.59960938 793 1155.59960938 793 1155.59960938 531 c 0,36,37
 1155.59960938 268 1155.59960938 268 1011.59960938 120 c 0,38,39
 926.099609375 31 926.099609375 31 910.799804688 41 c 8,0,1
615.599609375 979 m 0,40,41
 514.799804688 979 514.799804688 979 473.400390625 883 c 0,42,43
 432.900390625 787 432.900390625 787 432.900390625 531 c 128,-1,44
 432.900390625 275 432.900390625 275 473.400390625 180 c 0,45,46
 513.900390625 84 513.900390625 84 615.599609375 84 c 128,-1,47
 717.299804688 84 717.299804688 84 758.700195312 180 c 0,48,49
 800.099609375 277 800.099609375 277 800.099609375 531 c 128,-1,50
 800.099609375 785 800.099609375 785 758.700195312 882 c 128,-1,51
 717.299804688 979 717.299804688 979 615.599609375 979 c 0,40,41
EndSplineSet
EndChar
StartChar: uni018E
Encoding: 398 398 398
Width: 1404
Flags: W
AnchorPoint: "above" 663.3 1465 basechar 0
LayerCount: 2
Back
Fore
SplineSet
1310.40039062 0 m 1,0,-1
 86.400390625 0 l 1,1,-1
 86.400390625 352 l 1,2,-1
 209.700195312 352 l 1,3,-1
 209.700195312 137 l 1,4,-1
 792 137 l 1,5,-1
 792 741 l 1,6,-1
 440.099609375 741 l 1,7,-1
 440.099609375 551 l 1,8,-1
 316.799804688 551 l 1,9,-1
 316.799804688 1067 l 1,10,-1
 440.099609375 1067 l 1,11,-1
 440.099609375 877 l 1,12,-1
 792 877 l 1,13,-1
 792 1356 l 1,14,-1
 226.799804688 1356 l 1,15,-1
 226.799804688 1141 l 1,16,-1
 102.599609375 1141 l 1,17,-1
 102.599609375 1493 l 1,18,-1
 1310.40039062 1493 l 1,19,-1
 1310.40039062 1372 l 1,20,-1
 1138.5 1372 l 1,21,-1
 1138.5 121 l 1,22,-1
 1310.40039062 121 l 1,23,-1
 1310.40039062 0 l 1,0,-1
EndSplineSet
EndChar
StartChar: uni018F
Encoding: 399 399 399
Width: 1605
Flags: W
AnchorPoint: "above" 803.7 1465 basechar 0
AnchorPoint: "below" 803.7 0 basechar 0
LayerCount: 2
Back
Fore
SplineSet
1139.40039062 830 m 1,0,1
 1139.40039062 1099 1139.40039062 1099 1045.79980469 1238 c 0,2,3
 950.400390625 1398 950.400390625 1398 752.400390625 1398 c 0,4,5
 618.299804688 1398 618.299804688 1398 532.799804688 1315 c 0,6,7
 448.200195312 1232 448.200195312 1232 409.5 1063 c 1,8,-1
 230.400390625 1063 l 1,9,10
 283.5 1294 283.5 1294 421.200195312 1407 c 0,11,12
 558.900390625 1519 558.900390625 1519 791.099609375 1519 c 0,13,14
 1131.29980469 1519 1131.29980469 1519 1328.40039062 1310 c 0,15,16
 1526.40039062 1102 1526.40039062 1102 1526.40039062 745 c 0,17,18
 1526.40039062 383 1526.40039062 383 1333.79980469 177 c 0,19,20
 1140.29980469 -29 1140.29980469 -29 801.900390625 -29 c 0,21,22
 462.599609375 -29 462.599609375 -29 270 177 c 0,23,24
 77.400390625 383 77.400390625 383 77.400390625 745 c 2,25,-1
 77.400390625 830 l 1,26,-1
 1139.40039062 830 l 1,0,1
1140.29980469 669 m 1,27,-1
 463.5 669 l 1,28,29
 463.5 388 463.5 388 547.200195312 254 c 0,30,31
 637.200195312 92 637.200195312 92 801.900390625 92 c 0,32,33
 973.799804688 92 973.799804688 92 1057.5 253 c 0,34,35
 1140.29980469 395 1140.29980469 395 1140.29980469 669 c 1,27,-1
EndSplineSet
EndChar
StartChar: uni0190
Encoding: 400 400 400
Width: 1329
Flags: W
AnchorPoint: "below" 701.1 0 basechar 0
AnchorPoint: "above" 701.1 1465 basechar 0
LayerCount: 2
Back
Fore
SplineSet
1173.59960938 1450 m 1,0,-1
 1173.59960938 1151 l 1,1,-1
 1064.70019531 1151 l 1,2,3
 1052.09960938 1274 1052.09960938 1274 990 1338.5 c 128,-1,4
 927.900390625 1403 927.900390625 1403 775.799804688 1403 c 0,5,6
 623.700195312 1403 623.700195312 1403 561.150390625 1335.5 c 128,-1,7
 498.599609375 1268 498.599609375 1268 498.599609375 1137 c 0,8,9
 498.599609375 1006 498.599609375 1006 565.200195312 938 c 128,-1,10
 631.799804688 870 631.799804688 870 872.099609375 870 c 2,11,-1
 918.900390625 870 l 1,12,-1
 918.900390625 750 l 1,13,-1
 859.5 750 l 2,14,15
 608.400390625 750 608.400390625 750 530.549804688 662 c 128,-1,16
 452.700195312 574 452.700195312 574 452.700195312 416 c 0,17,18
 452.700195312 257 452.700195312 257 521.549804688 172.5 c 128,-1,19
 590.400390625 88 590.400390625 88 763.200195312 88 c 0,20,21
 881.500976562 88 881.500976562 88 962.756835938 157.047851562 c 128,-1,22
 1044.00878906 226.094726562 1044.00878906 226.094726562 1050.29980469 283 c 1,23,-1
 1229.40039062 283 l 1,24,25
 1187.78417969 171.700195312 1187.78417969 171.700195312 1060.640625 71.3505859375 c 128,-1,26
 933.48046875 -29 933.48046875 -29 720 -29 c 0,27,28
 378 -29 378 -29 232.200195312 82.5 c 128,-1,29
 86.400390625 194 86.400390625 194 86.400390625 403 c 0,30,31
 86.400390625 574 86.400390625 574 177.75 681.5 c 128,-1,32
 269.099609375 789 269.099609375 789 434.700195312 815 c 1,33,34
 290.700195312 844 290.700195312 844 216 928 c 128,-1,35
 141.299804688 1012 141.299804688 1012 141.299804688 1147 c 0,36,37
 141.299804688 1327 141.299804688 1327 271.349609375 1423.5 c 128,-1,38
 401.400390625 1520 401.400390625 1520 712.799804688 1520 c 0,39,40
 831.599609375 1520 831.599609375 1520 943.200195312 1502.5 c 128,-1,41
 1054.79980469 1485 1054.79980469 1485 1173.59960938 1450 c 1,0,-1
EndSplineSet
EndChar
StartChar: uni0191
Encoding: 401 401 401
Width: 1308
Flags: W
LayerCount: 2
Back
Fore
SplineSet
145.799804688 -426 m 0,0,1
 -1.7998046875 -426 -1.7998046875 -426 -158.400390625 -358 c 1,2,-1
 -158.400390625 -123 l 1,3,-1
 -41.400390625 -123 l 1,4,5
 -41.400390625 -266 -41.400390625 -266 48.599609375 -296 c 0,6,7
 72 -305 72 -305 101.700195312 -305 c 0,8,9
 189 -305 189 -305 223.200195312 -230 c 0,10,11
 259.200195312 -155 259.200195312 -155 258.299804688 49 c 1,12,-1
 258.299804688 1372 l 1,13,-1
 86.400390625 1372 l 1,14,-1
 86.400390625 1493 l 1,15,-1
 1284.29980469 1493 l 1,16,-1
 1284.29980469 1141 l 1,17,-1
 1161 1141 l 1,18,-1
 1161 1356 l 1,19,-1
 606.599609375 1356 l 1,20,-1
 606.599609375 877 l 1,21,-1
 947.700195312 877 l 1,22,-1
 947.700195312 1067 l 1,23,-1
 1071 1067 l 1,24,-1
 1071 551 l 1,25,-1
 947.700195312 551 l 1,26,-1
 947.700195312 741 l 1,27,-1
 606.599609375 741 l 1,28,-1
 606.599609375 41 l 2,29,30
 606.599609375 -222 606.599609375 -222 476.099609375 -332 c 0,31,32
 364.5 -426 364.5 -426 145.799804688 -426 c 0,0,1
EndSplineSet
EndChar
StartChar: florin
Encoding: 402 402 402
Width: 792
Flags: W
LayerCount: 2
Back
Fore
SplineSet
891.900390625 1290 m 1,0,-1
 791.099609375 1290 l 1,1,2
 789.299804688 1305 789.299804688 1305 787.5 1318 c 0,3,4
 777.599609375 1375 777.599609375 1375 750.599609375 1406 c 0,5,6
 716.400390625 1444 716.400390625 1444 654.299804688 1444 c 0,7,8
 582.299804688 1444 582.299804688 1444 549.900390625 1386 c 0,9,10
 517.5 1329 517.5 1329 517.5 1200 c 2,11,-1
 517.5 1063 l 1,12,-1
 757.799804688 1063 l 1,13,-1
 757.799804688 942 l 1,14,-1
 517.5 942 l 1,15,-1
 517.5 -29 l 2,16,17
 517.5 -206 517.5 -206 415.799804688 -298 c 0,18,19
 314.099609375 -389 314.099609375 -389 117 -389 c 0,20,21
 40.5 -389 40.5 -389 -32.400390625 -380 c 0,22,23
 -105.299804688 -370 -105.299804688 -370 -175.5 -351 c 1,24,-1
 -175.5 -123 l 1,25,-1
 -74.7001953125 -123 l 1,26,27
 -72.900390625 -138 -72.900390625 -138 -71.099609375 -151 c 0,28,29
 -61.2001953125 -208 -61.2001953125 -208 -34.2001953125 -239 c 0,30,31
 0 -277 0 -277 62.099609375 -277 c 0,32,33
 134.099609375 -277 134.099609375 -277 166.5 -220 c 0,34,35
 198.900390625 -162 198.900390625 -162 198.900390625 -33 c 2,36,-1
 198.900390625 942 l 1,37,-1
 56.7001953125 942 l 1,38,-1
 56.7001953125 1063 l 1,39,-1
 198.900390625 1063 l 1,40,-1
 198.900390625 1196 l 2,41,42
 198.900390625 1373 198.900390625 1373 300.599609375 1464 c 0,43,44
 402.299804688 1556 402.299804688 1556 599.400390625 1556 c 0,45,46
 675.900390625 1556 675.900390625 1556 748.799804688 1546 c 0,47,48
 821.700195312 1537 821.700195312 1537 891.900390625 1518 c 1,49,-1
 891.900390625 1290 l 1,0,-1
EndSplineSet
EndChar
StartChar: uni0193
Encoding: 403 403 403
Width: 1574
Flags: W
AnchorPoint: "above" 818.1 1465 basechar 0
LayerCount: 2
Back
Fore
SplineSet
1215 1435 m 1,0,1
 1236.59960938 1590 1236.59960938 1590 1305.90039062 1652 c 0,2,3
 1382.40039062 1721 1382.40039062 1721 1474.20019531 1721 c 0,4,5
 1528.20019531 1721 1528.20019531 1721 1589.40039062 1711 c 128,-1,6
 1650.59960938 1701 1650.59960938 1701 1716.29980469 1682 c 1,7,-1
 1716.29980469 1457 l 1,8,-1
 1614.59960938 1457 l 1,9,10
 1614.59960938 1537 1614.59960938 1537 1585.79980469 1572 c 0,11,12
 1559.70019531 1608 1559.70019531 1608 1500.29980469 1608 c 0,13,14
 1434.59960938 1608 1434.59960938 1608 1408.5 1561 c 128,-1,15
 1382.40039062 1514 1382.40039062 1514 1382.40039062 1391 c 2,16,-1
 1382.40039062 1024 l 1,17,-1
 1268.09960938 1024 l 1,18,19
 1227.59960938 1222 1227.59960938 1222 1133.09960938 1310 c 0,20,21
 1038.59960938 1399 1038.59960938 1399 866.700195312 1399 c 0,22,23
 657.900390625 1399 657.900390625 1399 559.799804688 1242 c 0,24,25
 462.599609375 1084 462.599609375 1084 462.599609375 745 c 0,26,27
 462.599609375 409 462.599609375 409 556.200195312 250 c 0,28,29
 649.799804688 92 649.799804688 92 847.799804688 92 c 0,30,31
 923.400390625 92 923.400390625 92 988.200195312 111 c 128,-1,32
 1053 130 1053 130 1106.09960938 168 c 1,33,-1
 1106.09960938 578 l 1,34,-1
 944.099609375 578 l 1,35,-1
 944.099609375 698 l 1,36,-1
 1428.29980469 698 l 1,37,-1
 1428.29980469 125 l 1,38,39
 1277.09960938 47 1277.09960938 47 1126.79980469 9 c 0,40,41
 975.599609375 -29 975.599609375 -29 818.099609375 -29 c 0,42,43
 472.5 -29 472.5 -29 275.400390625 178 c 0,44,45
 77.400390625 385 77.400390625 385 77.400390625 745 c 0,46,47
 77.400390625 1106 77.400390625 1106 275.400390625 1313 c 0,48,49
 472.5 1520 472.5 1520 818.099609375 1520 c 0,50,51
 1030.5 1520 1030.5 1520 1101.59960938 1488 c 0,52,-1
 1215 1435 l 1,0,1
EndSplineSet
EndChar
